<svg width="1392" height="409" viewBox="0 0 1392 409" fill="none" xmlns="http://www.w3.org/2000/svg">
<g clip-path="url(#clip0_701_64)">
<path d="M1372.78 264.592C1373.26 265.845 1373.79 267.178 1374.34 268.568C1376.15 273.106 1378.2 278.259 1379.65 283.266C1381.6 290.012 1382.89 297.782 1381.25 305.903C1377.77 323.033 1362.68 336.184 1333.33 346.704C1275.71 367.362 1203.9 381.477 1108.11 386.572C1094.43 387.3 1080.56 388.26 1066.59 389.226C1045.65 390.676 1024.47 392.141 1003.3 392.867C979.526 393.683 955.938 394.405 932.391 395.126C906.87 395.907 881.399 396.686 855.791 397.583C761.869 400.87 665.224 397.801 570.487 394.793C535.708 393.689 501.187 392.593 467.151 391.823C334.986 388.831 214.261 370.921 123.443 345.345C79.0394 332.84 52.0825 317.07 37.7831 297.708C31.2479 288.859 24.3634 279.459 19.167 269.839C13.9495 260.18 10 249.54 10 238.093C10 218.079 12.6005 196.122 22.8361 175.194C24.1323 172.543 24.7457 170.202 25.5974 166.951C25.9316 165.675 26.3026 164.26 26.766 162.63C28.3032 157.224 30.6172 150.915 36.1211 144.642C44.1 135.547 50.6917 126.813 55.4557 118.173C59.6661 110.538 66.467 103.964 74.3774 98.208C82.359 92.4001 92.0331 87.0221 102.67 81.968C123.912 71.8746 150.087 62.5698 176.56 53.5728C178.673 52.8546 181.009 52.032 183.536 51.1416C199.874 45.3866 224.254 36.7984 248.748 35.2472C252.911 34.9836 256.255 34.4516 259.996 33.8563L260.464 33.7819C264.387 33.1583 268.73 32.488 274.141 32.2666C277.109 32.1452 280.102 32.0295 283.105 31.9135C296.506 31.3955 310.102 30.87 322.493 29.7926C357.204 26.7743 390.017 24.4062 426.756 23.1246C433.38 22.8936 439.699 23.0913 445.742 23.2804L446.453 23.3026C452.795 23.5004 458.909 23.6733 465.455 23.4173C483.487 22.712 502.304 22.5837 520.879 22.4571C532.638 22.3769 544.3 22.2975 555.604 22.0727C571.895 21.7487 587.905 21.5977 603.839 21.4475C626.353 21.2352 648.716 21.0243 671.501 20.3289C712.59 19.0748 753.756 18.3816 795.143 19.7475C821.744 20.6255 847.698 21.7408 873.593 22.8535C902.823 24.1096 931.977 25.3624 961.897 26.2667C1061.77 29.2854 1142.84 42.4513 1212.37 60.9449C1279.6 78.827 1307.88 102.376 1316.48 131.091C1320.62 144.897 1319.74 158.658 1318.18 170.925C1317.7 174.751 1317.16 178.352 1316.65 181.795C1315.56 189.178 1314.57 195.841 1314.38 202.464C1315.33 203.281 1316.77 204.322 1318.75 205.597C1320.6 206.787 1322.58 207.964 1324.68 209.216C1325.19 209.522 1325.71 209.833 1326.24 210.15C1328.78 211.666 1331.58 213.369 1333.89 215.06C1355.78 231.068 1366.09 247.264 1372.78 264.592ZM1313.4 201.476C1313.39 201.476 1313.44 201.539 1313.55 201.668C1313.47 201.541 1313.41 201.477 1313.4 201.476Z" fill="black"/>
<path d="M1372.78 264.592L1363.45 268.19M1372.78 264.592C1373.26 265.845 1373.79 267.178 1374.34 268.568C1376.15 273.106 1378.2 278.259 1379.65 283.266C1381.6 290.012 1382.89 297.782 1381.25 305.903C1377.77 323.033 1362.68 336.184 1333.33 346.704C1275.71 367.362 1203.9 381.477 1108.11 386.572C1094.43 387.3 1080.56 388.26 1066.59 389.226C1045.65 390.676 1024.47 392.141 1003.3 392.867C979.526 393.683 955.938 394.405 932.391 395.126C906.87 395.907 881.399 396.686 855.791 397.583C761.869 400.87 665.224 397.801 570.487 394.793C535.708 393.689 501.187 392.593 467.151 391.823C334.986 388.831 214.261 370.921 123.443 345.345C79.0394 332.84 52.0825 317.07 37.7831 297.708C31.2479 288.859 24.3634 279.459 19.167 269.839C13.9495 260.18 10 249.54 10 238.093C10 218.079 12.6005 196.122 22.8361 175.194C24.1323 172.543 24.7457 170.202 25.5974 166.951C25.9316 165.675 26.3026 164.26 26.766 162.63C28.3032 157.224 30.6172 150.915 36.1211 144.642C44.1 135.547 50.6917 126.813 55.4557 118.173C59.6661 110.538 66.467 103.964 74.3774 98.208C82.359 92.4001 92.0331 87.0221 102.67 81.968C123.912 71.8746 150.087 62.5698 176.56 53.5728C178.673 52.8546 181.009 52.032 183.536 51.1416C199.874 45.3866 224.254 36.7984 248.748 35.2472C252.911 34.9836 256.255 34.4516 259.996 33.8563L260.464 33.7819C264.387 33.1583 268.73 32.488 274.141 32.2666C277.109 32.1452 280.102 32.0295 283.105 31.9135C296.506 31.3955 310.102 30.87 322.493 29.7926C357.204 26.7743 390.017 24.4062 426.756 23.1246C433.38 22.8936 439.699 23.0913 445.742 23.2804L446.453 23.3026C452.795 23.5004 458.909 23.6733 465.455 23.4173C483.487 22.712 502.304 22.5837 520.879 22.4571C532.638 22.3769 544.3 22.2975 555.604 22.0727C571.895 21.7487 587.905 21.5977 603.839 21.4475C626.353 21.2352 648.716 21.0243 671.501 20.3289C712.59 19.0748 753.756 18.3816 795.143 19.7475C821.744 20.6255 847.698 21.7408 873.593 22.8535C902.823 24.1096 931.977 25.3624 961.897 26.2667C1061.77 29.2854 1142.84 42.4513 1212.37 60.9449C1279.6 78.827 1307.88 102.376 1316.48 131.091C1320.62 144.897 1319.74 158.658 1318.18 170.925C1317.7 174.751 1317.16 178.352 1316.65 181.795C1315.56 189.178 1314.57 195.841 1314.38 202.464C1315.33 203.281 1316.77 204.322 1318.75 205.597C1320.6 206.787 1322.58 207.964 1324.68 209.216C1325.19 209.522 1325.71 209.833 1326.24 210.15C1328.78 211.666 1331.58 213.369 1333.89 215.06C1355.78 231.068 1366.09 247.264 1372.78 264.592ZM1313.4 201.476C1313.39 201.476 1313.44 201.539 1313.55 201.668C1313.47 201.541 1313.41 201.477 1313.4 201.476Z" stroke="black" stroke-width="20" stroke-linecap="round"/>
<path d="M1372.78 255.592C1373.26 256.845 1373.79 258.178 1374.34 259.568C1376.15 264.106 1378.2 269.259 1379.65 274.266C1381.6 281.012 1382.89 288.782 1381.25 296.903C1377.77 314.033 1362.68 327.184 1333.33 337.704C1275.71 358.362 1203.9 372.477 1108.11 377.572C1094.43 378.3 1080.56 379.26 1066.59 380.226C1045.65 381.676 1024.47 383.141 1003.3 383.867C979.526 384.683 955.938 385.405 932.391 386.126C906.87 386.907 881.399 387.686 855.791 388.583C761.869 391.87 665.224 388.801 570.487 385.793C535.708 384.689 501.187 383.593 467.151 382.823C334.986 379.831 214.261 361.921 123.443 336.345C79.0394 323.84 52.0825 308.07 37.7831 288.708C31.2479 279.859 24.3634 270.459 19.167 260.839C13.9495 251.18 10 240.54 10 229.093C10 209.079 12.6005 187.122 22.8361 166.194C24.1323 163.543 24.7457 161.202 25.5974 157.951C25.9316 156.675 26.3026 155.26 26.766 153.63C28.3032 148.224 30.6172 141.915 36.1211 135.642C44.1 126.547 50.6917 117.813 55.4557 109.173C59.6661 101.538 66.467 94.9641 74.3774 89.208C82.359 83.4001 92.0331 78.0221 102.67 72.968C123.912 62.8746 150.087 53.5698 176.56 44.5728C178.673 43.8546 181.009 43.032 183.536 42.1416C199.874 36.3866 224.254 27.7984 248.748 26.2472C252.911 25.9836 256.255 25.4516 259.996 24.8563L260.464 24.7819C264.387 24.1583 268.73 23.488 274.141 23.2666C277.109 23.1452 280.102 23.0295 283.105 22.9135C296.506 22.3955 310.102 21.87 322.493 20.7926C357.204 17.7743 390.017 15.4062 426.756 14.1246C433.38 13.8936 439.699 14.0913 445.742 14.2804L446.453 14.3026C452.795 14.5004 458.909 14.6733 465.455 14.4173C483.487 13.712 502.304 13.5837 520.879 13.4571C532.638 13.3769 544.3 13.2975 555.604 13.0727C571.895 12.7487 587.905 12.5977 603.839 12.4475C626.353 12.2352 648.716 12.0243 671.501 11.3289C712.59 10.0748 753.756 9.3816 795.143 10.7475C821.744 11.6255 847.698 12.7408 873.593 13.8535C902.823 15.1096 931.977 16.3624 961.897 17.2667C1061.77 20.2854 1142.84 33.4513 1212.37 51.9449C1279.6 69.827 1307.88 93.3762 1316.48 122.091C1320.62 135.897 1319.74 149.658 1318.18 161.925C1317.7 165.751 1317.16 169.352 1316.65 172.795C1315.56 180.178 1314.57 186.841 1314.38 193.464C1315.33 194.281 1316.77 195.322 1318.75 196.597C1320.6 197.787 1322.58 198.964 1324.68 200.216C1325.19 200.522 1325.71 200.833 1326.24 201.15C1328.78 202.666 1331.58 204.369 1333.89 206.06C1355.78 222.068 1366.09 238.264 1372.78 255.592ZM1313.4 192.476C1313.39 192.476 1313.44 192.539 1313.55 192.668C1313.47 192.541 1313.41 192.477 1313.4 192.476Z" fill="#FFF6E3"/>
<path d="M1372.78 255.592L1363.45 259.19M1372.78 255.592C1373.26 256.845 1373.79 258.178 1374.34 259.568C1376.15 264.106 1378.2 269.259 1379.65 274.266C1381.6 281.012 1382.89 288.782 1381.25 296.903C1377.77 314.033 1362.68 327.184 1333.33 337.704C1275.71 358.362 1203.9 372.477 1108.11 377.572C1094.43 378.3 1080.56 379.26 1066.59 380.226C1045.65 381.676 1024.47 383.141 1003.3 383.867C979.526 384.683 955.938 385.405 932.391 386.126C906.87 386.907 881.399 387.686 855.791 388.583C761.869 391.87 665.224 388.801 570.487 385.793C535.708 384.689 501.187 383.593 467.151 382.823C334.986 379.831 214.261 361.921 123.443 336.345C79.0394 323.84 52.0825 308.07 37.7831 288.708C31.2479 279.859 24.3634 270.459 19.167 260.839C13.9495 251.18 10 240.54 10 229.093C10 209.079 12.6005 187.122 22.8361 166.194C24.1323 163.543 24.7457 161.202 25.5974 157.951C25.9316 156.675 26.3026 155.26 26.766 153.63C28.3032 148.224 30.6172 141.915 36.1211 135.642C44.1 126.547 50.6917 117.813 55.4557 109.173C59.6661 101.538 66.467 94.9641 74.3774 89.208C82.359 83.4001 92.0331 78.0221 102.67 72.968C123.912 62.8746 150.087 53.5698 176.56 44.5728C178.673 43.8546 181.009 43.032 183.536 42.1416C199.874 36.3866 224.254 27.7984 248.748 26.2472C252.911 25.9836 256.255 25.4516 259.996 24.8563L260.464 24.7819C264.387 24.1583 268.73 23.488 274.141 23.2666C277.109 23.1452 280.102 23.0295 283.105 22.9135C296.506 22.3955 310.102 21.87 322.493 20.7926C357.204 17.7743 390.017 15.4062 426.756 14.1246C433.38 13.8936 439.699 14.0913 445.742 14.2804L446.453 14.3026C452.795 14.5004 458.909 14.6733 465.455 14.4173C483.487 13.712 502.304 13.5837 520.879 13.4571C532.638 13.3769 544.3 13.2975 555.604 13.0727C571.895 12.7487 587.905 12.5977 603.839 12.4475C626.353 12.2352 648.716 12.0243 671.501 11.3289C712.59 10.0748 753.756 9.3816 795.143 10.7475C821.744 11.6255 847.698 12.7408 873.593 13.8535C902.823 15.1096 931.977 16.3624 961.897 17.2667C1061.77 20.2854 1142.84 33.4513 1212.37 51.9449C1279.6 69.827 1307.88 93.3762 1316.48 122.091C1320.62 135.897 1319.74 149.658 1318.18 161.925C1317.7 165.751 1317.16 169.352 1316.65 172.795C1315.56 180.178 1314.57 186.841 1314.38 193.464C1315.33 194.281 1316.77 195.322 1318.75 196.597C1320.6 197.787 1322.58 198.964 1324.68 200.216C1325.19 200.522 1325.71 200.833 1326.24 201.15C1328.78 202.666 1331.58 204.369 1333.89 206.06C1355.78 222.068 1366.09 238.264 1372.78 255.592ZM1313.4 192.476C1313.39 192.476 1313.44 192.539 1313.55 192.668C1313.47 192.541 1313.41 192.477 1313.4 192.476Z" stroke="black" stroke-width="20" stroke-linecap="round"/>
<path d="M403.062 233.5C402.396 225.833 401.521 218.25 400.438 210.75C399.396 203.25 398.125 195.688 396.625 188.062C396.5 187.562 396.333 187.167 396.125 186.875C395.958 186.542 395.708 186.375 395.375 186.375C395.125 186.375 394.833 186.396 394.5 186.438C394.208 186.479 393.896 186.5 393.562 186.5C391.979 186.5 390.75 186.104 389.875 185.312C389 184.521 388.562 183.521 388.562 182.312C388.562 180.938 389.125 179.604 390.25 178.312C391.417 177.021 392.938 175.812 394.812 174.688C396.688 173.521 398.833 172.458 401.25 171.5C403.667 170.542 406.146 169.729 408.688 169.062C411.271 168.354 413.812 167.812 416.312 167.438C418.812 167.021 421.083 166.812 423.125 166.812C426.833 166.812 430.021 167.271 432.688 168.188C435.396 169.104 437.604 170.312 439.312 171.812C441.062 173.312 442.333 175.042 443.125 177C443.958 178.958 444.375 180.979 444.375 183.062C444.375 185.146 443.917 187.438 443 189.938C442.125 192.396 440.625 194.75 438.5 197C438.25 197.292 438.083 197.542 438 197.75C437.917 197.917 437.875 198.104 437.875 198.312C437.875 198.688 438.292 198.938 439.125 199.062C441.542 199.271 443.875 199.854 446.125 200.812C448.417 201.771 450.417 203.021 452.125 204.562C453.833 206.062 455.208 207.833 456.25 209.875C457.292 211.917 457.812 214.083 457.812 216.375C457.812 219.583 457.188 222.396 455.938 224.812C454.729 227.188 453.042 229.167 450.875 230.75C448.708 232.333 446.125 233.5 443.125 234.25C440.167 235.042 436.958 235.438 433.5 235.438C430.792 235.438 428.062 235.188 425.312 234.688C422.604 234.229 419.958 233.625 417.375 232.875C417.208 232.792 416.958 232.75 416.625 232.75C415.917 232.75 415.354 233.167 414.938 234C414.229 235.417 413.208 236.521 411.875 237.312C410.583 238.104 409.271 238.5 407.938 238.5C406.729 238.5 405.667 238.104 404.75 237.312C403.833 236.562 403.271 235.292 403.062 233.5ZM415.188 209.688C414.271 210.021 413.812 210.667 413.812 211.625C413.812 211.75 413.854 212.208 413.938 213C414.062 213.792 414.208 214.646 414.375 215.562C414.542 216.646 414.729 217.812 414.938 219.062C415.062 220.146 415.625 220.812 416.625 221.062C417.917 221.438 419.333 221.833 420.875 222.25C422.417 222.625 424.021 222.979 425.688 223.312C427.354 223.646 429.042 223.917 430.75 224.125C432.458 224.333 434.104 224.438 435.688 224.438C436.896 224.438 438.062 224.312 439.188 224.062C440.312 223.771 441.312 223.333 442.188 222.75C443.062 222.167 443.75 221.438 444.25 220.562C444.792 219.646 445.062 218.542 445.062 217.25C445.062 215.375 444.542 213.792 443.5 212.5C442.458 211.208 441.146 210.167 439.562 209.375C437.979 208.583 436.25 208.021 434.375 207.688C432.5 207.312 430.729 207.125 429.062 207.125C426.812 207.125 424.521 207.375 422.188 207.875C419.896 208.375 417.562 208.979 415.188 209.688ZM410.375 179.875C409.917 180 409.562 180.146 409.312 180.312C409.062 180.479 408.938 180.792 408.938 181.25C408.938 181.708 409.021 182.542 409.188 183.75C409.396 184.917 409.625 186.25 409.875 187.75C410.167 189.25 410.458 190.812 410.75 192.438C411.083 194.021 411.375 195.458 411.625 196.75C411.708 197.542 411.875 198.083 412.125 198.375C412.417 198.667 412.771 198.812 413.188 198.812C413.438 198.812 413.75 198.771 414.125 198.688C414.542 198.562 415.083 198.396 415.75 198.188C417.458 197.646 419.25 197.042 421.125 196.375C423.042 195.667 424.771 194.833 426.312 193.875C427.896 192.917 429.188 191.792 430.188 190.5C431.229 189.167 431.75 187.625 431.75 185.875C431.75 184.5 431.458 183.354 430.875 182.438C430.292 181.479 429.479 180.708 428.438 180.125C427.396 179.5 426.188 179.062 424.812 178.812C423.438 178.562 421.938 178.438 420.312 178.438C418.646 178.438 416.958 178.562 415.25 178.812C413.583 179.062 411.958 179.417 410.375 179.875ZM461.375 176.562C461.625 175.104 462.333 174.021 463.5 173.312C464.667 172.562 466.604 172.188 469.312 172.188C470.771 172.188 471.896 172.562 472.688 173.312C473.521 174.062 473.938 175.104 473.938 176.438C473.938 176.646 473.917 176.833 473.875 177C473.833 177.167 473.812 177.354 473.812 177.562C473.354 180.271 472.979 183.083 472.688 186C472.396 188.917 472.25 191.875 472.25 194.875C472.25 198.75 472.583 202.417 473.25 205.875C473.958 209.292 475.188 212.292 476.938 214.875C478.729 217.417 481.146 219.438 484.188 220.938C487.271 222.396 491.188 223.125 495.938 223.125C498.604 223.125 500.958 222.646 503 221.688C505.042 220.729 506.729 219.417 508.062 217.75C509.438 216.042 510.458 214.042 511.125 211.75C511.833 209.458 512.188 206.979 512.188 204.312C512.188 201.646 511.896 199.021 511.312 196.438C510.771 193.854 510.021 191.312 509.062 188.812C508.146 186.271 507.062 183.771 505.812 181.312C504.604 178.854 503.312 176.375 501.938 173.875C501.354 172.75 501.062 171.729 501.062 170.812C501.062 169.188 501.917 167.812 503.625 166.688L506.188 165C507.312 164.25 508.375 163.875 509.375 163.875C510.917 163.875 512.208 164.812 513.25 166.688C514.833 169.479 516.354 172.312 517.812 175.188C519.271 178.021 520.542 180.938 521.625 183.938C522.75 186.938 523.625 190.042 524.25 193.25C524.917 196.417 525.25 199.688 525.25 203.062C525.25 207.771 524.458 212.062 522.875 215.938C521.333 219.812 519.125 223.146 516.25 225.938C513.375 228.688 509.917 230.812 505.875 232.312C501.875 233.854 497.417 234.625 492.5 234.625C487.167 234.625 482.417 233.688 478.25 231.812C474.125 229.979 470.646 227.438 467.812 224.188C464.979 220.896 462.833 217.021 461.375 212.562C459.917 208.062 459.188 203.188 459.188 197.938C459.188 194.271 459.396 190.604 459.812 186.938C460.271 183.229 460.792 179.771 461.375 176.562ZM521.688 174.5C520.229 173.417 519.5 172.125 519.5 170.625C519.5 170.042 519.604 169.479 519.812 168.938C520.021 168.354 520.396 167.771 520.938 167.188L522.75 165.125C523.833 163.792 525.104 163.125 526.562 163.125C527.062 163.125 527.604 163.229 528.188 163.438C528.729 163.604 529.292 163.917 529.875 164.375C535.708 168.75 541.312 173.292 546.688 178C552.104 182.667 557.333 187.771 562.375 193.312C563.167 194.062 563.854 194.438 564.438 194.438C565.562 194.438 566.25 193.688 566.5 192.188L572 170.25C572.625 167.792 573.896 166.562 575.812 166.562C576.229 166.562 576.667 166.625 577.125 166.75C577.625 166.875 578.125 167.104 578.625 167.438L580.812 168.625C582.854 169.75 583.875 171.271 583.875 173.188C583.875 173.812 583.75 174.5 583.5 175.25C582.083 180.458 580.646 185.958 579.188 191.75C577.771 197.5 576.312 203.417 574.812 209.5C573.312 215.542 571.771 221.667 570.188 227.875C568.604 234.083 566.979 240.229 565.312 246.312C564.646 248.854 563.208 250.125 561 250.125C560.375 250.125 559.688 250 558.938 249.75L556.875 249.125C555.583 248.792 554.646 248.25 554.062 247.5C553.479 246.75 553.188 245.833 553.188 244.75C553.188 244.5 553.188 244.208 553.188 243.875C553.229 243.542 553.312 243.208 553.438 242.875C554.771 237.917 556.083 233 557.375 228.125C558.667 223.25 559.917 218.354 561.125 213.438C561.208 213.146 561.271 212.896 561.312 212.688C561.354 212.479 561.375 212.25 561.375 212C561.375 211.5 561.25 211.021 561 210.562C560.792 210.104 560.5 209.646 560.125 209.188C554.25 202.688 548.104 196.583 541.688 190.875C535.312 185.167 528.646 179.708 521.688 174.5ZM638.562 196.75C638.562 198.5 638.646 200.312 638.812 202.188C638.979 204.062 639.167 205.938 639.375 207.812C639.625 209.688 639.833 211.583 640 213.5C640.167 215.375 640.25 217.229 640.25 219.062C640.25 221.104 639.542 222.771 638.125 224.062C636.708 225.312 634.812 225.938 632.438 225.938C631.271 225.938 630.167 225.583 629.125 224.875C628.125 224.167 627.562 223.042 627.438 221.5C627.229 219.542 627.021 217.354 626.812 214.938C626.646 212.479 626.479 209.958 626.312 207.375C626.188 204.75 626.062 202.125 625.938 199.5C625.812 196.833 625.708 194.292 625.625 191.875C625.542 189.417 625.479 187.167 625.438 185.125C625.396 183.042 625.375 181.292 625.375 179.875C625.375 178.625 625.458 177.438 625.625 176.312C625.792 175.188 626.146 174.208 626.688 173.375C627.229 172.542 627.958 171.875 628.875 171.375C629.833 170.875 631.104 170.625 632.688 170.625C633.896 170.625 635.25 171.062 636.75 171.938C638.25 172.771 639.854 173.917 641.562 175.375C643.312 176.833 645.167 178.521 647.125 180.438C649.083 182.312 651.104 184.292 653.188 186.375C655.271 188.458 657.396 190.583 659.562 192.75C661.771 194.875 664 196.896 666.25 198.812C667.25 199.688 668.375 200.708 669.625 201.875C670.917 203.042 672.229 204.146 673.562 205.188C674.938 206.229 676.292 207.125 677.625 207.875C679 208.583 680.312 208.938 681.562 208.938C682.729 208.938 683.479 208.438 683.812 207.438C684.188 206.396 684.375 204.75 684.375 202.5C684.375 200.833 684.229 198.771 683.938 196.312C683.688 193.854 683.312 191.229 682.812 188.438C682.312 185.646 681.688 182.854 680.938 180.062C680.188 177.229 679.333 174.646 678.375 172.312C678.167 171.812 677.958 171.333 677.75 170.875C677.583 170.375 677.5 169.833 677.5 169.25C677.5 168.292 677.812 167.438 678.438 166.688C679.062 165.938 679.812 165.312 680.688 164.812C681.562 164.312 682.479 163.938 683.438 163.688C684.396 163.396 685.188 163.25 685.812 163.25C687.188 163.25 688.417 164 689.5 165.5C690.583 166.958 691.521 168.875 692.312 171.25C693.146 173.583 693.833 176.229 694.375 179.188C694.917 182.104 695.354 185.042 695.688 188C696.062 190.958 696.312 193.792 696.438 196.5C696.604 199.167 696.688 201.396 696.688 203.188C696.688 206.562 696.542 209.542 696.25 212.125C696 214.667 695.438 216.812 694.562 218.562C693.729 220.312 692.5 221.646 690.875 222.562C689.25 223.438 687.083 223.875 684.375 223.875C682.208 223.875 679.938 223.438 677.562 222.562C675.188 221.646 672.771 220.438 670.312 218.938C667.896 217.396 665.438 215.646 662.938 213.688C660.479 211.729 658.062 209.688 655.688 207.562C653.312 205.438 651 203.312 648.75 201.188C646.542 199.062 644.479 197.083 642.562 195.25C641.771 194.458 641.042 194.062 640.375 194.062C639.792 194.062 639.333 194.312 639 194.812C638.708 195.271 638.562 195.917 638.562 196.75ZM737.438 235.812C732.896 235.812 728.708 235.042 724.875 233.5C721.083 231.958 717.812 229.812 715.062 227.062C712.312 224.271 710.167 220.958 708.625 217.125C707.083 213.292 706.312 209.062 706.312 204.438C706.312 201.938 706.521 199.542 706.938 197.25C707.396 194.917 708 192.75 708.75 190.75C709.083 189.958 709.25 189.396 709.25 189.062C709.25 188.646 709.146 188.25 708.938 187.875C708.729 187.5 708.5 187.104 708.25 186.688C708 186.271 707.771 185.833 707.562 185.375C707.354 184.917 707.25 184.396 707.25 183.812C707.25 182.062 708.25 180.354 710.25 178.688C712.25 176.979 714.896 175.479 718.188 174.188C721.479 172.854 725.208 171.792 729.375 171C733.542 170.167 737.812 169.75 742.188 169.75C747.562 169.75 752.396 170.438 756.688 171.812C761.021 173.188 764.688 175.167 767.688 177.75C770.729 180.292 773.062 183.396 774.688 187.062C776.312 190.729 777.125 194.854 777.125 199.438C777.125 204.562 776.104 209.354 774.062 213.812C772.021 218.229 769.208 222.062 765.625 225.312C762.083 228.562 757.896 231.125 753.062 233C748.229 234.875 743.021 235.812 737.438 235.812ZM764.562 201.875C764.562 198.625 764 195.708 762.875 193.125C761.75 190.542 760.125 188.375 758 186.625C755.875 184.833 753.25 183.479 750.125 182.562C747.042 181.604 743.542 181.125 739.625 181.125C732.75 181.125 727.562 182.875 724.062 186.375C720.604 189.833 718.875 195 718.875 201.875C718.875 205.208 719.396 208.271 720.438 211.062C721.479 213.812 722.938 216.188 724.812 218.188C726.688 220.146 728.917 221.688 731.5 222.812C734.125 223.896 737 224.438 740.125 224.438C743.708 224.438 747 223.896 750 222.812C753 221.688 755.562 220.125 757.688 218.125C759.854 216.125 761.542 213.75 762.75 211C763.958 208.208 764.562 205.167 764.562 201.875ZM781.938 172.562C781.938 169.896 783.375 168.271 786.25 167.688L788.938 167.188C789.229 167.104 789.479 167.062 789.688 167.062C789.938 167.062 790.167 167.062 790.375 167.062C792.917 167.062 794.417 168.521 794.875 171.438C795.042 172.854 795.25 174.646 795.5 176.812C795.75 178.979 796.062 181.354 796.438 183.938C796.854 186.521 797.312 189.229 797.812 192.062C798.354 194.896 798.958 197.688 799.625 200.438C800.292 203.146 801.042 205.729 801.875 208.188C802.708 210.646 803.646 212.812 804.688 214.688C805.729 216.562 806.854 218.062 808.062 219.188C809.312 220.271 810.667 220.812 812.125 220.812C813.167 220.812 814.208 220.5 815.25 219.875C816.333 219.25 817.396 218.438 818.438 217.438C819.479 216.396 820.479 215.229 821.438 213.938C822.396 212.646 823.271 211.333 824.062 210C824.854 208.667 825.562 207.396 826.188 206.188C826.854 204.938 827.375 203.854 827.75 202.938C828 202.146 828.125 201.417 828.125 200.75C828.125 200.417 828.104 200.083 828.062 199.75C828.021 199.417 827.958 199.062 827.875 198.688C827.083 196.104 826.479 193.521 826.062 190.938C825.646 188.354 825.438 185.562 825.438 182.562C825.438 180.812 825.583 179.083 825.875 177.375C826.167 175.667 826.667 174.104 827.375 172.688C827.75 171.938 828.312 171.292 829.062 170.75C829.812 170.208 830.625 169.771 831.5 169.438C832.417 169.104 833.354 168.875 834.312 168.75C835.312 168.583 836.229 168.5 837.062 168.5C837.979 168.5 838.812 168.688 839.562 169.062C840.312 169.396 840.979 169.979 841.562 170.812C842.729 172.396 843.542 174.208 844 176.25C844.5 178.292 844.75 180.354 844.75 182.438C844.75 184.688 844.542 187 844.125 189.375C843.708 191.708 843.208 194.042 842.625 196.375C842.333 196.958 842.188 197.604 842.188 198.312C842.188 198.646 842.229 199 842.312 199.375C842.438 199.75 842.583 200.167 842.75 200.625C843.5 202.583 844.375 204.583 845.375 206.625C846.417 208.625 847.604 210.438 848.938 212.062C850.271 213.688 851.771 215.021 853.438 216.062C855.104 217.104 857 217.625 859.125 217.625C861 217.625 862.688 216.833 864.188 215.25C865.688 213.667 866.938 211.667 867.938 209.25C868.979 206.833 869.771 204.208 870.312 201.375C870.854 198.5 871.125 195.771 871.125 193.188C871.125 190.438 871.021 187.729 870.812 185.062C870.604 182.396 870.333 179.938 870 177.688C869.917 177.479 869.875 177.271 869.875 177.062C869.875 176.854 869.875 176.646 869.875 176.438C869.875 174.062 871.146 172.438 873.688 171.562L876.5 170.625C877.292 170.375 878.021 170.25 878.688 170.25C880.896 170.25 882.229 171.625 882.688 174.375C883.146 176.958 883.5 179.542 883.75 182.125C884.042 184.708 884.188 187.292 884.188 189.875C884.188 195.375 883.542 200.542 882.25 205.375C880.958 210.208 879.146 214.438 876.812 218.062C874.521 221.646 871.792 224.479 868.625 226.562C865.458 228.646 861.979 229.688 858.188 229.688C854.479 229.688 850.75 228.583 847 226.375C843.25 224.125 839.854 220.562 836.812 215.688C836.229 214.604 835.562 214.062 834.812 214.062C834.104 214.062 833.458 214.604 832.875 215.688C831.417 218.271 829.812 220.667 828.062 222.875C826.312 225.042 824.458 226.917 822.5 228.5C820.542 230.083 818.5 231.312 816.375 232.188C814.25 233.062 812.104 233.5 809.938 233.5C806.438 233.5 803.354 232.542 800.688 230.625C798.062 228.75 795.771 226.229 793.812 223.062C791.896 219.896 790.271 216.271 788.938 212.188C787.604 208.062 786.479 203.792 785.562 199.375C784.688 194.917 783.958 190.458 783.375 186C782.833 181.542 782.354 177.375 781.938 173.5V172.562Z" fill="black"/>
</g>
<defs>
<clipPath id="clip0_701_64">
<rect width="1392" height="409" fill="white"/>
</clipPath>
</defs>
</svg>
