<svg width="1683" height="326" viewBox="0 0 1683 326" fill="none" xmlns="http://www.w3.org/2000/svg">
<mask id="path-1-outside-1_10_57" maskUnits="userSpaceOnUse" x="91" y="91" width="1476" height="216" fill="black">
<rect fill="white" x="91" y="91" width="1476" height="216"/>
<path d="M312.2 282.8H240C229.8 282.8 219.2 275.2 219.2 267V147.6C219.2 147.4 219 147.2 218.8 147.2H209C208.8 147.2 208.6 147.4 208.6 147.6V243H167V147.6C167 147.4 166.8 147.2 166.6 147.2H157.2C157 147.2 156.8 147.4 156.8 147.6V243H115.2V115.2H156.8V123.4C161.8 118 171.8 115.2 183.8 115.2C196 115.2 202 118.4 206.6 124.8C212.8 117 221.8 115.2 234.8 115.2C249.2 115.2 260.4 122.6 260.4 133V250.6C260.4 250.8 260.6 251 260.8 251H312.2V282.8ZM312.2 243H270.6V115.2H312.2V243ZM394.822 243H343.022C329.222 243 322.222 237.8 322.222 227.2V203.2H363.822V210.8C363.822 211 364.022 211.2 364.222 211.2H373.622C373.822 211.2 374.022 211 374.022 210.8V195.6C374.022 195.4 373.822 195.2 373.622 195.2H343.022C329.222 195.2 322.222 189.8 322.222 179V131.4C322.222 120.6 329.222 115.2 343.022 115.2H394.822C408.622 115.2 415.622 120.6 415.622 131.4V155H374.022V147.6C374.022 147.4 373.822 147.2 373.622 147.2H364.222C364.022 147.2 363.822 147.4 363.822 147.6V162.8C363.822 163 364.022 163.2 364.222 163.2H394.822C408.622 163.2 415.622 168.4 415.622 179V227.2C415.622 237.8 408.622 243 394.822 243ZM497.752 243H445.952C432.152 243 425.152 237.8 425.152 227.2V203.2H466.752V210.8C466.752 211 466.952 211.2 467.152 211.2H476.552C476.752 211.2 476.952 211 476.952 210.8V195.6C476.952 195.4 476.752 195.2 476.552 195.2H445.952C432.152 195.2 425.152 189.8 425.152 179V131.4C425.152 120.6 432.152 115.2 445.952 115.2H497.752C511.552 115.2 518.552 120.6 518.552 131.4V155H476.952V147.6C476.952 147.4 476.752 147.2 476.552 147.2H467.152C466.952 147.2 466.752 147.4 466.752 147.6V162.8C466.752 163 466.952 163.2 467.152 163.2H497.752C511.552 163.2 518.552 168.4 518.552 179V227.2C518.552 237.8 511.552 243 497.752 243ZM570.081 243H528.481V115.2H570.081V243ZM631.834 210.8V147.6C631.834 147.4 631.634 147.2 631.434 147.2H622.034C621.834 147.2 621.634 147.4 621.634 147.6V210.8C621.634 211 621.834 211.2 622.034 211.2H631.434C631.634 211.2 631.834 211 631.834 210.8ZM652.634 243H600.834C587.034 243 580.034 237.8 580.034 227.2V131.4C580.034 120.6 587.034 115.2 600.834 115.2H652.634C666.434 115.2 673.434 120.6 673.434 131.4V227.2C673.434 237.8 666.434 243 652.634 243ZM776.764 243H735.164V147.6C735.164 147.4 734.964 147.2 734.764 147.2H725.364C725.164 147.2 724.964 147.4 724.964 147.6V243H683.364V115.2H724.964V123.4C731.964 118 742.364 115.2 755.964 115.2C769.764 115.2 776.764 120.6 776.764 131.4V243ZM903.611 243H851.811C838.011 243 831.011 237.8 831.011 227.2V203.2H872.611V210.8C872.611 211 872.811 211.2 873.011 211.2H882.411C882.611 211.2 882.811 211 882.811 210.8V195.6C882.811 195.4 882.611 195.2 882.411 195.2H851.811C838.011 195.2 831.011 189.8 831.011 179V131.4C831.011 120.6 838.011 115.2 851.811 115.2H903.611C917.411 115.2 924.411 120.6 924.411 131.4V155H882.811V147.6C882.811 147.4 882.611 147.2 882.411 147.2H873.011C872.811 147.2 872.611 147.4 872.611 147.6V162.8C872.611 163 872.811 163.2 873.011 163.2H903.611C917.411 163.2 924.411 168.4 924.411 179V227.2C924.411 237.8 917.411 243 903.611 243ZM1006.74 243H954.941C941.141 243 934.141 237.8 934.141 227.2V115.2H975.741V210.8C975.741 211 975.941 211.2 976.141 211.2H985.541C985.741 211.2 985.941 211 985.941 210.8V115.2H1027.54V227.2C1027.54 237.8 1020.54 243 1006.74 243ZM1109.86 243H1058.06C1044.26 243 1037.26 237.8 1037.26 227.2V131.4C1037.26 120.6 1044.26 115.2 1058.06 115.2H1109.86C1123.66 115.2 1130.66 120.6 1130.66 131.4V169.2H1089.06V147.6C1089.06 147.4 1088.86 147.2 1088.66 147.2H1079.26C1079.06 147.2 1078.86 147.4 1078.86 147.6V210.8C1078.86 211 1079.06 211.2 1079.26 211.2H1088.66C1088.86 211.2 1089.06 211 1089.06 210.8V181H1130.66V227.2C1130.66 237.8 1123.66 243 1109.86 243ZM1212.79 243H1160.99C1147.19 243 1140.19 237.8 1140.19 227.2V131.4C1140.19 120.6 1147.19 115.2 1160.99 115.2H1212.79C1226.59 115.2 1233.59 120.6 1233.59 131.4V169.2H1191.99V147.6C1191.99 147.4 1191.79 147.2 1191.59 147.2H1182.19C1181.99 147.2 1181.79 147.4 1181.79 147.6V210.8C1181.79 211 1181.99 211.2 1182.19 211.2H1191.59C1191.79 211.2 1191.99 211 1191.99 210.8V181H1233.59V227.2C1233.59 237.8 1226.59 243 1212.79 243ZM1294.92 165.4V147.6C1294.92 147.4 1294.72 147.2 1294.52 147.2H1285.12C1284.92 147.2 1284.72 147.4 1284.72 147.6V165.4H1294.92ZM1315.72 243H1263.92C1250.12 243 1243.12 237.8 1243.12 227.2V131.4C1243.12 120.6 1250.12 115.2 1263.92 115.2H1315.72C1329.52 115.2 1336.52 120.6 1336.52 131.4V195.2H1284.72V210.8C1284.72 211 1284.92 211.2 1285.12 211.2H1294.52C1294.72 211.2 1294.92 211 1294.92 210.8V203.2H1336.52V227.2C1336.52 237.8 1329.52 243 1315.72 243ZM1418.65 243H1366.85C1353.05 243 1346.05 237.8 1346.05 227.2V203.2H1387.65V210.8C1387.65 211 1387.85 211.2 1388.05 211.2H1397.45C1397.65 211.2 1397.85 211 1397.85 210.8V195.6C1397.85 195.4 1397.65 195.2 1397.45 195.2H1366.85C1353.05 195.2 1346.05 189.8 1346.05 179V131.4C1346.05 120.6 1353.05 115.2 1366.85 115.2H1418.65C1432.45 115.2 1439.45 120.6 1439.45 131.4V155H1397.85V147.6C1397.85 147.4 1397.65 147.2 1397.45 147.2H1388.05C1387.85 147.2 1387.65 147.4 1387.65 147.6V162.8C1387.65 163 1387.85 163.2 1388.05 163.2H1418.65C1432.45 163.2 1439.45 168.4 1439.45 179V227.2C1439.45 237.8 1432.45 243 1418.65 243ZM1521.58 243H1469.78C1455.98 243 1448.98 237.8 1448.98 227.2V203.2H1490.58V210.8C1490.58 211 1490.78 211.2 1490.98 211.2H1500.38C1500.58 211.2 1500.78 211 1500.78 210.8V195.6C1500.78 195.4 1500.58 195.2 1500.38 195.2H1469.78C1455.98 195.2 1448.98 189.8 1448.98 179V131.4C1448.98 120.6 1455.98 115.2 1469.78 115.2H1521.58C1535.38 115.2 1542.38 120.6 1542.38 131.4V155H1500.78V147.6C1500.78 147.4 1500.58 147.2 1500.38 147.2H1490.98C1490.78 147.2 1490.58 147.4 1490.58 147.6V162.8C1490.58 163 1490.78 163.2 1490.98 163.2H1521.58C1535.38 163.2 1542.38 168.4 1542.38 179V227.2C1542.38 237.8 1535.38 243 1521.58 243Z"/>
</mask>
<path d="M312.2 282.8H240C229.8 282.8 219.2 275.2 219.2 267V147.6C219.2 147.4 219 147.2 218.8 147.2H209C208.8 147.2 208.6 147.4 208.6 147.6V243H167V147.6C167 147.4 166.8 147.2 166.6 147.2H157.2C157 147.2 156.8 147.4 156.8 147.6V243H115.2V115.2H156.8V123.4C161.8 118 171.8 115.2 183.8 115.2C196 115.2 202 118.4 206.6 124.8C212.8 117 221.8 115.2 234.8 115.2C249.2 115.2 260.4 122.6 260.4 133V250.6C260.4 250.8 260.6 251 260.8 251H312.2V282.8ZM312.2 243H270.6V115.2H312.2V243ZM394.822 243H343.022C329.222 243 322.222 237.8 322.222 227.2V203.2H363.822V210.8C363.822 211 364.022 211.2 364.222 211.2H373.622C373.822 211.2 374.022 211 374.022 210.8V195.6C374.022 195.4 373.822 195.2 373.622 195.2H343.022C329.222 195.2 322.222 189.8 322.222 179V131.4C322.222 120.6 329.222 115.2 343.022 115.2H394.822C408.622 115.2 415.622 120.6 415.622 131.4V155H374.022V147.6C374.022 147.4 373.822 147.2 373.622 147.2H364.222C364.022 147.2 363.822 147.4 363.822 147.6V162.8C363.822 163 364.022 163.2 364.222 163.2H394.822C408.622 163.2 415.622 168.4 415.622 179V227.2C415.622 237.8 408.622 243 394.822 243ZM497.752 243H445.952C432.152 243 425.152 237.8 425.152 227.2V203.2H466.752V210.8C466.752 211 466.952 211.2 467.152 211.2H476.552C476.752 211.2 476.952 211 476.952 210.8V195.6C476.952 195.4 476.752 195.2 476.552 195.2H445.952C432.152 195.2 425.152 189.8 425.152 179V131.4C425.152 120.6 432.152 115.2 445.952 115.2H497.752C511.552 115.2 518.552 120.6 518.552 131.4V155H476.952V147.6C476.952 147.4 476.752 147.2 476.552 147.2H467.152C466.952 147.2 466.752 147.4 466.752 147.6V162.8C466.752 163 466.952 163.2 467.152 163.2H497.752C511.552 163.2 518.552 168.4 518.552 179V227.2C518.552 237.8 511.552 243 497.752 243ZM570.081 243H528.481V115.2H570.081V243ZM631.834 210.8V147.6C631.834 147.4 631.634 147.2 631.434 147.2H622.034C621.834 147.2 621.634 147.4 621.634 147.6V210.8C621.634 211 621.834 211.2 622.034 211.2H631.434C631.634 211.2 631.834 211 631.834 210.8ZM652.634 243H600.834C587.034 243 580.034 237.8 580.034 227.2V131.4C580.034 120.6 587.034 115.2 600.834 115.2H652.634C666.434 115.2 673.434 120.6 673.434 131.4V227.2C673.434 237.8 666.434 243 652.634 243ZM776.764 243H735.164V147.6C735.164 147.4 734.964 147.2 734.764 147.2H725.364C725.164 147.2 724.964 147.4 724.964 147.6V243H683.364V115.2H724.964V123.4C731.964 118 742.364 115.2 755.964 115.2C769.764 115.2 776.764 120.6 776.764 131.4V243ZM903.611 243H851.811C838.011 243 831.011 237.8 831.011 227.2V203.2H872.611V210.8C872.611 211 872.811 211.2 873.011 211.2H882.411C882.611 211.2 882.811 211 882.811 210.8V195.6C882.811 195.4 882.611 195.2 882.411 195.2H851.811C838.011 195.2 831.011 189.8 831.011 179V131.4C831.011 120.6 838.011 115.2 851.811 115.2H903.611C917.411 115.2 924.411 120.6 924.411 131.4V155H882.811V147.6C882.811 147.4 882.611 147.2 882.411 147.2H873.011C872.811 147.2 872.611 147.4 872.611 147.6V162.8C872.611 163 872.811 163.2 873.011 163.2H903.611C917.411 163.2 924.411 168.4 924.411 179V227.2C924.411 237.8 917.411 243 903.611 243ZM1006.74 243H954.941C941.141 243 934.141 237.8 934.141 227.2V115.2H975.741V210.8C975.741 211 975.941 211.2 976.141 211.2H985.541C985.741 211.2 985.941 211 985.941 210.8V115.2H1027.54V227.2C1027.54 237.8 1020.54 243 1006.74 243ZM1109.86 243H1058.06C1044.26 243 1037.26 237.8 1037.26 227.2V131.4C1037.26 120.6 1044.26 115.2 1058.06 115.2H1109.86C1123.66 115.2 1130.66 120.6 1130.66 131.4V169.2H1089.06V147.6C1089.06 147.4 1088.86 147.2 1088.66 147.2H1079.26C1079.06 147.2 1078.86 147.4 1078.86 147.6V210.8C1078.86 211 1079.06 211.2 1079.26 211.2H1088.66C1088.86 211.2 1089.06 211 1089.06 210.8V181H1130.66V227.2C1130.66 237.8 1123.66 243 1109.86 243ZM1212.79 243H1160.99C1147.19 243 1140.19 237.8 1140.19 227.2V131.4C1140.19 120.6 1147.19 115.2 1160.99 115.2H1212.79C1226.59 115.2 1233.59 120.6 1233.59 131.4V169.2H1191.99V147.6C1191.99 147.4 1191.79 147.2 1191.59 147.2H1182.19C1181.99 147.2 1181.79 147.4 1181.79 147.6V210.8C1181.79 211 1181.99 211.2 1182.19 211.2H1191.59C1191.79 211.2 1191.99 211 1191.99 210.8V181H1233.59V227.2C1233.59 237.8 1226.59 243 1212.79 243ZM1294.92 165.4V147.6C1294.92 147.4 1294.72 147.2 1294.52 147.2H1285.12C1284.92 147.2 1284.72 147.4 1284.72 147.6V165.4H1294.92ZM1315.72 243H1263.92C1250.12 243 1243.12 237.8 1243.12 227.2V131.4C1243.12 120.6 1250.12 115.2 1263.92 115.2H1315.72C1329.52 115.2 1336.52 120.6 1336.52 131.4V195.2H1284.72V210.8C1284.72 211 1284.92 211.2 1285.12 211.2H1294.52C1294.72 211.2 1294.92 211 1294.92 210.8V203.2H1336.52V227.2C1336.52 237.8 1329.52 243 1315.72 243ZM1418.65 243H1366.85C1353.05 243 1346.05 237.8 1346.05 227.2V203.2H1387.65V210.8C1387.65 211 1387.85 211.2 1388.05 211.2H1397.45C1397.65 211.2 1397.85 211 1397.85 210.8V195.6C1397.85 195.4 1397.65 195.2 1397.45 195.2H1366.85C1353.05 195.2 1346.05 189.8 1346.05 179V131.4C1346.05 120.6 1353.05 115.2 1366.85 115.2H1418.65C1432.45 115.2 1439.45 120.6 1439.45 131.4V155H1397.85V147.6C1397.85 147.4 1397.65 147.2 1397.45 147.2H1388.05C1387.85 147.2 1387.65 147.4 1387.65 147.6V162.8C1387.65 163 1387.85 163.2 1388.05 163.2H1418.65C1432.45 163.2 1439.45 168.4 1439.45 179V227.2C1439.45 237.8 1432.45 243 1418.65 243ZM1521.58 243H1469.78C1455.98 243 1448.98 237.8 1448.98 227.2V203.2H1490.58V210.8C1490.58 211 1490.78 211.2 1490.98 211.2H1500.38C1500.58 211.2 1500.78 211 1500.78 210.8V195.6C1500.78 195.4 1500.58 195.2 1500.38 195.2H1469.78C1455.98 195.2 1448.98 189.8 1448.98 179V131.4C1448.98 120.6 1455.98 115.2 1469.78 115.2H1521.58C1535.38 115.2 1542.38 120.6 1542.38 131.4V155H1500.78V147.6C1500.78 147.4 1500.58 147.2 1500.38 147.2H1490.98C1490.78 147.2 1490.58 147.4 1490.58 147.6V162.8C1490.58 163 1490.78 163.2 1490.98 163.2H1521.58C1535.38 163.2 1542.38 168.4 1542.38 179V227.2C1542.38 237.8 1535.38 243 1521.58 243Z" fill="#FFC700"/>
<path d="M312.2 282.8V306.8H336.2V282.8H312.2ZM208.6 243V267H232.6V243H208.6ZM167 243H143V267H167V243ZM156.8 243V267H180.8V243H156.8ZM115.2 243H91.2V267H115.2V243ZM115.2 115.2V91.2H91.2V115.2H115.2ZM156.8 115.2H180.8V91.2H156.8V115.2ZM156.8 123.4H132.8V184.645L174.41 139.706L156.8 123.4ZM206.6 124.8L187.112 138.807L205.637 164.582L225.388 139.734L206.6 124.8ZM312.2 251H336.2V227H312.2V251ZM312.2 243V267H336.2V243H312.2ZM270.6 243H246.6V267H270.6V243ZM270.6 115.2V91.2H246.6V115.2H270.6ZM312.2 115.2H336.2V91.2H312.2V115.2ZM312.2 258.8H240V306.8H312.2V258.8ZM240 258.8C240.387 258.8 240.463 258.862 240.299 258.805C240.133 258.748 240.051 258.682 240.116 258.731C240.145 258.753 240.734 259.182 241.431 260.31C242.151 261.476 243.2 263.777 243.2 267H195.2C195.2 281.564 204.19 291.821 211.434 297.219C219.142 302.964 229.3 306.8 240 306.8V258.8ZM243.2 267V147.6H195.2V267H243.2ZM243.2 147.6C243.2 139.695 239.489 133.798 236.046 130.355C232.603 126.911 226.706 123.2 218.8 123.2V171.2C211.094 171.2 205.397 167.589 202.104 164.295C198.811 161.002 195.2 155.305 195.2 147.6H243.2ZM218.8 123.2H209V171.2H218.8V123.2ZM209 123.2C201.094 123.2 195.198 126.911 191.754 130.355C188.311 133.798 184.6 139.694 184.6 147.6H232.6C232.6 155.305 228.989 161.002 225.696 164.295C222.402 167.589 216.706 171.2 209 171.2V123.2ZM184.6 147.6V243H232.6V147.6H184.6ZM208.6 219H167V267H208.6V219ZM191 243V147.6H143V243H191ZM191 147.6C191 139.694 187.289 133.798 183.846 130.354C180.402 126.911 174.506 123.2 166.6 123.2V171.2C158.894 171.2 153.198 167.589 149.904 164.296C146.611 161.002 143 155.306 143 147.6H191ZM166.6 123.2H157.2V171.2H166.6V123.2ZM157.2 123.2C149.294 123.2 143.398 126.911 139.954 130.354C136.511 133.798 132.8 139.694 132.8 147.6H180.8C180.8 155.306 177.189 161.002 173.896 164.296C170.602 167.589 164.906 171.2 157.2 171.2V123.2ZM132.8 147.6V243H180.8V147.6H132.8ZM156.8 219H115.2V267H156.8V219ZM139.2 243V115.2H91.2V243H139.2ZM115.2 139.2H156.8V91.2H115.2V139.2ZM132.8 115.2V123.4H180.8V115.2H132.8ZM174.41 139.706C173.023 141.204 172.404 140.907 174.514 140.28C176.427 139.711 179.539 139.2 183.8 139.2V91.2C170 91.2 151.232 94.0889 139.19 107.094L174.41 139.706ZM183.8 139.2C187.993 139.2 188.866 139.782 188.303 139.531C187.962 139.38 187.549 139.127 187.194 138.822C186.876 138.55 186.855 138.45 187.112 138.807L226.088 110.793C221.823 104.859 216.032 99.3284 207.797 95.6685C200.034 92.2179 191.807 91.2 183.8 91.2V139.2ZM225.388 139.734C225.415 139.7 225.276 139.867 225.009 140.044C224.766 140.204 224.74 140.157 225.182 140.022C226.39 139.651 229.047 139.2 234.8 139.2V91.2C220.722 91.2 201.388 92.7868 187.812 109.866L225.388 139.734ZM234.8 139.2C236.367 139.2 237.592 139.404 238.437 139.639C239.303 139.88 239.582 140.1 239.44 140.002C239.294 139.902 238.531 139.34 237.766 138.047C236.944 136.655 236.4 134.87 236.4 133H284.4C284.4 118.198 276.17 106.978 266.56 100.398C257.212 93.9963 245.836 91.2 234.8 91.2V139.2ZM236.4 133V250.6H284.4V133H236.4ZM236.4 250.6C236.4 258.505 240.111 264.402 243.554 267.845C246.998 271.289 252.894 275 260.8 275V227C268.506 227 274.202 230.611 277.496 233.905C280.789 237.198 284.4 242.895 284.4 250.6H236.4ZM260.8 275H312.2V227H260.8V275ZM288.2 251V282.8H336.2V251H288.2ZM312.2 219H270.6V267H312.2V219ZM294.6 243V115.2H246.6V243H294.6ZM270.6 139.2H312.2V91.2H270.6V139.2ZM288.2 115.2V243H336.2V115.2H288.2ZM322.222 203.2V179.2H298.222V203.2H322.222ZM363.822 203.2H387.822V179.2H363.822V203.2ZM415.622 155V179H439.622V155H415.622ZM374.022 155H350.022V179H374.022V155ZM394.822 219H343.022V267H394.822V219ZM343.022 219C341 219 340.022 218.802 339.804 218.747C339.614 218.699 340.558 218.901 341.913 219.925C343.402 221.049 344.695 222.651 345.493 224.461C346.228 226.129 346.222 227.237 346.222 227.2H298.222C298.222 238.275 302.23 250.104 312.981 258.225C322.457 265.384 333.798 267 343.022 267V219ZM346.222 227.2V203.2H298.222V227.2H346.222ZM322.222 227.2H363.822V179.2H322.222V227.2ZM339.822 203.2V210.8H387.822V203.2H339.822ZM339.822 210.8C339.822 218.706 343.533 224.602 346.976 228.046C350.42 231.489 356.316 235.2 364.222 235.2V187.2C371.927 187.2 377.624 190.811 380.917 194.104C384.211 197.398 387.822 203.094 387.822 210.8H339.822ZM364.222 235.2H373.622V187.2H364.222V235.2ZM373.622 235.2C381.527 235.2 387.424 231.489 390.867 228.046C394.311 224.602 398.022 218.706 398.022 210.8H350.022C350.022 203.094 353.633 197.398 356.926 194.104C360.22 190.811 365.916 187.2 373.622 187.2V235.2ZM398.022 210.8V195.6H350.022V210.8H398.022ZM398.022 195.6C398.022 187.694 394.311 181.798 390.867 178.354C387.424 174.911 381.527 171.2 373.622 171.2V219.2C365.916 219.2 360.22 215.589 356.926 212.296C353.633 209.002 350.022 203.306 350.022 195.6H398.022ZM373.622 171.2H343.022V219.2H373.622V171.2ZM343.022 171.2C341.06 171.2 340.144 171 339.988 170.959C339.867 170.928 340.832 171.157 342.172 172.198C343.632 173.333 344.844 174.9 345.575 176.596C346.245 178.154 346.222 179.139 346.222 179H298.222C298.222 189.995 302.097 201.847 312.722 210.102C322.211 217.474 333.641 219.2 343.022 219.2V171.2ZM346.222 179V131.4H298.222V179H346.222ZM346.222 131.4C346.222 131.261 346.245 132.246 345.575 133.803C344.844 135.5 343.632 137.067 342.172 138.202C340.832 139.243 339.867 139.472 339.988 139.441C340.144 139.4 341.06 139.2 343.022 139.2V91.2C333.641 91.2 322.211 92.9255 312.722 100.298C302.097 108.553 298.222 120.405 298.222 131.4H346.222ZM343.022 139.2H394.822V91.2H343.022V139.2ZM394.822 139.2C396.784 139.2 397.699 139.4 397.856 139.441C397.977 139.472 397.012 139.243 395.672 138.202C394.211 137.067 392.999 135.5 392.269 133.803C391.598 132.246 391.622 131.261 391.622 131.4H439.622C439.622 120.405 435.746 108.553 425.122 100.298C415.633 92.9255 404.203 91.2 394.822 91.2V139.2ZM391.622 131.4V155H439.622V131.4H391.622ZM415.622 131H374.022V179H415.622V131ZM398.022 155V147.6H350.022V155H398.022ZM398.022 147.6C398.022 139.694 394.311 133.798 390.867 130.354C387.424 126.911 381.528 123.2 373.622 123.2V171.2C365.916 171.2 360.219 167.589 356.926 164.296C353.633 161.002 350.022 155.306 350.022 147.6H398.022ZM373.622 123.2H364.222V171.2H373.622V123.2ZM364.222 123.2C356.316 123.2 350.42 126.911 346.976 130.354C343.533 133.798 339.822 139.694 339.822 147.6H387.822C387.822 155.306 384.211 161.002 380.917 164.296C377.624 167.589 371.928 171.2 364.222 171.2V123.2ZM339.822 147.6V162.8H387.822V147.6H339.822ZM339.822 162.8C339.822 170.706 343.533 176.602 346.976 180.046C350.42 183.489 356.316 187.2 364.222 187.2V139.2C371.927 139.2 377.624 142.811 380.917 146.104C384.211 149.398 387.822 155.094 387.822 162.8H339.822ZM364.222 187.2H394.822V139.2H364.222V187.2ZM394.822 187.2C396.843 187.2 397.822 187.398 398.04 187.453C398.23 187.501 397.286 187.299 395.931 186.275C394.442 185.151 393.149 183.549 392.351 181.739C391.616 180.071 391.622 178.963 391.622 179H439.622C439.622 167.925 435.614 156.096 424.863 147.975C415.387 140.816 404.045 139.2 394.822 139.2V187.2ZM391.622 179V227.2H439.622V179H391.622ZM391.622 227.2C391.622 227.237 391.616 226.129 392.351 224.461C393.149 222.651 394.442 221.049 395.931 219.925C397.286 218.901 398.23 218.699 398.04 218.747C397.822 218.802 396.843 219 394.822 219V267C404.045 267 415.387 265.384 424.863 258.225C435.614 250.104 439.622 238.275 439.622 227.2H391.622ZM425.152 203.2V179.2H401.152V203.2H425.152ZM466.752 203.2H490.752V179.2H466.752V203.2ZM518.552 155V179H542.552V155H518.552ZM476.952 155H452.952V179H476.952V155ZM497.752 219H445.952V267H497.752V219ZM445.952 219C443.93 219 442.951 218.802 442.733 218.747C442.543 218.699 443.488 218.901 444.843 219.925C446.331 221.049 447.624 222.651 448.422 224.461C449.158 226.129 449.152 227.237 449.152 227.2H401.152C401.152 238.275 405.16 250.104 415.911 258.225C425.387 265.384 436.728 267 445.952 267V219ZM449.152 227.2V203.2H401.152V227.2H449.152ZM425.152 227.2H466.752V179.2H425.152V227.2ZM442.752 203.2V210.8H490.752V203.2H442.752ZM442.752 210.8C442.752 218.706 446.463 224.602 449.906 228.046C453.349 231.489 459.246 235.2 467.152 235.2V187.2C474.857 187.2 480.554 190.811 483.847 194.104C487.14 197.398 490.752 203.094 490.752 210.8H442.752ZM467.152 235.2H476.552V187.2H467.152V235.2ZM476.552 235.2C484.457 235.2 490.354 231.489 493.797 228.046C497.24 224.602 500.952 218.706 500.952 210.8H452.952C452.952 203.094 456.563 197.398 459.856 194.104C463.149 190.811 468.846 187.2 476.552 187.2V235.2ZM500.952 210.8V195.6H452.952V210.8H500.952ZM500.952 195.6C500.952 187.694 497.24 181.798 493.797 178.354C490.354 174.911 484.457 171.2 476.552 171.2V219.2C468.846 219.2 463.149 215.589 459.856 212.296C456.563 209.002 452.952 203.306 452.952 195.6H500.952ZM476.552 171.2H445.952V219.2H476.552V171.2ZM445.952 171.2C443.99 171.2 443.074 171 442.917 170.959C442.796 170.928 443.761 171.157 445.102 172.198C446.562 173.333 447.774 174.9 448.505 176.596C449.175 178.154 449.152 179.139 449.152 179H401.152C401.152 189.995 405.027 201.847 415.651 210.102C425.14 217.474 436.571 219.2 445.952 219.2V171.2ZM449.152 179V131.4H401.152V179H449.152ZM449.152 131.4C449.152 131.261 449.175 132.246 448.505 133.803C447.774 135.5 446.562 137.067 445.102 138.202C443.761 139.243 442.796 139.472 442.917 139.441C443.074 139.4 443.99 139.2 445.952 139.2V91.2C436.571 91.2 425.14 92.9255 415.651 100.298C405.027 108.553 401.152 120.405 401.152 131.4H449.152ZM445.952 139.2H497.752V91.2H445.952V139.2ZM497.752 139.2C499.713 139.2 500.629 139.4 500.786 139.441C500.907 139.472 499.942 139.243 498.601 138.202C497.141 137.067 495.929 135.5 495.199 133.803C494.528 132.246 494.552 131.261 494.552 131.4H542.552C542.552 120.405 538.676 108.553 528.052 100.298C518.563 92.9255 507.132 91.2 497.752 91.2V139.2ZM494.552 131.4V155H542.552V131.4H494.552ZM518.552 131H476.952V179H518.552V131ZM500.952 155V147.6H452.952V155H500.952ZM500.952 147.6C500.952 139.694 497.24 133.798 493.797 130.354C490.354 126.911 484.457 123.2 476.552 123.2V171.2C468.846 171.2 463.149 167.589 459.856 164.296C456.563 161.002 452.952 155.306 452.952 147.6H500.952ZM476.552 123.2H467.152V171.2H476.552V123.2ZM467.152 123.2C459.246 123.2 453.349 126.911 449.906 130.354C446.463 133.798 442.752 139.694 442.752 147.6H490.752C490.752 155.306 487.14 161.002 483.847 164.296C480.554 167.589 474.857 171.2 467.152 171.2V123.2ZM442.752 147.6V162.8H490.752V147.6H442.752ZM442.752 162.8C442.752 170.706 446.463 176.602 449.906 180.046C453.349 183.489 459.246 187.2 467.152 187.2V139.2C474.857 139.2 480.554 142.811 483.847 146.104C487.14 149.398 490.752 155.094 490.752 162.8H442.752ZM467.152 187.2H497.752V139.2H467.152V187.2ZM497.752 187.2C499.773 187.2 500.752 187.398 500.97 187.453C501.16 187.501 500.215 187.299 498.861 186.275C497.372 185.151 496.079 183.549 495.281 181.739C494.545 180.071 494.552 178.963 494.552 179H542.552C542.552 167.925 538.543 156.096 527.793 147.975C518.316 140.816 506.975 139.2 497.752 139.2V187.2ZM494.552 179V227.2H542.552V179H494.552ZM494.552 227.2C494.552 227.237 494.545 226.129 495.281 224.461C496.079 222.651 497.372 221.049 498.861 219.925C500.215 218.901 501.16 218.699 500.97 218.747C500.752 218.802 499.773 219 497.752 219V267C506.975 267 518.316 265.384 527.793 258.225C538.543 250.104 542.552 238.275 542.552 227.2H494.552ZM570.081 243V267H594.081V243H570.081ZM528.481 243H504.481V267H528.481V243ZM528.481 115.2V91.2H504.481V115.2H528.481ZM570.081 115.2H594.081V91.2H570.081V115.2ZM570.081 219H528.481V267H570.081V219ZM552.481 243V115.2H504.481V243H552.481ZM528.481 139.2H570.081V91.2H528.481V139.2ZM546.081 115.2V243H594.081V115.2H546.081ZM655.834 210.8V147.6H607.834V210.8H655.834ZM655.834 147.6C655.834 139.694 652.123 133.798 648.68 130.354C645.237 126.911 639.34 123.2 631.434 123.2V171.2C623.729 171.2 618.032 167.589 614.739 164.296C611.446 161.002 607.834 155.306 607.834 147.6H655.834ZM631.434 123.2H622.034V171.2H631.434V123.2ZM622.034 123.2C614.129 123.2 608.232 126.911 604.789 130.354C601.346 133.798 597.634 139.694 597.634 147.6H645.634C645.634 155.306 642.023 161.002 638.73 164.296C635.437 167.589 629.74 171.2 622.034 171.2V123.2ZM597.634 147.6V210.8H645.634V147.6H597.634ZM597.634 210.8C597.634 218.706 601.346 224.602 604.789 228.046C608.232 231.489 614.129 235.2 622.034 235.2V187.2C629.74 187.2 635.437 190.811 638.73 194.104C642.023 197.398 645.634 203.094 645.634 210.8H597.634ZM622.034 235.2H631.434V187.2H622.034V235.2ZM631.434 235.2C639.34 235.2 645.237 231.489 648.68 228.046C652.123 224.602 655.834 218.706 655.834 210.8H607.834C607.834 203.094 611.446 197.398 614.739 194.104C618.032 190.811 623.729 187.2 631.434 187.2V235.2ZM652.634 219H600.834V267H652.634V219ZM600.834 219C598.813 219 597.834 218.802 597.616 218.747C597.426 218.699 598.371 218.901 599.725 219.925C601.214 221.049 602.507 222.651 603.305 224.461C604.041 226.129 604.034 227.237 604.034 227.2H556.034C556.034 238.275 560.043 250.104 570.793 258.225C580.27 265.384 591.611 267 600.834 267V219ZM604.034 227.2V131.4H556.034V227.2H604.034ZM604.034 131.4C604.034 131.261 604.058 132.246 603.387 133.803C602.657 135.5 601.445 137.067 599.985 138.202C598.644 139.243 597.679 139.472 597.8 139.441C597.957 139.4 598.873 139.2 600.834 139.2V91.2C591.454 91.2 580.023 92.9255 570.534 100.298C559.91 108.553 556.034 120.405 556.034 131.4H604.034ZM600.834 139.2H652.634V91.2H600.834V139.2ZM652.634 139.2C654.596 139.2 655.512 139.4 655.669 139.441C655.79 139.472 654.824 139.243 653.484 138.202C652.024 137.067 650.812 135.5 650.081 133.803C649.411 132.246 649.434 131.261 649.434 131.4H697.434C697.434 120.405 693.559 108.553 682.935 100.298C673.446 92.9255 662.015 91.2 652.634 91.2V139.2ZM649.434 131.4V227.2H697.434V131.4H649.434ZM649.434 227.2C649.434 227.237 649.428 226.129 650.164 224.461C650.962 222.651 652.255 221.049 653.743 219.925C655.098 218.901 656.043 218.699 655.852 218.747C655.635 218.802 654.656 219 652.634 219V267C661.858 267 673.199 265.384 682.675 258.225C693.426 250.104 697.434 238.275 697.434 227.2H649.434ZM776.764 243V267H800.764V243H776.764ZM735.164 243H711.164V267H735.164V243ZM724.964 243V267H748.964V243H724.964ZM683.364 243H659.364V267H683.364V243ZM683.364 115.2V91.2H659.364V115.2H683.364ZM724.964 115.2H748.964V91.2H724.964V115.2ZM724.964 123.4H700.964V172.226L739.623 142.403L724.964 123.4ZM776.764 219H735.164V267H776.764V219ZM759.164 243V147.6H711.164V243H759.164ZM759.164 147.6C759.164 139.694 755.453 133.798 752.01 130.354C748.566 126.911 742.67 123.2 734.764 123.2V171.2C727.058 171.2 721.362 167.589 718.069 164.296C714.775 161.002 711.164 155.306 711.164 147.6H759.164ZM734.764 123.2H725.364V171.2H734.764V123.2ZM725.364 123.2C717.458 123.2 711.562 126.911 708.118 130.354C704.675 133.798 700.964 139.694 700.964 147.6H748.964C748.964 155.306 745.353 161.002 742.06 164.296C738.766 167.589 733.07 171.2 725.364 171.2V123.2ZM700.964 147.6V243H748.964V147.6H700.964ZM724.964 219H683.364V267H724.964V219ZM707.364 243V115.2H659.364V243H707.364ZM683.364 139.2H724.964V91.2H683.364V139.2ZM700.964 115.2V123.4H748.964V115.2H700.964ZM739.623 142.403C740.768 141.52 745.108 139.2 755.964 139.2V91.2C739.62 91.2 723.16 94.4804 710.305 104.397L739.623 142.403ZM755.964 139.2C757.926 139.2 758.842 139.4 758.998 139.441C759.119 139.472 758.154 139.243 756.814 138.202C755.353 137.067 754.142 135.5 753.411 133.803C752.741 132.246 752.764 131.261 752.764 131.4H800.764C800.764 120.405 796.889 108.553 786.264 100.298C776.775 92.9255 765.345 91.2 755.964 91.2V139.2ZM752.764 131.4V243H800.764V131.4H752.764ZM831.011 203.2V179.2H807.011V203.2H831.011ZM872.611 203.2H896.611V179.2H872.611V203.2ZM924.411 155V179H948.411V155H924.411ZM882.811 155H858.811V179H882.811V155ZM903.611 219H851.811V267H903.611V219ZM851.811 219C849.789 219 848.811 218.802 848.593 218.747C848.403 218.699 849.347 218.901 850.702 219.925C852.191 221.049 853.484 222.651 854.282 224.461C855.017 226.129 855.011 227.237 855.011 227.2H807.011C807.011 238.275 811.019 250.104 821.77 258.225C831.246 265.384 842.588 267 851.811 267V219ZM855.011 227.2V203.2H807.011V227.2H855.011ZM831.011 227.2H872.611V179.2H831.011V227.2ZM848.611 203.2V210.8H896.611V203.2H848.611ZM848.611 210.8C848.611 218.706 852.322 224.602 855.765 228.046C859.209 231.489 865.105 235.2 873.011 235.2V187.2C880.716 187.2 886.413 190.811 889.707 194.104C893 197.398 896.611 203.094 896.611 210.8H848.611ZM873.011 235.2H882.411V187.2H873.011V235.2ZM882.411 235.2C890.317 235.2 896.213 231.489 899.656 228.046C903.1 224.602 906.811 218.706 906.811 210.8H858.811C858.811 203.094 862.422 197.398 865.715 194.104C869.009 190.811 874.705 187.2 882.411 187.2V235.2ZM906.811 210.8V195.6H858.811V210.8H906.811ZM906.811 195.6C906.811 187.694 903.1 181.798 899.656 178.354C896.213 174.911 890.317 171.2 882.411 171.2V219.2C874.705 219.2 869.009 215.589 865.715 212.296C862.422 209.002 858.811 203.306 858.811 195.6H906.811ZM882.411 171.2H851.811V219.2H882.411V171.2ZM851.811 171.2C849.849 171.2 848.933 171 848.777 170.959C848.656 170.928 849.621 171.157 850.961 172.198C852.422 173.333 853.633 174.9 854.364 176.596C855.034 178.154 855.011 179.139 855.011 179H807.011C807.011 189.995 810.886 201.847 821.511 210.102C831 217.474 842.43 219.2 851.811 219.2V171.2ZM855.011 179V131.4H807.011V179H855.011ZM855.011 131.4C855.011 131.261 855.034 132.246 854.364 133.803C853.633 135.5 852.422 137.067 850.961 138.202C849.621 139.243 848.656 139.472 848.777 139.441C848.933 139.4 849.849 139.2 851.811 139.2V91.2C842.43 91.2 831 92.9255 821.511 100.298C810.886 108.553 807.011 120.405 807.011 131.4H855.011ZM851.811 139.2H903.611V91.2H851.811V139.2ZM903.611 139.2C905.573 139.2 906.489 139.4 906.645 139.441C906.766 139.472 905.801 139.243 904.461 138.202C903 137.067 901.788 135.5 901.058 133.803C900.388 132.246 900.411 131.261 900.411 131.4H948.411C948.411 120.405 944.536 108.553 933.911 100.298C924.422 92.9255 912.992 91.2 903.611 91.2V139.2ZM900.411 131.4V155H948.411V131.4H900.411ZM924.411 131H882.811V179H924.411V131ZM906.811 155V147.6H858.811V155H906.811ZM906.811 147.6C906.811 139.694 903.1 133.798 899.657 130.354C896.213 126.911 890.317 123.2 882.411 123.2V171.2C874.705 171.2 869.009 167.589 865.715 164.296C862.422 161.002 858.811 155.306 858.811 147.6H906.811ZM882.411 123.2H873.011V171.2H882.411V123.2ZM873.011 123.2C865.105 123.2 859.209 126.911 855.765 130.354C852.322 133.798 848.611 139.694 848.611 147.6H896.611C896.611 155.306 893 161.002 889.707 164.296C886.413 167.589 880.717 171.2 873.011 171.2V123.2ZM848.611 147.6V162.8H896.611V147.6H848.611ZM848.611 162.8C848.611 170.706 852.322 176.602 855.765 180.046C859.209 183.489 865.105 187.2 873.011 187.2V139.2C880.716 139.2 886.413 142.811 889.706 146.104C893 149.398 896.611 155.094 896.611 162.8H848.611ZM873.011 187.2H903.611V139.2H873.011V187.2ZM903.611 187.2C905.632 187.2 906.611 187.398 906.829 187.453C907.019 187.501 906.075 187.299 904.72 186.275C903.231 185.151 901.938 183.549 901.14 181.739C900.405 180.071 900.411 178.963 900.411 179H948.411C948.411 167.925 944.403 156.096 933.652 147.975C924.176 140.816 912.834 139.2 903.611 139.2V187.2ZM900.411 179V227.2H948.411V179H900.411ZM900.411 227.2C900.411 227.237 900.405 226.129 901.14 224.461C901.938 222.651 903.231 221.049 904.72 219.925C906.075 218.901 907.019 218.699 906.829 218.747C906.611 218.802 905.632 219 903.611 219V267C912.834 267 924.176 265.384 933.652 258.225C944.403 250.104 948.411 238.275 948.411 227.2H900.411ZM934.141 115.2V91.2H910.141V115.2H934.141ZM975.741 115.2H999.741V91.2H975.741V115.2ZM985.941 115.2V91.2H961.941V115.2H985.941ZM1027.54 115.2H1051.54V91.2H1027.54V115.2ZM1006.74 219H954.941V267H1006.74V219ZM954.941 219C952.919 219 951.94 218.802 951.723 218.747C951.532 218.699 952.477 218.901 953.832 219.925C955.32 221.049 956.613 222.651 957.411 224.461C958.147 226.129 958.141 227.237 958.141 227.2H910.141C910.141 238.275 914.149 250.104 924.9 258.225C934.376 265.384 945.717 267 954.941 267V219ZM958.141 227.2V115.2H910.141V227.2H958.141ZM934.141 139.2H975.741V91.2H934.141V139.2ZM951.741 115.2V210.8H999.741V115.2H951.741ZM951.741 210.8C951.741 218.706 955.452 224.602 958.895 228.046C962.338 231.489 968.235 235.2 976.141 235.2V187.2C983.846 187.2 989.543 190.811 992.836 194.104C996.129 197.398 999.741 203.094 999.741 210.8H951.741ZM976.141 235.2H985.541V187.2H976.141V235.2ZM985.541 235.2C993.446 235.2 999.343 231.489 1002.79 228.046C1006.23 224.602 1009.94 218.705 1009.94 210.8H961.941C961.941 203.095 965.552 197.398 968.845 194.104C972.138 190.811 977.835 187.2 985.541 187.2V235.2ZM1009.94 210.8V115.2H961.941V210.8H1009.94ZM985.941 139.2H1027.54V91.2H985.941V139.2ZM1003.54 115.2V227.2H1051.54V115.2H1003.54ZM1003.54 227.2C1003.54 227.237 1003.53 226.129 1004.27 224.461C1005.07 222.651 1006.36 221.049 1007.85 219.925C1009.2 218.901 1010.15 218.699 1009.96 218.747C1009.74 218.802 1008.76 219 1006.74 219V267C1015.96 267 1027.31 265.384 1036.78 258.225C1047.53 250.104 1051.54 238.275 1051.54 227.2H1003.54ZM1130.66 169.2V193.2H1154.66V169.2H1130.66ZM1089.06 169.2H1065.06V193.2H1089.06V169.2ZM1089.06 181V157H1065.06V181H1089.06ZM1130.66 181H1154.66V157H1130.66V181ZM1109.86 219H1058.06V267H1109.86V219ZM1058.06 219C1056.04 219 1055.06 218.802 1054.84 218.747C1054.65 218.699 1055.6 218.901 1056.95 219.925C1058.44 221.049 1059.73 222.651 1060.53 224.461C1061.27 226.129 1061.26 227.237 1061.26 227.2H1013.26C1013.26 238.275 1017.27 250.104 1028.02 258.225C1037.5 265.384 1048.84 267 1058.06 267V219ZM1061.26 227.2V131.4H1013.26V227.2H1061.26ZM1061.26 131.4C1061.26 131.261 1061.28 132.246 1060.61 133.803C1059.88 135.5 1058.67 137.067 1057.21 138.202C1055.87 139.243 1054.91 139.472 1055.03 139.441C1055.18 139.4 1056.1 139.2 1058.06 139.2V91.2C1048.68 91.2 1037.25 92.9255 1027.76 100.298C1017.14 108.553 1013.26 120.405 1013.26 131.4H1061.26ZM1058.06 139.2H1109.86V91.2H1058.06V139.2ZM1109.86 139.2C1111.82 139.2 1112.74 139.4 1112.9 139.441C1113.02 139.472 1112.05 139.243 1110.71 138.202C1109.25 137.067 1108.04 135.5 1107.31 133.803C1106.64 132.246 1106.66 131.261 1106.66 131.4H1154.66C1154.66 120.405 1150.79 108.553 1140.16 100.298C1130.67 92.9255 1119.24 91.2 1109.86 91.2V139.2ZM1106.66 131.4V169.2H1154.66V131.4H1106.66ZM1130.66 145.2H1089.06V193.2H1130.66V145.2ZM1113.06 169.2V147.6H1065.06V169.2H1113.06ZM1113.06 147.6C1113.06 139.694 1109.35 133.798 1105.91 130.354C1102.46 126.911 1096.57 123.2 1088.66 123.2V171.2C1080.96 171.2 1075.26 167.589 1071.97 164.296C1068.67 161.002 1065.06 155.306 1065.06 147.6H1113.06ZM1088.66 123.2H1079.26V171.2H1088.66V123.2ZM1079.26 123.2C1071.36 123.2 1065.46 126.911 1062.02 130.354C1058.57 133.798 1054.86 139.694 1054.86 147.6H1102.86C1102.86 155.306 1099.25 161.002 1095.96 164.296C1092.66 167.589 1086.97 171.2 1079.26 171.2V123.2ZM1054.86 147.6V210.8H1102.86V147.6H1054.86ZM1054.86 210.8C1054.86 218.706 1058.57 224.602 1062.02 228.046C1065.46 231.489 1071.36 235.2 1079.26 235.2V187.2C1086.97 187.2 1092.66 190.811 1095.96 194.104C1099.25 197.398 1102.86 203.094 1102.86 210.8H1054.86ZM1079.26 235.2H1088.66V187.2H1079.26V235.2ZM1088.66 235.2C1096.57 235.2 1102.46 231.489 1105.91 228.046C1109.35 224.602 1113.06 218.706 1113.06 210.8H1065.06C1065.06 203.094 1068.67 197.398 1071.97 194.104C1075.26 190.811 1080.96 187.2 1088.66 187.2V235.2ZM1113.06 210.8V181H1065.06V210.8H1113.06ZM1089.06 205H1130.66V157H1089.06V205ZM1106.66 181V227.2H1154.66V181H1106.66ZM1106.66 227.2C1106.66 227.237 1106.65 226.129 1107.39 224.461C1108.19 222.651 1109.48 221.049 1110.97 219.925C1112.32 218.901 1113.27 218.699 1113.08 218.747C1112.86 218.802 1111.88 219 1109.86 219V267C1119.08 267 1130.43 265.384 1139.9 258.225C1150.65 250.104 1154.66 238.275 1154.66 227.2H1106.66ZM1233.59 169.2V193.2H1257.59V169.2H1233.59ZM1191.99 169.2H1167.99V193.2H1191.99V169.2ZM1191.99 181V157H1167.99V181H1191.99ZM1233.59 181H1257.59V157H1233.59V181ZM1212.79 219H1160.99V267H1212.79V219ZM1160.99 219C1158.97 219 1157.99 218.802 1157.77 218.747C1157.58 218.699 1158.53 218.901 1159.88 219.925C1161.37 221.049 1162.66 222.651 1163.46 224.461C1164.2 226.129 1164.19 227.237 1164.19 227.2H1116.19C1116.19 238.275 1120.2 250.104 1130.95 258.225C1140.43 265.384 1151.77 267 1160.99 267V219ZM1164.19 227.2V131.4H1116.19V227.2H1164.19ZM1164.19 131.4C1164.19 131.261 1164.21 132.246 1163.54 133.803C1162.81 135.5 1161.6 137.067 1160.14 138.202C1158.8 139.243 1157.84 139.472 1157.96 139.441C1158.11 139.4 1159.03 139.2 1160.99 139.2V91.2C1151.61 91.2 1140.18 92.9255 1130.69 100.298C1120.07 108.553 1116.19 120.405 1116.19 131.4H1164.19ZM1160.99 139.2H1212.79V91.2H1160.99V139.2ZM1212.79 139.2C1214.75 139.2 1215.67 139.4 1215.82 139.441C1215.95 139.472 1214.98 139.243 1213.64 138.202C1212.18 137.067 1210.97 135.5 1210.24 133.803C1209.57 132.246 1209.59 131.261 1209.59 131.4H1257.59C1257.59 120.405 1253.72 108.553 1243.09 100.298C1233.6 92.9255 1222.17 91.2 1212.79 91.2V139.2ZM1209.59 131.4V169.2H1257.59V131.4H1209.59ZM1233.59 145.2H1191.99V193.2H1233.59V145.2ZM1215.99 169.2V147.6H1167.99V169.2H1215.99ZM1215.99 147.6C1215.99 139.694 1212.28 133.798 1208.84 130.354C1205.39 126.911 1199.5 123.2 1191.59 123.2V171.2C1183.88 171.2 1178.19 167.589 1174.9 164.296C1171.6 161.002 1167.99 155.306 1167.99 147.6H1215.99ZM1191.59 123.2H1182.19V171.2H1191.59V123.2ZM1182.19 123.2C1174.28 123.2 1168.39 126.911 1164.95 130.354C1161.5 133.798 1157.79 139.694 1157.79 147.6H1205.79C1205.79 155.306 1202.18 161.002 1198.89 164.296C1195.59 167.589 1189.9 171.2 1182.19 171.2V123.2ZM1157.79 147.6V210.8H1205.79V147.6H1157.79ZM1157.79 210.8C1157.79 218.706 1161.5 224.602 1164.95 228.046C1168.39 231.489 1174.29 235.2 1182.19 235.2V187.2C1189.9 187.2 1195.59 190.811 1198.89 194.104C1202.18 197.398 1205.79 203.094 1205.79 210.8H1157.79ZM1182.19 235.2H1191.59V187.2H1182.19V235.2ZM1191.59 235.2C1199.5 235.2 1205.39 231.489 1208.84 228.046C1212.28 224.602 1215.99 218.706 1215.99 210.8H1167.99C1167.99 203.094 1171.6 197.398 1174.9 194.104C1178.19 190.811 1183.89 187.2 1191.59 187.2V235.2ZM1215.99 210.8V181H1167.99V210.8H1215.99ZM1191.99 205H1233.59V157H1191.99V205ZM1209.59 181V227.2H1257.59V181H1209.59ZM1209.59 227.2C1209.59 227.237 1209.58 226.129 1210.32 224.461C1211.12 222.651 1212.41 221.049 1213.9 219.925C1215.25 218.901 1216.2 218.699 1216.01 218.747C1215.79 218.802 1214.81 219 1212.79 219V267C1222.01 267 1233.36 265.384 1242.83 258.225C1253.58 250.104 1257.59 238.275 1257.59 227.2H1209.59ZM1294.92 165.4V189.4H1318.92V165.4H1294.92ZM1284.72 165.4H1260.72V189.4H1284.72V165.4ZM1336.52 195.2V219.2H1360.52V195.2H1336.52ZM1284.72 195.2V171.2H1260.72V195.2H1284.72ZM1294.92 203.2V179.2H1270.92V203.2H1294.92ZM1336.52 203.2H1360.52V179.2H1336.52V203.2ZM1318.92 165.4V147.6H1270.92V165.4H1318.92ZM1318.92 147.6C1318.92 139.694 1315.21 133.798 1311.77 130.354C1308.32 126.911 1302.43 123.2 1294.52 123.2V171.2C1286.81 171.2 1281.12 167.589 1277.82 164.296C1274.53 161.002 1270.92 155.306 1270.92 147.6H1318.92ZM1294.52 123.2H1285.12V171.2H1294.52V123.2ZM1285.12 123.2C1277.21 123.2 1271.32 126.911 1267.87 130.354C1264.43 133.798 1260.72 139.694 1260.72 147.6H1308.72C1308.72 155.306 1305.11 161.002 1301.82 164.296C1298.52 167.589 1292.83 171.2 1285.12 171.2V123.2ZM1260.72 147.6V165.4H1308.72V147.6H1260.72ZM1284.72 189.4H1294.92V141.4H1284.72V189.4ZM1315.72 219H1263.92V267H1315.72V219ZM1263.92 219C1261.9 219 1260.92 218.802 1260.7 218.747C1260.51 218.699 1261.46 218.901 1262.81 219.925C1264.3 221.049 1265.59 222.651 1266.39 224.461C1267.13 226.129 1267.12 227.237 1267.12 227.2H1219.12C1219.12 238.275 1223.13 250.104 1233.88 258.225C1243.36 265.384 1254.7 267 1263.92 267V219ZM1267.12 227.2V131.4H1219.12V227.2H1267.12ZM1267.12 131.4C1267.12 131.261 1267.14 132.246 1266.47 133.803C1265.74 135.5 1264.53 137.067 1263.07 138.202C1261.73 139.243 1260.77 139.472 1260.89 139.441C1261.04 139.4 1261.96 139.2 1263.92 139.2V91.2C1254.54 91.2 1243.11 92.9255 1233.62 100.298C1223 108.553 1219.12 120.405 1219.12 131.4H1267.12ZM1263.92 139.2H1315.72V91.2H1263.92V139.2ZM1315.72 139.2C1317.68 139.2 1318.6 139.4 1318.75 139.441C1318.88 139.472 1317.91 139.243 1316.57 138.202C1315.11 137.067 1313.9 135.5 1313.17 133.803C1312.5 132.246 1312.52 131.261 1312.52 131.4H1360.52C1360.52 120.405 1356.64 108.553 1346.02 100.298C1336.53 92.9255 1325.1 91.2 1315.72 91.2V139.2ZM1312.52 131.4V195.2H1360.52V131.4H1312.52ZM1336.52 171.2H1284.72V219.2H1336.52V171.2ZM1260.72 195.2V210.8H1308.72V195.2H1260.72ZM1260.72 210.8C1260.72 218.706 1264.43 224.602 1267.87 228.046C1271.32 231.489 1277.21 235.2 1285.12 235.2V187.2C1292.83 187.2 1298.52 190.811 1301.82 194.104C1305.11 197.398 1308.72 203.094 1308.72 210.8H1260.72ZM1285.12 235.2H1294.52V187.2H1285.12V235.2ZM1294.52 235.2C1302.43 235.2 1308.32 231.489 1311.77 228.046C1315.21 224.602 1318.92 218.706 1318.92 210.8H1270.92C1270.92 203.094 1274.53 197.398 1277.82 194.104C1281.12 190.811 1286.81 187.2 1294.52 187.2V235.2ZM1318.92 210.8V203.2H1270.92V210.8H1318.92ZM1294.92 227.2H1336.52V179.2H1294.92V227.2ZM1312.52 203.2V227.2H1360.52V203.2H1312.52ZM1312.52 227.2C1312.52 227.237 1312.51 226.129 1313.25 224.461C1314.05 222.651 1315.34 221.049 1316.83 219.925C1318.18 218.901 1319.13 218.699 1318.94 218.747C1318.72 218.802 1317.74 219 1315.72 219V267C1324.94 267 1336.29 265.384 1345.76 258.225C1356.51 250.104 1360.52 238.275 1360.52 227.2H1312.52ZM1346.05 203.2V179.2H1322.05V203.2H1346.05ZM1387.65 203.2H1411.65V179.2H1387.65V203.2ZM1439.45 155V179H1463.45V155H1439.45ZM1397.85 155H1373.85V179H1397.85V155ZM1418.65 219H1366.85V267H1418.65V219ZM1366.85 219C1364.83 219 1363.85 218.802 1363.63 218.747C1363.44 218.699 1364.39 218.901 1365.74 219.925C1367.23 221.049 1368.52 222.651 1369.32 224.461C1370.06 226.129 1370.05 227.237 1370.05 227.2H1322.05C1322.05 238.275 1326.06 250.104 1336.81 258.225C1346.29 265.384 1357.63 267 1366.85 267V219ZM1370.05 227.2V203.2H1322.05V227.2H1370.05ZM1346.05 227.2H1387.65V179.2H1346.05V227.2ZM1363.65 203.2V210.8H1411.65V203.2H1363.65ZM1363.65 210.8C1363.65 218.706 1367.36 224.602 1370.8 228.046C1374.25 231.489 1380.14 235.2 1388.05 235.2V187.2C1395.76 187.2 1401.45 190.811 1404.75 194.104C1408.04 197.398 1411.65 203.094 1411.65 210.8H1363.65ZM1388.05 235.2H1397.45V187.2H1388.05V235.2ZM1397.45 235.2C1405.36 235.2 1411.25 231.489 1414.7 228.046C1418.14 224.602 1421.85 218.706 1421.85 210.8H1373.85C1373.85 203.094 1377.46 197.398 1380.75 194.104C1384.05 190.811 1389.74 187.2 1397.45 187.2V235.2ZM1421.85 210.8V195.6H1373.85V210.8H1421.85ZM1421.85 195.6C1421.85 187.694 1418.14 181.798 1414.7 178.354C1411.25 174.911 1405.36 171.2 1397.45 171.2V219.2C1389.74 219.2 1384.05 215.589 1380.75 212.296C1377.46 209.002 1373.85 203.306 1373.85 195.6H1421.85ZM1397.45 171.2H1366.85V219.2H1397.45V171.2ZM1366.85 171.2C1364.89 171.2 1363.97 171 1363.82 170.959C1363.69 170.928 1364.66 171.157 1366 172.198C1367.46 173.333 1368.67 174.9 1369.4 176.596C1370.07 178.154 1370.05 179.139 1370.05 179H1322.05C1322.05 189.995 1325.93 201.847 1336.55 210.102C1346.04 217.474 1357.47 219.2 1366.85 219.2V171.2ZM1370.05 179V131.4H1322.05V179H1370.05ZM1370.05 131.4C1370.05 131.261 1370.07 132.246 1369.4 133.803C1368.67 135.5 1367.46 137.067 1366 138.202C1364.66 139.243 1363.69 139.472 1363.82 139.441C1363.97 139.4 1364.89 139.2 1366.85 139.2V91.2C1357.47 91.2 1346.04 92.9255 1336.55 100.298C1325.93 108.553 1322.05 120.405 1322.05 131.4H1370.05ZM1366.85 139.2H1418.65V91.2H1366.85V139.2ZM1418.65 139.2C1420.61 139.2 1421.53 139.4 1421.68 139.441C1421.81 139.472 1420.84 139.243 1419.5 138.202C1418.04 137.067 1416.83 135.5 1416.1 133.803C1415.43 132.246 1415.45 131.261 1415.45 131.4H1463.45C1463.45 120.405 1459.57 108.553 1448.95 100.298C1439.46 92.9255 1428.03 91.2 1418.65 91.2V139.2ZM1415.45 131.4V155H1463.45V131.4H1415.45ZM1439.45 131H1397.85V179H1439.45V131ZM1421.85 155V147.6H1373.85V155H1421.85ZM1421.85 147.6C1421.85 139.694 1418.14 133.798 1414.7 130.354C1411.25 126.911 1405.36 123.2 1397.45 123.2V171.2C1389.74 171.2 1384.05 167.589 1380.75 164.296C1377.46 161.002 1373.85 155.306 1373.85 147.6H1421.85ZM1397.45 123.2H1388.05V171.2H1397.45V123.2ZM1388.05 123.2C1380.14 123.2 1374.25 126.911 1370.8 130.354C1367.36 133.798 1363.65 139.694 1363.65 147.6H1411.65C1411.65 155.306 1408.04 161.002 1404.75 164.296C1401.45 167.589 1395.76 171.2 1388.05 171.2V123.2ZM1363.65 147.6V162.8H1411.65V147.6H1363.65ZM1363.65 162.8C1363.65 170.706 1367.36 176.602 1370.8 180.046C1374.25 183.489 1380.14 187.2 1388.05 187.2V139.2C1395.76 139.2 1401.45 142.811 1404.75 146.104C1408.04 149.398 1411.65 155.094 1411.65 162.8H1363.65ZM1388.05 187.2H1418.65V139.2H1388.05V187.2ZM1418.65 187.2C1420.67 187.2 1421.65 187.398 1421.87 187.453C1422.06 187.501 1421.11 187.299 1419.76 186.275C1418.27 185.151 1416.98 183.549 1416.18 181.739C1415.44 180.071 1415.45 178.963 1415.45 179H1463.45C1463.45 167.925 1459.44 156.096 1448.69 147.975C1439.21 140.816 1427.87 139.2 1418.65 139.2V187.2ZM1415.45 179V227.2H1463.45V179H1415.45ZM1415.45 227.2C1415.45 227.237 1415.44 226.129 1416.18 224.461C1416.98 222.651 1418.27 221.049 1419.76 219.925C1421.11 218.901 1422.06 218.699 1421.87 218.747C1421.65 218.802 1420.67 219 1418.65 219V267C1427.87 267 1439.21 265.384 1448.69 258.225C1459.44 250.104 1463.45 238.275 1463.45 227.2H1415.45ZM1448.98 203.2V179.2H1424.98V203.2H1448.98ZM1490.58 203.2H1514.58V179.2H1490.58V203.2ZM1542.38 155V179H1566.38V155H1542.38ZM1500.78 155H1476.78V179H1500.78V155ZM1521.58 219H1469.78V267H1521.58V219ZM1469.78 219C1467.76 219 1466.78 218.802 1466.56 218.747C1466.37 218.699 1467.32 218.901 1468.67 219.925C1470.16 221.049 1471.45 222.651 1472.25 224.461C1472.99 226.129 1472.98 227.237 1472.98 227.2H1424.98C1424.98 238.275 1428.99 250.104 1439.74 258.225C1449.21 265.384 1460.56 267 1469.78 267V219ZM1472.98 227.2V203.2H1424.98V227.2H1472.98ZM1448.98 227.2H1490.58V179.2H1448.98V227.2ZM1466.58 203.2V210.8H1514.58V203.2H1466.58ZM1466.58 210.8C1466.58 218.706 1470.29 224.602 1473.73 228.046C1477.18 231.489 1483.07 235.2 1490.98 235.2V187.2C1498.69 187.2 1504.38 190.811 1507.68 194.104C1510.97 197.398 1514.58 203.094 1514.58 210.8H1466.58ZM1490.98 235.2H1500.38V187.2H1490.98V235.2ZM1500.38 235.2C1508.29 235.2 1514.18 231.489 1517.63 228.046C1521.07 224.602 1524.78 218.706 1524.78 210.8H1476.78C1476.78 203.094 1480.39 197.398 1483.68 194.104C1486.98 190.811 1492.67 187.2 1500.38 187.2V235.2ZM1524.78 210.8V195.6H1476.78V210.8H1524.78ZM1524.78 195.6C1524.78 187.694 1521.07 181.798 1517.63 178.354C1514.18 174.911 1508.29 171.2 1500.38 171.2V219.2C1492.67 219.2 1486.98 215.589 1483.68 212.296C1480.39 209.002 1476.78 203.306 1476.78 195.6H1524.78ZM1500.38 171.2H1469.78V219.2H1500.38V171.2ZM1469.78 171.2C1467.82 171.2 1466.9 171 1466.75 170.959C1466.62 170.928 1467.59 171.157 1468.93 172.198C1470.39 173.333 1471.6 174.9 1472.33 176.596C1473 178.154 1472.98 179.139 1472.98 179H1424.98C1424.98 189.995 1428.86 201.847 1439.48 210.102C1448.97 217.474 1460.4 219.2 1469.78 219.2V171.2ZM1472.98 179V131.4H1424.98V179H1472.98ZM1472.98 131.4C1472.98 131.261 1473 132.246 1472.33 133.803C1471.6 135.5 1470.39 137.067 1468.93 138.202C1467.59 139.243 1466.62 139.472 1466.75 139.441C1466.9 139.4 1467.82 139.2 1469.78 139.2V91.2C1460.4 91.2 1448.97 92.9255 1439.48 100.298C1428.86 108.553 1424.98 120.405 1424.98 131.4H1472.98ZM1469.78 139.2H1521.58V91.2H1469.78V139.2ZM1521.58 139.2C1523.54 139.2 1524.46 139.4 1524.61 139.441C1524.73 139.472 1523.77 139.243 1522.43 138.202C1520.97 137.067 1519.76 135.5 1519.03 133.803C1518.36 132.246 1518.38 131.261 1518.38 131.4H1566.38C1566.38 120.405 1562.5 108.553 1551.88 100.298C1542.39 92.9255 1530.96 91.2 1521.58 91.2V139.2ZM1518.38 131.4V155H1566.38V131.4H1518.38ZM1542.38 131H1500.78V179H1542.38V131ZM1524.78 155V147.6H1476.78V155H1524.78ZM1524.78 147.6C1524.78 139.694 1521.07 133.798 1517.63 130.354C1514.18 126.911 1508.29 123.2 1500.38 123.2V171.2C1492.67 171.2 1486.98 167.589 1483.68 164.296C1480.39 161.002 1476.78 155.306 1476.78 147.6H1524.78ZM1500.38 123.2H1490.98V171.2H1500.38V123.2ZM1490.98 123.2C1483.07 123.2 1477.18 126.911 1473.73 130.354C1470.29 133.798 1466.58 139.694 1466.58 147.6H1514.58C1514.58 155.306 1510.97 161.002 1507.68 164.296C1504.38 167.589 1498.69 171.2 1490.98 171.2V123.2ZM1466.58 147.6V162.8H1514.58V147.6H1466.58ZM1466.58 162.8C1466.58 170.706 1470.29 176.602 1473.73 180.046C1477.18 183.489 1483.07 187.2 1490.98 187.2V139.2C1498.69 139.2 1504.38 142.811 1507.68 146.104C1510.97 149.398 1514.58 155.094 1514.58 162.8H1466.58ZM1490.98 187.2H1521.58V139.2H1490.98V187.2ZM1521.58 187.2C1523.6 187.2 1524.58 187.398 1524.8 187.453C1524.99 187.501 1524.04 187.299 1522.69 186.275C1521.2 185.151 1519.91 183.549 1519.11 181.739C1518.37 180.071 1518.38 178.963 1518.38 179H1566.38C1566.38 167.925 1562.37 156.096 1551.62 147.975C1542.14 140.816 1530.8 139.2 1521.58 139.2V187.2ZM1518.38 179V227.2H1566.38V179H1518.38ZM1518.38 227.2C1518.38 227.237 1518.37 226.129 1519.11 224.461C1519.91 222.651 1521.2 221.049 1522.69 219.925C1524.04 218.901 1524.99 218.699 1524.8 218.747C1524.58 218.802 1523.6 219 1521.58 219V267C1530.8 267 1542.14 265.384 1551.62 258.225C1562.37 250.104 1566.38 238.275 1566.38 227.2H1518.38Z" fill="black" mask="url(#path-1-outside-1_10_57)"/>
</svg>
