<svg width="800" height="304" viewBox="0 0 800 304" fill="none" xmlns="http://www.w3.org/2000/svg">
<mask id="path-1-outside-1_5_3" maskUnits="userSpaceOnUse" x="22" y="40" width="734" height="232" fill="black">
<rect fill="white" x="22" y="40" width="734" height="232"/>
<path d="M127.4 192H113.6V200H89V192H54.8V160.2H106.2C106.4 160.2 106.6 160 106.6 159.8V152.6C106.6 152.4 106.4 152.2 106.2 152.2H75.6C61.8 152.2 54.8 146.4 54.8 135V96.2C54.8 85.4 61.8 80 75.6 80H89V72.2H113.6V80H148.2V112H96.8C96.6 112 96.4 112.2 96.4 112.4V119.8C96.4 120 96.6 120.2 96.8 120.2H127.4C141.2 120.2 148.2 125.8 148.2 137V176C148.2 186.6 141.2 192 127.4 192ZM209.925 120.2V104.6C209.925 104.4 209.725 104.2 209.525 104.2H200.125C199.925 104.2 199.725 104.4 199.725 104.6V120.2H209.925ZM355.125 239.8H230.725C216.925 239.8 209.925 234.6 209.925 224V152.2H199.725V200H158.125V88.4C158.125 77.6 165.125 72.2 178.925 72.2H230.725C244.525 72.2 251.525 77.6 251.525 88.4V207.6C251.525 207.8 251.725 208 251.925 208H355.125V239.8ZM355.125 200H313.525V150.8H303.325V200H261.725V72.2H303.325V121.4H313.525V72.2H355.125V200ZM437.752 200H385.952C372.152 200 365.152 194.8 365.152 184.2V160.2H406.752V167.8C406.752 168 406.952 168.2 407.152 168.2H416.552C416.752 168.2 416.952 168 416.952 167.8V152.6C416.952 152.4 416.752 152.2 416.552 152.2H385.952C372.152 152.2 365.152 146.8 365.152 136V88.4C365.152 77.6 372.152 72.2 385.952 72.2H437.752C451.552 72.2 458.552 77.6 458.552 88.4V112H416.952V104.6C416.952 104.4 416.752 104.2 416.552 104.2H407.152C406.952 104.2 406.752 104.4 406.752 104.6V119.8C406.752 120 406.952 120.2 407.152 120.2H437.752C451.552 120.2 458.552 125.4 458.552 136V184.2C458.552 194.8 451.552 200 437.752 200ZM613.881 239.8H541.081C527.281 239.8 520.281 234.6 520.281 224V150.8H510.081V200H468.481V72.2H510.081V121.4H520.281V72.2H561.881V207.6C561.881 207.8 562.081 208 562.281 208H613.881V239.8ZM613.881 200H572.281V72.2H613.881V200ZM703.141 200H651.341C637.541 200 630.541 194.8 630.541 184.2V112H620.341V80.4H630.541V72.2H672.141V80.4H723.941V112H672.141V167.8C672.141 168 672.341 168.2 672.541 168.2H682.141C682.341 168.2 682.541 168 682.541 167.8V120.2H723.941V184.2C723.941 194.8 716.941 200 703.141 200Z"/>
</mask>
<path d="M127.4 192H113.6V200H89V192H54.8V160.2H106.2C106.4 160.2 106.6 160 106.6 159.8V152.6C106.6 152.4 106.4 152.2 106.2 152.2H75.6C61.8 152.2 54.8 146.4 54.8 135V96.2C54.8 85.4 61.8 80 75.6 80H89V72.2H113.6V80H148.2V112H96.8C96.6 112 96.4 112.2 96.4 112.4V119.8C96.4 120 96.6 120.2 96.8 120.2H127.4C141.2 120.2 148.2 125.8 148.2 137V176C148.2 186.6 141.2 192 127.4 192ZM209.925 120.2V104.6C209.925 104.4 209.725 104.2 209.525 104.2H200.125C199.925 104.2 199.725 104.4 199.725 104.6V120.2H209.925ZM355.125 239.8H230.725C216.925 239.8 209.925 234.6 209.925 224V152.2H199.725V200H158.125V88.4C158.125 77.6 165.125 72.2 178.925 72.2H230.725C244.525 72.2 251.525 77.6 251.525 88.4V207.6C251.525 207.8 251.725 208 251.925 208H355.125V239.8ZM355.125 200H313.525V150.8H303.325V200H261.725V72.2H303.325V121.4H313.525V72.2H355.125V200ZM437.752 200H385.952C372.152 200 365.152 194.8 365.152 184.2V160.2H406.752V167.8C406.752 168 406.952 168.2 407.152 168.2H416.552C416.752 168.2 416.952 168 416.952 167.8V152.6C416.952 152.4 416.752 152.2 416.552 152.2H385.952C372.152 152.2 365.152 146.8 365.152 136V88.4C365.152 77.6 372.152 72.2 385.952 72.2H437.752C451.552 72.2 458.552 77.6 458.552 88.4V112H416.952V104.6C416.952 104.4 416.752 104.2 416.552 104.2H407.152C406.952 104.2 406.752 104.4 406.752 104.6V119.8C406.752 120 406.952 120.2 407.152 120.2H437.752C451.552 120.2 458.552 125.4 458.552 136V184.2C458.552 194.8 451.552 200 437.752 200ZM613.881 239.8H541.081C527.281 239.8 520.281 234.6 520.281 224V150.8H510.081V200H468.481V72.2H510.081V121.4H520.281V72.2H561.881V207.6C561.881 207.8 562.081 208 562.281 208H613.881V239.8ZM613.881 200H572.281V72.2H613.881V200ZM703.141 200H651.341C637.541 200 630.541 194.8 630.541 184.2V112H620.341V80.4H630.541V72.2H672.141V80.4H723.941V112H672.141V167.8C672.141 168 672.341 168.2 672.541 168.2H682.141C682.341 168.2 682.541 168 682.541 167.8V120.2H723.941V184.2C723.941 194.8 716.941 200 703.141 200Z" fill="white"/>
<path d="M113.6 192V160H81.6V192H113.6ZM113.6 200V232H145.6V200H113.6ZM89 200H57V232H89V200ZM89 192H121V160H89V192ZM54.8 192H22.8V224H54.8V192ZM54.8 160.2V128.2H22.8V160.2H54.8ZM89 80V112H121V80H89ZM89 72.2V40.2H57V72.2H89ZM113.6 72.2H145.6V40.2H113.6V72.2ZM113.6 80H81.6V112H113.6V80ZM148.2 80H180.2V48H148.2V80ZM148.2 112V144H180.2V112H148.2ZM127.4 160H113.6V224H127.4V160ZM81.6 192V200H145.6V192H81.6ZM113.6 168H89V232H113.6V168ZM121 200V192H57V200H121ZM89 160H54.8V224H89V160ZM86.8 192V160.2H22.8V192H86.8ZM54.8 192.2H106.2V128.2H54.8V192.2ZM106.2 192.2C116.707 192.2 124.536 187.269 129.102 182.703C133.668 178.137 138.6 170.308 138.6 159.8H74.6C74.6 149.492 79.4317 141.863 83.8478 137.447C88.2638 133.031 95.8927 128.2 106.2 128.2V192.2ZM138.6 159.8V152.6H74.6V159.8H138.6ZM138.6 152.6C138.6 142.092 133.668 134.263 129.102 129.697C124.536 125.132 116.707 120.2 106.2 120.2V184.2C95.8925 184.2 88.2637 179.368 83.8477 174.953C79.4317 170.537 74.6 162.908 74.6 152.6H138.6ZM106.2 120.2H75.6V184.2H106.2V120.2ZM75.6 120.2C72.4244 120.2 75.8304 119.419 80.4235 123.219C82.8781 125.25 84.6932 127.835 85.7577 130.456C86.7477 132.894 86.8 134.631 86.8 135H22.8C22.8 147.544 26.9539 162.046 39.6265 172.531C51.1696 182.081 64.9756 184.2 75.6 184.2V120.2ZM86.8 135V96.2H22.8V135H86.8ZM86.8 96.2C86.8 96.9147 86.6854 99.0161 85.5009 101.767C84.2362 104.704 82.185 107.356 79.6585 109.319C75.115 112.849 72.0077 112 75.6 112V48C65.3923 48 51.885 49.8507 40.3915 58.7809C27.3839 68.8876 22.8 83.3396 22.8 96.2H86.8ZM75.6 112H89V48H75.6V112ZM121 80V72.2H57V80H121ZM89 104.2H113.6V40.2H89V104.2ZM81.6 72.2V80H145.6V72.2H81.6ZM113.6 112H148.2V48H113.6V112ZM116.2 80V112H180.2V80H116.2ZM148.2 80H96.8V144H148.2V80ZM96.8 80C86.2924 80 78.4635 84.9316 73.8975 89.4976C69.3316 94.0636 64.4 101.893 64.4 112.4H128.4C128.4 122.707 123.568 130.336 119.152 134.752C114.736 139.168 107.108 144 96.8 144V80ZM64.4 112.4V119.8H128.4V112.4H64.4ZM64.4 119.8C64.4 130.307 69.3315 138.136 73.8976 142.702C78.4638 147.269 86.2927 152.2 96.8 152.2V88.2C107.107 88.2 114.736 93.0314 119.152 97.4475C123.569 101.864 128.4 109.493 128.4 119.8H64.4ZM96.8 152.2H127.4V88.2H96.8V152.2ZM127.4 152.2C130.791 152.2 127.492 153.02 122.897 149.318C120.396 147.302 118.481 144.676 117.337 141.92C116.271 139.355 116.2 137.48 116.2 137H180.2C180.2 124.35 175.902 109.835 163.053 99.4823C151.508 90.1801 137.809 88.2 127.4 88.2V152.2ZM116.2 137V176H180.2V137H116.2ZM116.2 176C116.2 175.162 116.339 172.973 117.564 170.167C118.866 167.185 120.949 164.548 123.455 162.618C127.953 159.156 130.98 160 127.4 160V224C137.62 224 151.047 222.144 162.495 213.332C175.481 203.336 180.2 188.957 180.2 176H116.2ZM209.925 120.2V152.2H241.925V120.2H209.925ZM199.725 120.2H167.725V152.2H199.725V120.2ZM355.125 239.8V271.8H387.125V239.8H355.125ZM209.925 152.2H241.925V120.2H209.925V152.2ZM199.725 152.2V120.2H167.725V152.2H199.725ZM199.725 200V232H231.725V200H199.725ZM158.125 200H126.125V232H158.125V200ZM355.125 208H387.125V176H355.125V208ZM355.125 200V232H387.125V200H355.125ZM313.525 200H281.525V232H313.525V200ZM313.525 150.8H345.525V118.8H313.525V150.8ZM303.325 150.8V118.8H271.325V150.8H303.325ZM303.325 200V232H335.325V200H303.325ZM261.725 200H229.725V232H261.725V200ZM261.725 72.2V40.2H229.725V72.2H261.725ZM303.325 72.2H335.325V40.2H303.325V72.2ZM303.325 121.4H271.325V153.4H303.325V121.4ZM313.525 121.4V153.4H345.525V121.4H313.525ZM313.525 72.2V40.2H281.525V72.2H313.525ZM355.125 72.2H387.125V40.2H355.125V72.2ZM241.925 120.2V104.6H177.925V120.2H241.925ZM241.925 104.6C241.925 94.0927 236.994 86.2638 232.428 81.6977C227.861 77.1316 220.032 72.2 209.525 72.2V136.2C199.218 136.2 191.589 131.368 187.172 126.952C182.756 122.536 177.925 114.907 177.925 104.6H241.925ZM209.525 72.2H200.125V136.2H209.525V72.2ZM200.125 72.2C189.617 72.2 181.789 77.1316 177.223 81.6976C172.657 86.2636 167.725 94.0925 167.725 104.6H231.725C231.725 114.907 226.893 122.536 222.477 126.952C218.061 131.368 210.433 136.2 200.125 136.2V72.2ZM167.725 104.6V120.2H231.725V104.6H167.725ZM199.725 152.2H209.925V88.2H199.725V152.2ZM355.125 207.8H230.725V271.8H355.125V207.8ZM230.725 207.8C226.923 207.8 229.911 206.922 234.438 210.341C237.002 212.278 239.162 214.961 240.516 218.034C241.787 220.918 241.925 223.166 241.925 224H177.925C177.925 237 182.686 251.456 195.862 261.409C207.339 270.078 220.727 271.8 230.725 271.8V207.8ZM241.925 224V152.2H177.925V224H241.925ZM209.925 120.2H199.725V184.2H209.925V120.2ZM167.725 152.2V200H231.725V152.2H167.725ZM199.725 168H158.125V232H199.725V168ZM190.125 200V88.4H126.125V200H190.125ZM190.125 88.4C190.125 89.1147 190.01 91.216 188.826 93.9672C187.561 96.9044 185.51 99.556 182.984 101.519C178.44 105.049 175.333 104.2 178.925 104.2V40.2C168.717 40.2 155.21 42.0507 143.716 50.9809C130.709 61.0876 126.125 75.5397 126.125 88.4H190.125ZM178.925 104.2H230.725V40.2H178.925V104.2ZM230.725 104.2C234.317 104.2 231.21 105.049 226.666 101.519C224.14 99.556 222.089 96.9044 220.824 93.9672C219.64 91.216 219.525 89.1147 219.525 88.4H283.525C283.525 75.5397 278.941 61.0876 265.934 50.9809C254.44 42.0507 240.933 40.2 230.725 40.2V104.2ZM219.525 88.4V207.6H283.525V88.4H219.525ZM219.525 207.6C219.525 218.108 224.457 225.937 229.023 230.502C233.589 235.068 241.418 240 251.925 240V176C262.232 176 269.861 180.832 274.277 185.248C278.693 189.663 283.525 197.292 283.525 207.6H219.525ZM251.925 240H355.125V176H251.925V240ZM323.125 208V239.8H387.125V208H323.125ZM355.125 168H313.525V232H355.125V168ZM345.525 200V150.8H281.525V200H345.525ZM313.525 118.8H303.325V182.8H313.525V118.8ZM271.325 150.8V200H335.325V150.8H271.325ZM303.325 168H261.725V232H303.325V168ZM293.725 200V72.2H229.725V200H293.725ZM261.725 104.2H303.325V40.2H261.725V104.2ZM271.325 72.2V121.4H335.325V72.2H271.325ZM303.325 153.4H313.525V89.4H303.325V153.4ZM345.525 121.4V72.2H281.525V121.4H345.525ZM313.525 104.2H355.125V40.2H313.525V104.2ZM323.125 72.2V200H387.125V72.2H323.125ZM365.152 160.2V128.2H333.152V160.2H365.152ZM406.752 160.2H438.752V128.2H406.752V160.2ZM458.552 112V144H490.552V112H458.552ZM416.952 112H384.952V144H416.952V112ZM437.752 168H385.952V232H437.752V168ZM385.952 168C382.149 168 385.138 167.122 389.665 170.541C392.229 172.478 394.388 175.161 395.743 178.234C397.014 181.118 397.152 183.366 397.152 184.2H333.152C333.152 197.2 337.913 211.656 351.089 221.609C362.565 230.278 375.954 232 385.952 232V168ZM397.152 184.2V160.2H333.152V184.2H397.152ZM365.152 192.2H406.752V128.2H365.152V192.2ZM374.752 160.2V167.8H438.752V160.2H374.752ZM374.752 167.8C374.752 178.307 379.683 186.136 384.249 190.702C388.815 195.268 396.644 200.2 407.152 200.2V136.2C417.459 136.2 425.088 141.032 429.504 145.448C433.92 149.864 438.752 157.493 438.752 167.8H374.752ZM407.152 200.2H416.552V136.2H407.152V200.2ZM416.552 200.2C427.059 200.2 434.888 195.268 439.454 190.702C444.02 186.136 448.952 178.308 448.952 167.8H384.952C384.952 157.492 389.783 149.864 394.199 145.448C398.615 141.032 406.244 136.2 416.552 136.2V200.2ZM448.952 167.8V152.6H384.952V167.8H448.952ZM448.952 152.6C448.952 142.092 444.02 134.263 439.454 129.697C434.888 125.132 427.059 120.2 416.552 120.2V184.2C406.244 184.2 398.615 179.368 394.199 174.953C389.783 170.537 384.952 162.908 384.952 152.6H448.952ZM416.552 120.2H385.952V184.2H416.552V120.2ZM385.952 120.2C382.359 120.2 385.467 119.351 390.01 122.881C392.537 124.844 394.588 127.496 395.852 130.433C397.037 133.184 397.152 135.285 397.152 136H333.152C333.152 148.86 337.735 163.312 350.743 173.419C362.237 182.349 375.744 184.2 385.952 184.2V120.2ZM397.152 136V88.4H333.152V136H397.152ZM397.152 88.4C397.152 89.1147 397.037 91.216 395.852 93.9672C394.588 96.9044 392.537 99.556 390.01 101.519C385.467 105.049 382.359 104.2 385.952 104.2V40.2C375.744 40.2 362.237 42.0507 350.743 50.9809C337.735 61.0876 333.152 75.5397 333.152 88.4H397.152ZM385.952 104.2H437.752V40.2H385.952V104.2ZM437.752 104.2C441.344 104.2 438.237 105.049 433.693 101.519C431.167 99.556 429.115 96.9044 427.851 93.9672C426.666 91.216 426.552 89.1147 426.552 88.4H490.552C490.552 75.5397 485.968 61.0876 472.96 50.9809C461.467 42.0507 447.959 40.2 437.752 40.2V104.2ZM426.552 88.4V112H490.552V88.4H426.552ZM458.552 80H416.952V144H458.552V80ZM448.952 112V104.6H384.952V112H448.952ZM448.952 104.6C448.952 94.0924 444.02 86.2635 439.454 81.6976C434.888 77.1317 427.059 72.2 416.552 72.2V136.2C406.244 136.2 398.615 131.368 394.199 126.952C389.783 122.537 384.952 114.908 384.952 104.6H448.952ZM416.552 72.2H407.152V136.2H416.552V72.2ZM407.152 72.2C396.644 72.2 388.815 77.1316 384.249 81.6976C379.683 86.2636 374.752 94.0925 374.752 104.6H438.752C438.752 114.907 433.92 122.536 429.504 126.952C425.088 131.368 417.459 136.2 407.152 136.2V72.2ZM374.752 104.6V119.8H438.752V104.6H374.752ZM374.752 119.8C374.752 130.307 379.683 138.136 384.249 142.702C388.815 147.269 396.644 152.2 407.152 152.2V88.2C417.459 88.2 425.088 93.0314 429.504 97.4475C433.92 101.864 438.752 109.493 438.752 119.8H374.752ZM407.152 152.2H437.752V88.2H407.152V152.2ZM437.752 152.2C441.554 152.2 438.565 153.078 434.039 149.659C431.475 147.722 429.315 145.039 427.96 141.966C426.689 139.082 426.552 136.834 426.552 136H490.552C490.552 123 485.791 108.544 472.615 98.5913C461.138 89.9218 447.749 88.2 437.752 88.2V152.2ZM426.552 136V184.2H490.552V136H426.552ZM426.552 184.2C426.552 183.366 426.689 181.118 427.96 178.234C429.315 175.161 431.475 172.478 434.039 170.541C438.565 167.122 441.554 168 437.752 168V232C447.749 232 461.138 230.278 472.615 221.609C485.791 211.656 490.552 197.2 490.552 184.2H426.552ZM613.881 239.8V271.8H645.881V239.8H613.881ZM520.281 150.8H552.281V118.8H520.281V150.8ZM510.081 150.8V118.8H478.081V150.8H510.081ZM510.081 200V232H542.081V200H510.081ZM468.481 200H436.481V232H468.481V200ZM468.481 72.2V40.2H436.481V72.2H468.481ZM510.081 72.2H542.081V40.2H510.081V72.2ZM510.081 121.4H478.081V153.4H510.081V121.4ZM520.281 121.4V153.4H552.281V121.4H520.281ZM520.281 72.2V40.2H488.281V72.2H520.281ZM561.881 72.2H593.881V40.2H561.881V72.2ZM613.881 208H645.881V176H613.881V208ZM613.881 200V232H645.881V200H613.881ZM572.281 200H540.281V232H572.281V200ZM572.281 72.2V40.2H540.281V72.2H572.281ZM613.881 72.2H645.881V40.2H613.881V72.2ZM613.881 207.8H541.081V271.8H613.881V207.8ZM541.081 207.8C537.279 207.8 540.268 206.922 544.794 210.341C547.358 212.278 549.518 214.961 550.873 218.034C552.144 220.918 552.281 223.166 552.281 224H488.281C488.281 237 493.042 251.456 506.218 261.409C517.695 270.078 531.083 271.8 541.081 271.8V207.8ZM552.281 224V150.8H488.281V224H552.281ZM520.281 118.8H510.081V182.8H520.281V118.8ZM478.081 150.8V200H542.081V150.8H478.081ZM510.081 168H468.481V232H510.081V168ZM500.481 200V72.2H436.481V200H500.481ZM468.481 104.2H510.081V40.2H468.481V104.2ZM478.081 72.2V121.4H542.081V72.2H478.081ZM510.081 153.4H520.281V89.4H510.081V153.4ZM552.281 121.4V72.2H488.281V121.4H552.281ZM520.281 104.2H561.881V40.2H520.281V104.2ZM529.881 72.2V207.6H593.881V72.2H529.881ZM529.881 207.6C529.881 218.107 534.813 225.936 539.379 230.502C543.945 235.069 551.774 240 562.281 240V176C572.589 176 580.218 180.831 584.634 185.248C589.05 189.664 593.881 197.293 593.881 207.6H529.881ZM562.281 240H613.881V176H562.281V240ZM581.881 208V239.8H645.881V208H581.881ZM613.881 168H572.281V232H613.881V168ZM604.281 200V72.2H540.281V200H604.281ZM572.281 104.2H613.881V40.2H572.281V104.2ZM581.881 72.2V200H645.881V72.2H581.881ZM630.541 112H662.541V80H630.541V112ZM620.341 112H588.341V144H620.341V112ZM620.341 80.4V48.4H588.341V80.4H620.341ZM630.541 80.4V112.4H662.541V80.4H630.541ZM630.541 72.2V40.2H598.541V72.2H630.541ZM672.141 72.2H704.141V40.2H672.141V72.2ZM672.141 80.4H640.141V112.4H672.141V80.4ZM723.941 80.4H755.941V48.4H723.941V80.4ZM723.941 112V144H755.941V112H723.941ZM672.141 112V80H640.141V112H672.141ZM682.541 120.2V88.2H650.541V120.2H682.541ZM723.941 120.2H755.941V88.2H723.941V120.2ZM703.141 168H651.341V232H703.141V168ZM651.341 168C647.538 168 650.527 167.122 655.054 170.541C657.618 172.478 659.777 175.161 661.132 178.234C662.403 181.118 662.541 183.366 662.541 184.2H598.541C598.541 197.2 603.302 211.656 616.478 221.609C627.954 230.278 641.343 232 651.341 232V168ZM662.541 184.2V112H598.541V184.2H662.541ZM630.541 80H620.341V144H630.541V80ZM652.341 112V80.4H588.341V112H652.341ZM620.341 112.4H630.541V48.4H620.341V112.4ZM662.541 80.4V72.2H598.541V80.4H662.541ZM630.541 104.2H672.141V40.2H630.541V104.2ZM640.141 72.2V80.4H704.141V72.2H640.141ZM672.141 112.4H723.941V48.4H672.141V112.4ZM691.941 80.4V112H755.941V80.4H691.941ZM723.941 80H672.141V144H723.941V80ZM640.141 112V167.8H704.141V112H640.141ZM640.141 167.8C640.141 178.307 645.072 186.136 649.638 190.702C654.204 195.269 662.033 200.2 672.541 200.2V136.2C682.848 136.2 690.477 141.031 694.893 145.448C699.309 149.864 704.141 157.493 704.141 167.8H640.141ZM672.541 200.2H682.141V136.2H672.541V200.2ZM682.141 200.2C692.648 200.2 700.477 195.268 705.043 190.702C709.609 186.136 714.541 178.307 714.541 167.8H650.541C650.541 157.493 655.372 149.864 659.788 145.448C664.204 141.032 671.833 136.2 682.141 136.2V200.2ZM714.541 167.8V120.2H650.541V167.8H714.541ZM682.541 152.2H723.941V88.2H682.541V152.2ZM691.941 120.2V184.2H755.941V120.2H691.941ZM691.941 184.2C691.941 183.366 692.078 181.118 693.349 178.234C694.704 175.161 696.864 172.478 699.428 170.541C703.954 167.122 706.943 168 703.141 168V232C713.138 232 726.527 230.278 738.004 221.609C751.18 211.656 755.941 197.2 755.941 184.2H691.941Z" fill="black" mask="url(#path-1-outside-1_5_3)"/>
</svg>
