<svg width="3466" height="322" viewBox="0 0 3466 322" fill="none" xmlns="http://www.w3.org/2000/svg">
<g clip-path="url(#clip0_9_57)">
<mask id="path-1-outside-1_9_57" maskUnits="userSpaceOnUse" x="50" y="35" width="3336" height="246" fill="black">
<rect fill="white" x="50" y="35" width="3336" height="246"/>
<path d="M183.734 189.367H133.344L126.41 213H81.1953L135.004 69.8359H183.246L237.055 213H190.766L183.734 189.367ZM174.457 158.41L158.637 106.945L142.914 158.41H174.457ZM266.676 69.8359H306.422V122.57C311.826 116.971 317.197 112.967 322.535 110.559C327.874 108.15 334.189 106.945 341.48 106.945C352.288 106.945 360.784 110.233 366.969 116.809C373.219 123.384 376.344 133.475 376.344 147.082V213H336.402V155.969C336.402 149.458 335.198 144.868 332.789 142.199C330.38 139.465 326.995 138.098 322.633 138.098C317.815 138.098 313.909 139.921 310.914 143.566C307.919 147.212 306.422 153.755 306.422 163.195V213H266.676V69.8359ZM495.84 184.289L535.293 180.578C536.921 185.266 539.199 188.618 542.129 190.637C545.059 192.655 548.965 193.664 553.848 193.664C559.186 193.664 563.32 192.525 566.25 190.246C568.529 188.553 569.668 186.438 569.668 183.898C569.668 181.034 568.171 178.82 565.176 177.258C563.027 176.151 557.331 174.784 548.086 173.156C534.284 170.747 524.681 168.534 519.277 166.516C513.939 164.432 509.414 160.949 505.703 156.066C502.057 151.184 500.234 145.617 500.234 139.367C500.234 132.531 502.22 126.639 506.191 121.691C510.163 116.743 515.632 113.065 522.598 110.656C529.564 108.182 538.906 106.945 550.625 106.945C562.995 106.945 572.109 107.889 577.969 109.777C583.893 111.665 588.809 114.595 592.715 118.566C596.686 122.538 599.974 127.909 602.578 134.68L564.883 138.391C563.906 135.07 562.279 132.629 560 131.066C556.875 128.983 553.099 127.941 548.672 127.941C544.18 127.941 540.892 128.755 538.809 130.383C536.79 131.945 535.781 133.866 535.781 136.145C535.781 138.684 537.083 140.604 539.688 141.906C542.292 143.208 547.956 144.38 556.68 145.422C569.896 146.919 579.727 149.003 586.172 151.672C592.617 154.341 597.533 158.15 600.918 163.098C604.368 168.046 606.094 173.482 606.094 179.406C606.094 185.396 604.271 191.223 600.625 196.887C597.044 202.551 591.348 207.076 583.535 210.461C575.788 213.781 565.208 215.441 551.797 215.441C532.852 215.441 519.342 212.74 511.27 207.336C503.262 201.932 498.118 194.25 495.84 184.289ZM643.137 69.8359H682.883V122.57C688.286 116.971 693.658 112.967 698.996 110.559C704.335 108.15 710.65 106.945 717.941 106.945C728.749 106.945 737.245 110.233 743.43 116.809C749.68 123.384 752.805 133.475 752.805 147.082V213H712.863V155.969C712.863 149.458 711.659 144.868 709.25 142.199C706.841 139.465 703.456 138.098 699.094 138.098C694.276 138.098 690.37 139.921 687.375 143.566C684.38 147.212 682.883 153.755 682.883 163.195V213H643.137V69.8359ZM796 69.8359H835.746V96.8867H796V69.8359ZM796 109.289H835.746V213H796V109.289ZM927.086 69.8359V109.289H948.961V138.293H927.086V175.109C927.086 179.536 927.509 182.466 928.355 183.898C929.658 186.112 931.936 187.219 935.191 187.219C938.121 187.219 942.223 186.372 947.496 184.68L950.426 212.121C940.595 214.27 931.415 215.344 922.887 215.344C912.991 215.344 905.699 214.074 901.012 211.535C896.324 208.996 892.841 205.155 890.562 200.012C888.349 194.803 887.242 186.405 887.242 174.816V138.293H872.594V109.289H887.242V90.2461L927.086 69.8359ZM986.102 173.547H1028.58V206.262C1028.58 218.306 1026.08 227.811 1021.06 234.777C1016.05 241.743 1007.49 247.896 995.379 253.234L986.102 235.852C993.654 232.336 998.829 228.82 1001.63 225.305C1004.49 221.854 1006.09 217.753 1006.41 213H986.102V173.547ZM1155.4 69.8359H1195.15V122.57C1200.55 116.971 1205.92 112.967 1211.26 110.559C1216.6 108.15 1222.92 106.945 1230.21 106.945C1241.01 106.945 1249.51 110.233 1255.7 116.809C1261.95 123.384 1265.07 133.475 1265.07 147.082V213H1225.13V155.969C1225.13 149.458 1223.92 144.868 1221.52 142.199C1219.11 139.465 1215.72 138.098 1211.36 138.098C1206.54 138.098 1202.64 139.921 1199.64 143.566C1196.65 147.212 1195.15 153.755 1195.15 163.195V213H1155.4V69.8359ZM1421.94 171.008H1342.25C1342.97 177.388 1344.69 182.141 1347.43 185.266C1351.27 189.758 1356.28 192.004 1362.46 192.004C1366.37 192.004 1370.08 191.027 1373.6 189.074C1375.75 187.837 1378.06 185.656 1380.53 182.531L1419.69 186.145C1413.7 196.561 1406.48 204.048 1398.01 208.605C1389.55 213.098 1377.41 215.344 1361.59 215.344C1347.85 215.344 1337.04 213.423 1329.16 209.582C1321.29 205.676 1314.74 199.523 1309.54 191.125C1304.39 182.661 1301.82 172.733 1301.82 161.34C1301.82 145.129 1307 132.01 1317.35 121.984C1327.76 111.958 1342.12 106.945 1360.41 106.945C1375.26 106.945 1386.98 109.191 1395.57 113.684C1404.16 118.176 1410.71 124.686 1415.2 133.215C1419.69 141.743 1421.94 152.844 1421.94 166.516V171.008ZM1381.51 151.965C1380.73 144.283 1378.64 138.781 1375.26 135.461C1371.94 132.141 1367.54 130.48 1362.07 130.48C1355.76 130.48 1350.71 132.987 1346.94 138C1344.53 141.125 1343 145.78 1342.35 151.965H1381.51ZM1458.59 109.289H1495.8V126.281C1499.38 118.924 1503.06 113.879 1506.83 111.145C1510.67 108.345 1515.39 106.945 1520.99 106.945C1526.85 106.945 1533.26 108.768 1540.23 112.414L1527.93 140.734C1523.24 138.781 1519.53 137.805 1516.79 137.805C1511.58 137.805 1507.55 139.953 1504.68 144.25C1500.58 150.305 1498.53 161.633 1498.53 178.234V213H1458.59V109.289ZM1680.2 171.008H1600.52C1601.23 177.388 1602.96 182.141 1605.69 185.266C1609.53 189.758 1614.55 192.004 1620.73 192.004C1624.64 192.004 1628.35 191.027 1631.86 189.074C1634.01 187.837 1636.32 185.656 1638.8 182.531L1677.96 186.145C1671.97 196.561 1664.74 204.048 1656.28 208.605C1647.81 213.098 1635.67 215.344 1619.85 215.344C1606.11 215.344 1595.31 213.423 1587.43 209.582C1579.55 205.676 1573.01 199.523 1567.8 191.125C1562.66 182.661 1560.09 172.733 1560.09 161.34C1560.09 145.129 1565.26 132.01 1575.61 121.984C1586.03 111.958 1600.39 106.945 1618.68 106.945C1633.52 106.945 1645.24 109.191 1653.84 113.684C1662.43 118.176 1668.97 124.686 1673.46 133.215C1677.96 141.743 1680.2 152.844 1680.2 166.516V171.008ZM1639.77 151.965C1638.99 144.283 1636.91 138.781 1633.52 135.461C1630.2 132.141 1625.81 130.48 1620.34 130.48C1614.02 130.48 1608.98 132.987 1605.2 138C1602.79 141.125 1601.26 145.78 1600.61 151.965H1639.77ZM1789.54 109.289H1828.02L1844.72 174.621L1865.81 109.289H1901.65L1923.53 174.621L1940.23 109.289H1978.41L1940.23 213H1904.88L1883.88 150.598L1863.57 213H1828.02L1789.54 109.289ZM2123.27 171.008H2043.58C2044.29 177.388 2046.02 182.141 2048.75 185.266C2052.6 189.758 2057.61 192.004 2063.79 192.004C2067.7 192.004 2071.41 191.027 2074.93 189.074C2077.07 187.837 2079.39 185.656 2081.86 182.531L2121.02 186.145C2115.03 196.561 2107.8 204.048 2099.34 208.605C2090.88 213.098 2078.73 215.344 2062.91 215.344C2049.18 215.344 2038.37 213.423 2030.49 209.582C2022.61 205.676 2016.07 199.523 2010.86 191.125C2005.72 182.661 2003.15 172.733 2003.15 161.34C2003.15 145.129 2008.32 132.01 2018.68 121.984C2029.09 111.958 2043.45 106.945 2061.74 106.945C2076.59 106.945 2088.3 109.191 2096.9 113.684C2105.49 118.176 2112.04 124.686 2116.53 133.215C2121.02 141.743 2123.27 152.844 2123.27 166.516V171.008ZM2082.84 151.965C2082.05 144.283 2079.97 138.781 2076.59 135.461C2073.27 132.141 2068.87 130.48 2063.4 130.48C2057.09 130.48 2052.04 132.987 2048.27 138C2045.86 141.125 2044.33 145.78 2043.68 151.965H2082.84ZM2316.49 109.289H2353.7V207.238L2353.8 211.828C2353.8 218.339 2352.4 224.523 2349.6 230.383C2346.86 236.307 2343.18 241.092 2338.56 244.738C2334.01 248.384 2328.18 251.021 2321.08 252.648C2314.05 254.276 2305.98 255.09 2296.86 255.09C2276.03 255.09 2261.71 251.965 2253.89 245.715C2246.15 239.465 2242.27 231.099 2242.27 220.617C2242.27 219.315 2242.34 217.557 2242.47 215.344L2281.04 219.738C2282.02 223.319 2283.52 225.793 2285.54 227.16C2288.46 229.178 2292.14 230.188 2296.57 230.188C2302.3 230.188 2306.56 228.658 2309.36 225.598C2312.23 222.538 2313.66 217.199 2313.66 209.582V193.859C2309.75 198.482 2305.85 201.835 2301.94 203.918C2295.82 207.173 2289.21 208.801 2282.12 208.801C2268.25 208.801 2257.05 202.746 2248.52 190.637C2242.47 182.043 2239.44 170.682 2239.44 156.555C2239.44 140.409 2243.35 128.104 2251.16 119.641C2258.97 111.177 2269.19 106.945 2281.82 106.945C2289.9 106.945 2296.54 108.312 2301.75 111.047C2307.02 113.781 2311.93 118.306 2316.49 124.621V109.289ZM2279.09 159.582C2279.09 167.069 2280.68 172.635 2283.88 176.281C2287.07 179.862 2291.26 181.652 2296.47 181.652C2301.42 181.652 2305.55 179.797 2308.88 176.086C2312.26 172.31 2313.95 166.646 2313.95 159.094C2313.95 151.542 2312.2 145.78 2308.68 141.809C2305.16 137.772 2300.87 135.754 2295.79 135.754C2290.71 135.754 2286.64 137.609 2283.58 141.32C2280.59 144.966 2279.09 151.053 2279.09 159.582ZM2390.84 161.438C2390.84 145.617 2396.18 132.596 2406.86 122.375C2417.53 112.089 2431.95 106.945 2450.12 106.945C2470.89 106.945 2486.58 112.967 2497.19 125.012C2505.72 134.712 2509.98 146.659 2509.98 160.852C2509.98 176.802 2504.67 189.888 2494.06 200.109C2483.52 210.266 2468.9 215.344 2450.21 215.344C2433.55 215.344 2420.07 211.112 2409.79 202.648C2397.15 192.167 2390.84 178.43 2390.84 161.438ZM2430.68 161.34C2430.68 170.585 2432.54 177.421 2436.25 181.848C2440.03 186.275 2444.75 188.488 2450.41 188.488C2456.14 188.488 2460.83 186.307 2464.47 181.945C2468.18 177.583 2470.04 170.585 2470.04 160.949C2470.04 151.965 2468.18 145.292 2464.47 140.93C2460.76 136.503 2456.17 134.289 2450.7 134.289C2444.91 134.289 2440.12 136.535 2436.35 141.027C2432.57 145.454 2430.68 152.225 2430.68 161.34ZM2668.15 142.883L2630.16 138.879C2631.59 132.238 2633.64 127.03 2636.31 123.254C2639.05 119.413 2642.95 116.092 2648.03 113.293C2651.68 111.275 2656.69 109.712 2663.07 108.605C2669.45 107.499 2676.35 106.945 2683.77 106.945C2695.69 106.945 2705.26 107.629 2712.48 108.996C2719.71 110.298 2725.73 113.065 2730.55 117.297C2733.94 120.227 2736.61 124.393 2738.56 129.797C2740.51 135.135 2741.49 140.246 2741.49 145.129V190.93C2741.49 195.812 2741.78 199.654 2742.37 202.453C2743.02 205.188 2744.39 208.703 2746.47 213H2709.16C2707.67 210.331 2706.69 208.312 2706.23 206.945C2705.78 205.513 2705.32 203.299 2704.87 200.305C2699.66 205.318 2694.48 208.898 2689.34 211.047C2682.31 213.911 2674.14 215.344 2664.83 215.344C2652.46 215.344 2643.05 212.479 2636.61 206.75C2630.23 201.021 2627.04 193.957 2627.04 185.559C2627.04 177.681 2629.35 171.203 2633.97 166.125C2638.59 161.047 2647.12 157.271 2659.55 154.797C2674.46 151.802 2684.13 149.719 2688.56 148.547C2692.99 147.31 2697.67 145.715 2702.62 143.762C2702.62 138.879 2701.61 135.461 2699.59 133.508C2697.58 131.555 2694.03 130.578 2688.95 130.578C2682.44 130.578 2677.56 131.62 2674.3 133.703C2671.76 135.331 2669.71 138.391 2668.15 142.883ZM2702.62 163.781C2697.15 165.734 2691.46 167.46 2685.53 168.957C2677.46 171.105 2672.35 173.221 2670.2 175.305C2667.99 177.453 2666.88 179.895 2666.88 182.629C2666.88 185.754 2667.95 188.326 2670.1 190.344C2672.32 192.297 2675.54 193.273 2679.77 193.273C2684.2 193.273 2688.3 192.199 2692.07 190.051C2695.92 187.902 2698.62 185.298 2700.18 182.238C2701.81 179.113 2702.62 175.077 2702.62 170.129V163.781ZM2855.48 109.289H2892.69V207.238L2892.79 211.828C2892.79 218.339 2891.39 224.523 2888.59 230.383C2885.86 236.307 2882.18 241.092 2877.55 244.738C2873 248.384 2867.17 251.021 2860.07 252.648C2853.04 254.276 2844.97 255.09 2835.86 255.09C2815.02 255.09 2800.7 251.965 2792.89 245.715C2785.14 239.465 2781.27 231.099 2781.27 220.617C2781.27 219.315 2781.33 217.557 2781.46 215.344L2820.04 219.738C2821.01 223.319 2822.51 225.793 2824.53 227.16C2827.46 229.178 2831.14 230.188 2835.56 230.188C2841.29 230.188 2845.56 228.658 2848.36 225.598C2851.22 222.538 2852.65 217.199 2852.65 209.582V193.859C2848.75 198.482 2844.84 201.835 2840.93 203.918C2834.81 207.173 2828.21 208.801 2821.11 208.801C2807.24 208.801 2796.04 202.746 2787.52 190.637C2781.46 182.043 2778.43 170.682 2778.43 156.555C2778.43 140.409 2782.34 128.104 2790.15 119.641C2797.96 111.177 2808.19 106.945 2820.82 106.945C2828.89 106.945 2835.53 108.312 2840.74 111.047C2846.01 113.781 2850.93 118.306 2855.48 124.621V109.289ZM2818.08 159.582C2818.08 167.069 2819.68 172.635 2822.87 176.281C2826.06 179.862 2830.26 181.652 2835.46 181.652C2840.41 181.652 2844.55 179.797 2847.87 176.086C2851.25 172.31 2852.95 166.646 2852.95 159.094C2852.95 151.542 2851.19 145.78 2847.67 141.809C2844.16 137.772 2839.86 135.754 2834.78 135.754C2829.7 135.754 2825.63 137.609 2822.57 141.32C2819.58 144.966 2818.08 151.053 2818.08 159.582ZM2970.95 142.883L2932.96 138.879C2934.39 132.238 2936.44 127.03 2939.11 123.254C2941.84 119.413 2945.75 116.092 2950.83 113.293C2954.47 111.275 2959.49 109.712 2965.87 108.605C2972.25 107.499 2979.15 106.945 2986.57 106.945C2998.48 106.945 3008.05 107.629 3015.28 108.996C3022.51 110.298 3028.53 113.065 3033.35 117.297C3036.73 120.227 3039.4 124.393 3041.36 129.797C3043.31 135.135 3044.29 140.246 3044.29 145.129V190.93C3044.29 195.812 3044.58 199.654 3045.16 202.453C3045.82 205.188 3047.18 208.703 3049.27 213H3011.96C3010.46 210.331 3009.49 208.312 3009.03 206.945C3008.58 205.513 3008.12 203.299 3007.66 200.305C3002.46 205.318 2997.28 208.898 2992.14 211.047C2985.11 213.911 2976.93 215.344 2967.62 215.344C2955.26 215.344 2945.85 212.479 2939.4 206.75C2933.02 201.021 2929.83 193.957 2929.83 185.559C2929.83 177.681 2932.14 171.203 2936.77 166.125C2941.39 161.047 2949.92 157.271 2962.35 154.797C2977.26 151.802 2986.93 149.719 2991.36 148.547C2995.78 147.31 3000.47 145.715 3005.42 143.762C3005.42 138.879 3004.41 135.461 3002.39 133.508C3000.37 131.555 2996.82 130.578 2991.75 130.578C2985.24 130.578 2980.35 131.62 2977.1 133.703C2974.56 135.331 2972.51 138.391 2970.95 142.883ZM3005.42 163.781C2999.95 165.734 2994.25 167.46 2988.33 168.957C2980.26 171.105 2975.14 173.221 2973 175.305C2970.78 177.453 2969.68 179.895 2969.68 182.629C2969.68 185.754 2970.75 188.326 2972.9 190.344C2975.11 192.297 2978.33 193.273 2982.57 193.273C2986.99 193.273 2991.1 192.199 2994.87 190.051C2998.71 187.902 3001.41 185.298 3002.98 182.238C3004.6 179.113 3005.42 175.077 3005.42 170.129V163.781ZM3087.58 69.8359H3127.32V96.8867H3087.58V69.8359ZM3087.58 109.289H3127.32V213H3087.58V109.289ZM3170.71 109.289H3207.73V126.184C3213.26 119.283 3218.86 114.367 3224.52 111.438C3230.19 108.443 3237.09 106.945 3245.23 106.945C3256.23 106.945 3264.82 110.233 3271.01 116.809C3277.26 123.319 3280.38 133.41 3280.38 147.082V213H3240.44V155.969C3240.44 149.458 3239.24 144.868 3236.83 142.199C3234.42 139.465 3231.03 138.098 3226.67 138.098C3221.85 138.098 3217.95 139.921 3214.95 143.566C3211.96 147.212 3210.46 153.755 3210.46 163.195V213H3170.71V109.289ZM3322.21 173.156H3364.69V213H3322.21V173.156Z"/>
</mask>
<path d="M183.734 189.367H133.344L126.41 213H81.1953L135.004 69.8359H183.246L237.055 213H190.766L183.734 189.367ZM174.457 158.41L158.637 106.945L142.914 158.41H174.457ZM266.676 69.8359H306.422V122.57C311.826 116.971 317.197 112.967 322.535 110.559C327.874 108.15 334.189 106.945 341.48 106.945C352.288 106.945 360.784 110.233 366.969 116.809C373.219 123.384 376.344 133.475 376.344 147.082V213H336.402V155.969C336.402 149.458 335.198 144.868 332.789 142.199C330.38 139.465 326.995 138.098 322.633 138.098C317.815 138.098 313.909 139.921 310.914 143.566C307.919 147.212 306.422 153.755 306.422 163.195V213H266.676V69.8359ZM495.84 184.289L535.293 180.578C536.921 185.266 539.199 188.618 542.129 190.637C545.059 192.655 548.965 193.664 553.848 193.664C559.186 193.664 563.32 192.525 566.25 190.246C568.529 188.553 569.668 186.438 569.668 183.898C569.668 181.034 568.171 178.82 565.176 177.258C563.027 176.151 557.331 174.784 548.086 173.156C534.284 170.747 524.681 168.534 519.277 166.516C513.939 164.432 509.414 160.949 505.703 156.066C502.057 151.184 500.234 145.617 500.234 139.367C500.234 132.531 502.22 126.639 506.191 121.691C510.163 116.743 515.632 113.065 522.598 110.656C529.564 108.182 538.906 106.945 550.625 106.945C562.995 106.945 572.109 107.889 577.969 109.777C583.893 111.665 588.809 114.595 592.715 118.566C596.686 122.538 599.974 127.909 602.578 134.68L564.883 138.391C563.906 135.07 562.279 132.629 560 131.066C556.875 128.983 553.099 127.941 548.672 127.941C544.18 127.941 540.892 128.755 538.809 130.383C536.79 131.945 535.781 133.866 535.781 136.145C535.781 138.684 537.083 140.604 539.688 141.906C542.292 143.208 547.956 144.38 556.68 145.422C569.896 146.919 579.727 149.003 586.172 151.672C592.617 154.341 597.533 158.15 600.918 163.098C604.368 168.046 606.094 173.482 606.094 179.406C606.094 185.396 604.271 191.223 600.625 196.887C597.044 202.551 591.348 207.076 583.535 210.461C575.788 213.781 565.208 215.441 551.797 215.441C532.852 215.441 519.342 212.74 511.27 207.336C503.262 201.932 498.118 194.25 495.84 184.289ZM643.137 69.8359H682.883V122.57C688.286 116.971 693.658 112.967 698.996 110.559C704.335 108.15 710.65 106.945 717.941 106.945C728.749 106.945 737.245 110.233 743.43 116.809C749.68 123.384 752.805 133.475 752.805 147.082V213H712.863V155.969C712.863 149.458 711.659 144.868 709.25 142.199C706.841 139.465 703.456 138.098 699.094 138.098C694.276 138.098 690.37 139.921 687.375 143.566C684.38 147.212 682.883 153.755 682.883 163.195V213H643.137V69.8359ZM796 69.8359H835.746V96.8867H796V69.8359ZM796 109.289H835.746V213H796V109.289ZM927.086 69.8359V109.289H948.961V138.293H927.086V175.109C927.086 179.536 927.509 182.466 928.355 183.898C929.658 186.112 931.936 187.219 935.191 187.219C938.121 187.219 942.223 186.372 947.496 184.68L950.426 212.121C940.595 214.27 931.415 215.344 922.887 215.344C912.991 215.344 905.699 214.074 901.012 211.535C896.324 208.996 892.841 205.155 890.562 200.012C888.349 194.803 887.242 186.405 887.242 174.816V138.293H872.594V109.289H887.242V90.2461L927.086 69.8359ZM986.102 173.547H1028.58V206.262C1028.58 218.306 1026.08 227.811 1021.06 234.777C1016.05 241.743 1007.49 247.896 995.379 253.234L986.102 235.852C993.654 232.336 998.829 228.82 1001.63 225.305C1004.49 221.854 1006.09 217.753 1006.41 213H986.102V173.547ZM1155.4 69.8359H1195.15V122.57C1200.55 116.971 1205.92 112.967 1211.26 110.559C1216.6 108.15 1222.92 106.945 1230.21 106.945C1241.01 106.945 1249.51 110.233 1255.7 116.809C1261.95 123.384 1265.07 133.475 1265.07 147.082V213H1225.13V155.969C1225.13 149.458 1223.92 144.868 1221.52 142.199C1219.11 139.465 1215.72 138.098 1211.36 138.098C1206.54 138.098 1202.64 139.921 1199.64 143.566C1196.65 147.212 1195.15 153.755 1195.15 163.195V213H1155.4V69.8359ZM1421.94 171.008H1342.25C1342.97 177.388 1344.69 182.141 1347.43 185.266C1351.27 189.758 1356.28 192.004 1362.46 192.004C1366.37 192.004 1370.08 191.027 1373.6 189.074C1375.75 187.837 1378.06 185.656 1380.53 182.531L1419.69 186.145C1413.7 196.561 1406.48 204.048 1398.01 208.605C1389.55 213.098 1377.41 215.344 1361.59 215.344C1347.85 215.344 1337.04 213.423 1329.16 209.582C1321.29 205.676 1314.74 199.523 1309.54 191.125C1304.39 182.661 1301.82 172.733 1301.82 161.34C1301.82 145.129 1307 132.01 1317.35 121.984C1327.76 111.958 1342.12 106.945 1360.41 106.945C1375.26 106.945 1386.98 109.191 1395.57 113.684C1404.16 118.176 1410.71 124.686 1415.2 133.215C1419.69 141.743 1421.94 152.844 1421.94 166.516V171.008ZM1381.51 151.965C1380.73 144.283 1378.64 138.781 1375.26 135.461C1371.94 132.141 1367.54 130.48 1362.07 130.48C1355.76 130.48 1350.71 132.987 1346.94 138C1344.53 141.125 1343 145.78 1342.35 151.965H1381.51ZM1458.59 109.289H1495.8V126.281C1499.38 118.924 1503.06 113.879 1506.83 111.145C1510.67 108.345 1515.39 106.945 1520.99 106.945C1526.85 106.945 1533.26 108.768 1540.23 112.414L1527.93 140.734C1523.24 138.781 1519.53 137.805 1516.79 137.805C1511.58 137.805 1507.55 139.953 1504.68 144.25C1500.58 150.305 1498.53 161.633 1498.53 178.234V213H1458.59V109.289ZM1680.2 171.008H1600.52C1601.23 177.388 1602.96 182.141 1605.69 185.266C1609.53 189.758 1614.55 192.004 1620.73 192.004C1624.64 192.004 1628.35 191.027 1631.86 189.074C1634.01 187.837 1636.32 185.656 1638.8 182.531L1677.96 186.145C1671.97 196.561 1664.74 204.048 1656.28 208.605C1647.81 213.098 1635.67 215.344 1619.85 215.344C1606.11 215.344 1595.31 213.423 1587.43 209.582C1579.55 205.676 1573.01 199.523 1567.8 191.125C1562.66 182.661 1560.09 172.733 1560.09 161.34C1560.09 145.129 1565.26 132.01 1575.61 121.984C1586.03 111.958 1600.39 106.945 1618.68 106.945C1633.52 106.945 1645.24 109.191 1653.84 113.684C1662.43 118.176 1668.97 124.686 1673.46 133.215C1677.96 141.743 1680.2 152.844 1680.2 166.516V171.008ZM1639.77 151.965C1638.99 144.283 1636.91 138.781 1633.52 135.461C1630.2 132.141 1625.81 130.48 1620.34 130.48C1614.02 130.48 1608.98 132.987 1605.2 138C1602.79 141.125 1601.26 145.78 1600.61 151.965H1639.77ZM1789.54 109.289H1828.02L1844.72 174.621L1865.81 109.289H1901.65L1923.53 174.621L1940.23 109.289H1978.41L1940.23 213H1904.88L1883.88 150.598L1863.57 213H1828.02L1789.54 109.289ZM2123.27 171.008H2043.58C2044.29 177.388 2046.02 182.141 2048.75 185.266C2052.6 189.758 2057.61 192.004 2063.79 192.004C2067.7 192.004 2071.41 191.027 2074.93 189.074C2077.07 187.837 2079.39 185.656 2081.86 182.531L2121.02 186.145C2115.03 196.561 2107.8 204.048 2099.34 208.605C2090.88 213.098 2078.73 215.344 2062.91 215.344C2049.18 215.344 2038.37 213.423 2030.49 209.582C2022.61 205.676 2016.07 199.523 2010.86 191.125C2005.72 182.661 2003.15 172.733 2003.15 161.34C2003.15 145.129 2008.32 132.01 2018.68 121.984C2029.09 111.958 2043.45 106.945 2061.74 106.945C2076.59 106.945 2088.3 109.191 2096.9 113.684C2105.49 118.176 2112.04 124.686 2116.53 133.215C2121.02 141.743 2123.27 152.844 2123.27 166.516V171.008ZM2082.84 151.965C2082.05 144.283 2079.97 138.781 2076.59 135.461C2073.27 132.141 2068.87 130.48 2063.4 130.48C2057.09 130.48 2052.04 132.987 2048.27 138C2045.86 141.125 2044.33 145.78 2043.68 151.965H2082.84ZM2316.49 109.289H2353.7V207.238L2353.8 211.828C2353.8 218.339 2352.4 224.523 2349.6 230.383C2346.86 236.307 2343.18 241.092 2338.56 244.738C2334.01 248.384 2328.18 251.021 2321.08 252.648C2314.05 254.276 2305.98 255.09 2296.86 255.09C2276.03 255.09 2261.71 251.965 2253.89 245.715C2246.15 239.465 2242.27 231.099 2242.27 220.617C2242.27 219.315 2242.34 217.557 2242.47 215.344L2281.04 219.738C2282.02 223.319 2283.52 225.793 2285.54 227.16C2288.46 229.178 2292.14 230.188 2296.57 230.188C2302.3 230.188 2306.56 228.658 2309.36 225.598C2312.23 222.538 2313.66 217.199 2313.66 209.582V193.859C2309.75 198.482 2305.85 201.835 2301.94 203.918C2295.82 207.173 2289.21 208.801 2282.12 208.801C2268.25 208.801 2257.05 202.746 2248.52 190.637C2242.47 182.043 2239.44 170.682 2239.44 156.555C2239.44 140.409 2243.35 128.104 2251.16 119.641C2258.97 111.177 2269.19 106.945 2281.82 106.945C2289.9 106.945 2296.54 108.312 2301.75 111.047C2307.02 113.781 2311.93 118.306 2316.49 124.621V109.289ZM2279.09 159.582C2279.09 167.069 2280.68 172.635 2283.88 176.281C2287.07 179.862 2291.26 181.652 2296.47 181.652C2301.42 181.652 2305.55 179.797 2308.88 176.086C2312.26 172.31 2313.95 166.646 2313.95 159.094C2313.95 151.542 2312.2 145.78 2308.68 141.809C2305.16 137.772 2300.87 135.754 2295.79 135.754C2290.71 135.754 2286.64 137.609 2283.58 141.32C2280.59 144.966 2279.09 151.053 2279.09 159.582ZM2390.84 161.438C2390.84 145.617 2396.18 132.596 2406.86 122.375C2417.53 112.089 2431.95 106.945 2450.12 106.945C2470.89 106.945 2486.58 112.967 2497.19 125.012C2505.72 134.712 2509.98 146.659 2509.98 160.852C2509.98 176.802 2504.67 189.888 2494.06 200.109C2483.52 210.266 2468.9 215.344 2450.21 215.344C2433.55 215.344 2420.07 211.112 2409.79 202.648C2397.15 192.167 2390.84 178.43 2390.84 161.438ZM2430.68 161.34C2430.68 170.585 2432.54 177.421 2436.25 181.848C2440.03 186.275 2444.75 188.488 2450.41 188.488C2456.14 188.488 2460.83 186.307 2464.47 181.945C2468.18 177.583 2470.04 170.585 2470.04 160.949C2470.04 151.965 2468.18 145.292 2464.47 140.93C2460.76 136.503 2456.17 134.289 2450.7 134.289C2444.91 134.289 2440.12 136.535 2436.35 141.027C2432.57 145.454 2430.68 152.225 2430.68 161.34ZM2668.15 142.883L2630.16 138.879C2631.59 132.238 2633.64 127.03 2636.31 123.254C2639.05 119.413 2642.95 116.092 2648.03 113.293C2651.68 111.275 2656.69 109.712 2663.07 108.605C2669.45 107.499 2676.35 106.945 2683.77 106.945C2695.69 106.945 2705.26 107.629 2712.48 108.996C2719.71 110.298 2725.73 113.065 2730.55 117.297C2733.94 120.227 2736.61 124.393 2738.56 129.797C2740.51 135.135 2741.49 140.246 2741.49 145.129V190.93C2741.49 195.812 2741.78 199.654 2742.37 202.453C2743.02 205.188 2744.39 208.703 2746.47 213H2709.16C2707.67 210.331 2706.69 208.312 2706.23 206.945C2705.78 205.513 2705.32 203.299 2704.87 200.305C2699.66 205.318 2694.48 208.898 2689.34 211.047C2682.31 213.911 2674.14 215.344 2664.83 215.344C2652.46 215.344 2643.05 212.479 2636.61 206.75C2630.23 201.021 2627.04 193.957 2627.04 185.559C2627.04 177.681 2629.35 171.203 2633.97 166.125C2638.59 161.047 2647.12 157.271 2659.55 154.797C2674.46 151.802 2684.13 149.719 2688.56 148.547C2692.99 147.31 2697.67 145.715 2702.62 143.762C2702.62 138.879 2701.61 135.461 2699.59 133.508C2697.58 131.555 2694.03 130.578 2688.95 130.578C2682.44 130.578 2677.56 131.62 2674.3 133.703C2671.76 135.331 2669.71 138.391 2668.15 142.883ZM2702.62 163.781C2697.15 165.734 2691.46 167.46 2685.53 168.957C2677.46 171.105 2672.35 173.221 2670.2 175.305C2667.99 177.453 2666.88 179.895 2666.88 182.629C2666.88 185.754 2667.95 188.326 2670.1 190.344C2672.32 192.297 2675.54 193.273 2679.77 193.273C2684.2 193.273 2688.3 192.199 2692.07 190.051C2695.92 187.902 2698.62 185.298 2700.18 182.238C2701.81 179.113 2702.62 175.077 2702.62 170.129V163.781ZM2855.48 109.289H2892.69V207.238L2892.79 211.828C2892.79 218.339 2891.39 224.523 2888.59 230.383C2885.86 236.307 2882.18 241.092 2877.55 244.738C2873 248.384 2867.17 251.021 2860.07 252.648C2853.04 254.276 2844.97 255.09 2835.86 255.09C2815.02 255.09 2800.7 251.965 2792.89 245.715C2785.14 239.465 2781.27 231.099 2781.27 220.617C2781.27 219.315 2781.33 217.557 2781.46 215.344L2820.04 219.738C2821.01 223.319 2822.51 225.793 2824.53 227.16C2827.46 229.178 2831.14 230.188 2835.56 230.188C2841.29 230.188 2845.56 228.658 2848.36 225.598C2851.22 222.538 2852.65 217.199 2852.65 209.582V193.859C2848.75 198.482 2844.84 201.835 2840.93 203.918C2834.81 207.173 2828.21 208.801 2821.11 208.801C2807.24 208.801 2796.04 202.746 2787.52 190.637C2781.46 182.043 2778.43 170.682 2778.43 156.555C2778.43 140.409 2782.34 128.104 2790.15 119.641C2797.96 111.177 2808.19 106.945 2820.82 106.945C2828.89 106.945 2835.53 108.312 2840.74 111.047C2846.01 113.781 2850.93 118.306 2855.48 124.621V109.289ZM2818.08 159.582C2818.08 167.069 2819.68 172.635 2822.87 176.281C2826.06 179.862 2830.26 181.652 2835.46 181.652C2840.41 181.652 2844.55 179.797 2847.87 176.086C2851.25 172.31 2852.95 166.646 2852.95 159.094C2852.95 151.542 2851.19 145.78 2847.67 141.809C2844.16 137.772 2839.86 135.754 2834.78 135.754C2829.7 135.754 2825.63 137.609 2822.57 141.32C2819.58 144.966 2818.08 151.053 2818.08 159.582ZM2970.95 142.883L2932.96 138.879C2934.39 132.238 2936.44 127.03 2939.11 123.254C2941.84 119.413 2945.75 116.092 2950.83 113.293C2954.47 111.275 2959.49 109.712 2965.87 108.605C2972.25 107.499 2979.15 106.945 2986.57 106.945C2998.48 106.945 3008.05 107.629 3015.28 108.996C3022.51 110.298 3028.53 113.065 3033.35 117.297C3036.73 120.227 3039.4 124.393 3041.36 129.797C3043.31 135.135 3044.29 140.246 3044.29 145.129V190.93C3044.29 195.812 3044.58 199.654 3045.16 202.453C3045.82 205.188 3047.18 208.703 3049.27 213H3011.96C3010.46 210.331 3009.49 208.312 3009.03 206.945C3008.58 205.513 3008.12 203.299 3007.66 200.305C3002.46 205.318 2997.28 208.898 2992.14 211.047C2985.11 213.911 2976.93 215.344 2967.62 215.344C2955.26 215.344 2945.85 212.479 2939.4 206.75C2933.02 201.021 2929.83 193.957 2929.83 185.559C2929.83 177.681 2932.14 171.203 2936.77 166.125C2941.39 161.047 2949.92 157.271 2962.35 154.797C2977.26 151.802 2986.93 149.719 2991.36 148.547C2995.78 147.31 3000.47 145.715 3005.42 143.762C3005.42 138.879 3004.41 135.461 3002.39 133.508C3000.37 131.555 2996.82 130.578 2991.75 130.578C2985.24 130.578 2980.35 131.62 2977.1 133.703C2974.56 135.331 2972.51 138.391 2970.95 142.883ZM3005.42 163.781C2999.95 165.734 2994.25 167.46 2988.33 168.957C2980.26 171.105 2975.14 173.221 2973 175.305C2970.78 177.453 2969.68 179.895 2969.68 182.629C2969.68 185.754 2970.75 188.326 2972.9 190.344C2975.11 192.297 2978.33 193.273 2982.57 193.273C2986.99 193.273 2991.1 192.199 2994.87 190.051C2998.71 187.902 3001.41 185.298 3002.98 182.238C3004.6 179.113 3005.42 175.077 3005.42 170.129V163.781ZM3087.58 69.8359H3127.32V96.8867H3087.58V69.8359ZM3087.58 109.289H3127.32V213H3087.58V109.289ZM3170.71 109.289H3207.73V126.184C3213.26 119.283 3218.86 114.367 3224.52 111.438C3230.19 108.443 3237.09 106.945 3245.23 106.945C3256.23 106.945 3264.82 110.233 3271.01 116.809C3277.26 123.319 3280.38 133.41 3280.38 147.082V213H3240.44V155.969C3240.44 149.458 3239.24 144.868 3236.83 142.199C3234.42 139.465 3231.03 138.098 3226.67 138.098C3221.85 138.098 3217.95 139.921 3214.95 143.566C3211.96 147.212 3210.46 153.755 3210.46 163.195V213H3170.71V109.289ZM3322.21 173.156H3364.69V213H3322.21V173.156Z" fill="white"/>
<path d="M183.734 189.367L203.862 183.379L199.396 168.367H183.734V189.367ZM133.344 189.367V168.367H117.62L113.193 183.455L133.344 189.367ZM126.41 213V234H142.134L146.561 218.912L126.41 213ZM81.1953 213L61.5379 205.612L50.8681 234H81.1953V213ZM135.004 69.8359V48.8359H120.463L115.347 62.4477L135.004 69.8359ZM183.246 69.8359L202.903 62.4477L197.787 48.8359H183.246V69.8359ZM237.055 213V234H267.382L256.712 205.612L237.055 213ZM190.766 213L170.638 218.989L175.104 234H190.766V213ZM174.457 158.41V179.41H202.882L194.53 152.24L174.457 158.41ZM158.637 106.945L178.71 100.775L158.575 35.2734L138.553 100.81L158.637 106.945ZM142.914 158.41L122.83 152.275L114.54 179.41H142.914V158.41ZM183.734 168.367H133.344V210.367H183.734V168.367ZM113.193 183.455L106.26 207.088L146.561 218.912L153.494 195.279L113.193 183.455ZM126.41 192H81.1953V234H126.41V192ZM100.853 220.388L154.661 77.2242L115.347 62.4477L61.5379 205.612L100.853 220.388ZM135.004 90.8359H183.246V48.8359H135.004V90.8359ZM163.589 77.2242L217.397 220.388L256.712 205.612L202.903 62.4477L163.589 77.2242ZM237.055 192H190.766V234H237.055V192ZM210.894 207.011L203.862 183.379L163.606 195.356L170.638 218.989L210.894 207.011ZM194.53 152.24L178.71 100.775L138.564 113.116L154.384 164.581L194.53 152.24ZM138.553 100.81L122.83 152.275L162.998 164.546L178.72 113.081L138.553 100.81ZM142.914 179.41H174.457V137.41H142.914V179.41ZM266.676 69.8359V48.8359H245.676V69.8359H266.676ZM306.422 69.8359H327.422V48.8359H306.422V69.8359ZM306.422 122.57H285.422V174.569L321.532 137.154L306.422 122.57ZM366.969 116.809L351.672 131.197L351.71 131.237L351.748 131.276L366.969 116.809ZM376.344 213V234H397.344V213H376.344ZM336.402 213H315.402V234H336.402V213ZM332.789 142.199L317.032 156.081L317.115 156.175L317.199 156.268L332.789 142.199ZM306.422 213V234H327.422V213H306.422ZM266.676 213H245.676V234H266.676V213ZM266.676 90.8359H306.422V48.8359H266.676V90.8359ZM285.422 69.8359V122.57H327.422V69.8359H285.422ZM321.532 137.154C325.661 132.876 328.915 130.719 331.172 129.7L313.898 91.417C305.478 95.2162 297.99 101.067 291.311 107.987L321.532 137.154ZM331.172 129.7C333.217 128.778 336.458 127.945 341.48 127.945V85.9453C331.92 85.9453 322.531 87.5218 313.898 91.417L331.172 129.7ZM341.48 127.945C347.731 127.945 350.23 129.663 351.672 131.197L382.265 102.421C371.338 90.8031 356.845 85.9453 341.48 85.9453V127.945ZM351.748 131.276C352.799 132.382 355.344 136.22 355.344 147.082H397.344C397.344 130.73 393.639 114.386 382.19 102.341L351.748 131.276ZM355.344 147.082V213H397.344V147.082H355.344ZM376.344 192H336.402V234H376.344V192ZM357.402 213V155.969H315.402V213H357.402ZM357.402 155.969C357.402 148.043 356.167 136.76 348.379 128.13L317.199 156.268C316.371 155.351 315.863 154.507 315.57 153.919C315.284 153.343 315.191 152.988 315.187 152.974C315.183 152.958 315.242 153.183 315.299 153.711C315.356 154.235 315.402 154.977 315.402 155.969H357.402ZM348.547 128.318C341.366 120.167 331.727 117.098 322.633 117.098V159.098C322.632 159.098 321.821 159.097 320.58 158.595C319.248 158.057 317.992 157.171 317.032 156.081L348.547 128.318ZM322.633 117.098C311.684 117.098 301.767 121.617 294.687 130.237L327.141 156.896C326.838 157.266 326.122 157.957 324.97 158.495C323.832 159.026 322.929 159.098 322.633 159.098V117.098ZM294.687 130.237C286.74 139.912 285.422 153.006 285.422 163.195H327.422C327.422 159.469 327.728 157.148 328.016 155.893C328.325 154.541 328.393 155.372 327.141 156.896L294.687 130.237ZM285.422 163.195V213H327.422V163.195H285.422ZM306.422 192H266.676V234H306.422V192ZM287.676 213V69.8359H245.676V213H287.676ZM495.84 184.289L493.873 163.381L470.028 165.624L475.369 188.972L495.84 184.289ZM535.293 180.578L555.131 173.69L549.728 158.128L533.326 159.67L535.293 180.578ZM566.25 190.246L553.727 173.388L553.541 173.527L553.357 173.67L566.25 190.246ZM565.176 177.258L574.89 158.64L574.841 158.614L574.793 158.589L565.176 177.258ZM548.086 173.156L551.727 152.474L551.712 152.472L551.696 152.469L548.086 173.156ZM519.277 166.516L511.643 186.079L511.786 186.135L511.93 186.188L519.277 166.516ZM505.703 156.066L488.876 168.63L488.93 168.702L488.984 168.773L505.703 156.066ZM522.598 110.656L529.461 130.503L529.543 130.475L529.626 130.445L522.598 110.656ZM577.969 109.777L571.528 129.765L571.56 129.776L571.592 129.786L577.969 109.777ZM592.715 118.566L577.743 133.292L577.804 133.354L577.866 133.416L592.715 118.566ZM602.578 134.68L604.636 155.579L632.077 152.877L622.178 127.141L602.578 134.68ZM564.883 138.391L544.736 144.316L549.641 160.993L566.94 159.29L564.883 138.391ZM560 131.066L571.876 113.747L571.763 113.669L571.649 113.593L560 131.066ZM538.809 130.383L551.664 146.988L551.701 146.96L551.737 146.931L538.809 130.383ZM539.688 141.906L549.079 123.123L539.688 141.906ZM556.68 145.422L554.19 166.274L554.253 166.281L554.316 166.288L556.68 145.422ZM600.918 163.098L583.587 174.956L583.639 175.033L583.693 175.11L600.918 163.098ZM600.625 196.887L582.967 185.521L582.92 185.593L582.875 185.665L600.625 196.887ZM583.535 210.461L591.807 229.763L591.846 229.746L591.885 229.73L583.535 210.461ZM511.27 207.336L499.523 224.743L499.556 224.765L499.588 224.787L511.27 207.336ZM497.806 205.197L537.26 201.486L533.326 159.67L493.873 163.381L497.806 205.197ZM515.455 187.466C517.985 194.752 522.403 202.548 530.215 207.93L554.042 173.343C554.998 174.001 555.47 174.626 555.591 174.805C555.688 174.946 555.47 174.667 555.131 173.69L515.455 187.466ZM530.215 207.93C537.735 213.11 546.253 214.664 553.848 214.664V172.664C552.821 172.664 552.431 172.555 552.508 172.575C552.621 172.604 553.23 172.783 554.042 173.343L530.215 207.93ZM553.848 214.664C561.87 214.664 571.217 212.987 579.143 206.822L553.357 173.67C554.377 172.877 555.193 172.614 555.373 172.564C555.503 172.528 555.071 172.664 553.848 172.664V214.664ZM578.773 207.104C585.661 201.987 590.668 193.934 590.668 183.898H548.668C548.668 181.896 549.152 179.609 550.324 177.434C551.454 175.334 552.839 174.048 553.727 173.388L578.773 207.104ZM590.668 183.898C590.668 171.647 583.316 163.036 574.89 158.64L555.462 195.876C554.669 195.462 552.803 194.299 551.151 191.856C549.378 189.236 548.668 186.344 548.668 183.898H590.668ZM574.793 158.589C571.227 156.752 567.018 155.66 564.193 154.982C560.757 154.158 556.554 153.324 551.727 152.474L544.445 193.838C548.863 194.616 552.131 195.28 554.391 195.822C555.521 196.094 556.219 196.292 556.583 196.407C557.098 196.569 556.563 196.444 555.559 195.926L574.793 158.589ZM551.696 152.469C537.878 150.057 530.013 148.108 526.625 146.843L511.93 186.188C519.349 188.959 530.69 191.438 544.475 193.844L551.696 152.469ZM526.912 146.952C525.429 146.374 523.965 145.389 522.423 143.36L488.984 168.773C494.863 176.509 502.448 182.491 511.643 186.079L526.912 146.952ZM522.53 143.502C521.667 142.347 521.234 141.214 521.234 139.367H479.234C479.234 150.021 482.447 160.02 488.876 168.63L522.53 143.502ZM521.234 139.367C521.234 136.915 521.828 135.759 522.569 134.836L489.814 108.547C482.612 117.52 479.234 128.148 479.234 139.367H521.234ZM522.569 134.836C523.684 133.446 525.618 131.832 529.461 130.503L515.735 90.8093C505.645 94.2981 496.641 100.041 489.814 108.547L522.569 134.836ZM529.626 130.445C533.41 129.101 540.068 127.945 550.625 127.945V85.9453C537.744 85.9453 525.718 87.2632 515.57 90.8671L529.626 130.445ZM550.625 127.945C562.55 127.945 568.932 128.929 571.528 129.765L584.409 89.7894C575.287 86.8499 563.439 85.9453 550.625 85.9453V127.945ZM571.592 129.786C574.649 130.76 576.498 132.026 577.743 133.292L607.686 103.84C601.119 97.1641 593.138 92.5708 584.345 89.7688L571.592 129.786ZM577.866 133.416C579.248 134.798 581.133 137.423 582.978 142.218L622.178 127.141C618.814 118.395 614.125 110.278 607.564 103.717L577.866 133.416ZM600.521 113.781L562.825 117.492L566.94 159.29L604.636 155.579L600.521 113.781ZM585.029 132.465C583.042 125.709 579.063 118.675 571.876 113.747L548.124 148.386C546.918 147.559 546.036 146.587 545.457 145.718C544.907 144.894 544.741 144.333 544.736 144.316L585.029 132.465ZM571.649 113.593C564.494 108.824 556.489 106.941 548.672 106.941V148.941C549.239 148.941 549.389 149.008 549.24 148.967C549.166 148.946 549.038 148.904 548.872 148.829C548.704 148.754 548.527 148.656 548.351 148.539L571.649 113.593ZM548.672 106.941C542.465 106.941 533.461 107.912 525.88 113.834L551.737 146.931C549.894 148.372 548.331 148.826 547.883 148.937C547.44 149.046 547.61 148.941 548.672 148.941V106.941ZM525.953 113.778C519.502 118.772 514.781 126.527 514.781 136.145H556.781C556.781 138.232 556.287 140.558 555.128 142.763C554.008 144.895 552.619 146.249 551.664 146.988L525.953 113.778ZM514.781 136.145C514.781 141.202 516.145 146.508 519.376 151.274C522.499 155.88 526.582 158.832 530.296 160.689L549.079 123.123C550.189 123.678 552.319 125.019 554.14 127.705C556.068 130.55 556.781 133.626 556.781 136.145H514.781ZM530.296 160.689C534.134 162.608 538.408 163.659 541.634 164.326C545.266 165.078 549.505 165.714 554.19 166.274L559.169 124.57C555.13 124.088 552.175 123.618 550.143 123.197C549.136 122.989 548.529 122.828 548.234 122.74C547.864 122.629 548.265 122.716 549.079 123.123L530.296 160.689ZM554.316 166.288C567.007 167.726 574.472 169.556 578.137 171.074L594.207 132.27C584.981 128.449 572.784 126.112 559.044 124.555L554.316 166.288ZM578.137 171.074C581.447 172.445 582.859 173.893 583.587 174.956L618.249 151.239C612.206 142.407 603.788 136.238 594.207 132.27L578.137 171.074ZM583.693 175.11C584.734 176.603 585.094 177.86 585.094 179.406H627.094C627.094 169.103 624.003 159.489 618.143 151.085L583.693 175.11ZM585.094 179.406C585.094 180.876 584.711 182.81 582.967 185.521L618.283 208.253C623.83 199.635 627.094 189.915 627.094 179.406H585.094ZM582.875 185.665C582.089 186.908 580.173 189.031 575.185 191.192L591.885 229.73C602.522 225.12 612 218.193 618.375 208.108L582.875 185.665ZM575.263 191.159C571.218 192.892 563.854 194.441 551.797 194.441V236.441C566.563 236.441 580.357 234.67 591.807 229.763L575.263 191.159ZM551.797 194.441C533.703 194.441 525.58 191.644 522.951 189.885L499.588 224.787C513.105 233.835 532 236.441 551.797 236.441V194.441ZM523.016 189.928C519.698 187.69 517.477 184.702 516.311 179.606L475.369 188.972C478.76 203.798 486.825 216.175 499.523 224.743L523.016 189.928ZM643.137 69.8359V48.8359H622.137V69.8359H643.137ZM682.883 69.8359H703.883V48.8359H682.883V69.8359ZM682.883 122.57H661.883V174.569L697.993 137.154L682.883 122.57ZM743.43 116.809L728.133 131.197L728.171 131.237L728.208 131.276L743.43 116.809ZM752.805 213V234H773.805V213H752.805ZM712.863 213H691.863V234H712.863V213ZM709.25 142.199L693.492 156.081L693.576 156.175L693.66 156.268L709.25 142.199ZM682.883 213V234H703.883V213H682.883ZM643.137 213H622.137V234H643.137V213ZM643.137 90.8359H682.883V48.8359H643.137V90.8359ZM661.883 69.8359V122.57H703.883V69.8359H661.883ZM697.993 137.154C702.122 132.876 705.376 130.719 707.633 129.7L690.359 91.417C681.939 95.2162 674.451 101.067 667.772 107.987L697.993 137.154ZM707.633 129.7C709.678 128.778 712.919 127.945 717.941 127.945V85.9453C708.38 85.9453 698.992 87.5218 690.359 91.417L707.633 129.7ZM717.941 127.945C724.192 127.945 726.691 129.663 728.133 131.197L758.726 102.421C747.799 90.8031 733.306 85.9453 717.941 85.9453V127.945ZM728.208 131.276C729.26 132.382 731.805 136.22 731.805 147.082H773.805C773.805 130.73 770.1 114.386 758.651 102.341L728.208 131.276ZM731.805 147.082V213H773.805V147.082H731.805ZM752.805 192H712.863V234H752.805V192ZM733.863 213V155.969H691.863V213H733.863ZM733.863 155.969C733.863 148.043 732.628 136.76 724.84 128.13L693.66 156.268C692.832 155.351 692.323 154.507 692.031 153.919C691.745 153.343 691.651 152.988 691.648 152.974C691.643 152.958 691.703 153.183 691.76 153.711C691.817 154.235 691.863 154.977 691.863 155.969H733.863ZM725.008 128.318C717.827 120.167 708.187 117.098 699.094 117.098V159.098C699.093 159.098 698.282 159.097 697.041 158.595C695.709 158.057 694.453 157.171 693.492 156.081L725.008 128.318ZM699.094 117.098C688.145 117.098 678.228 121.617 671.148 130.237L703.602 156.896C703.298 157.266 702.583 157.957 701.431 158.495C700.292 159.026 699.39 159.098 699.094 159.098V117.098ZM671.148 130.237C663.201 139.912 661.883 153.006 661.883 163.195H703.883C703.883 159.469 704.189 157.148 704.477 155.893C704.786 154.541 704.854 155.372 703.602 156.896L671.148 130.237ZM661.883 163.195V213H703.883V163.195H661.883ZM682.883 192H643.137V234H682.883V192ZM664.137 213V69.8359H622.137V213H664.137ZM796 69.8359V48.8359H775V69.8359H796ZM835.746 69.8359H856.746V48.8359H835.746V69.8359ZM835.746 96.8867V117.887H856.746V96.8867H835.746ZM796 96.8867H775V117.887H796V96.8867ZM796 109.289V88.2891H775V109.289H796ZM835.746 109.289H856.746V88.2891H835.746V109.289ZM835.746 213V234H856.746V213H835.746ZM796 213H775V234H796V213ZM796 90.8359H835.746V48.8359H796V90.8359ZM814.746 69.8359V96.8867H856.746V69.8359H814.746ZM835.746 75.8867H796V117.887H835.746V75.8867ZM817 96.8867V69.8359H775V96.8867H817ZM796 130.289H835.746V88.2891H796V130.289ZM814.746 109.289V213H856.746V109.289H814.746ZM835.746 192H796V234H835.746V192ZM817 213V109.289H775V213H817ZM927.086 69.8359H948.086V35.4837L917.512 51.1455L927.086 69.8359ZM927.086 109.289H906.086V130.289H927.086V109.289ZM948.961 109.289H969.961V88.2891H948.961V109.289ZM948.961 138.293V159.293H969.961V138.293H948.961ZM927.086 138.293V117.293H906.086V138.293H927.086ZM928.355 183.898L946.456 173.251L946.446 173.233L946.435 173.215L928.355 183.898ZM947.496 184.68L968.377 182.45L965.639 156.801L941.078 164.685L947.496 184.68ZM950.426 212.121L954.909 232.637L973.306 228.616L971.307 209.892L950.426 212.121ZM890.562 200.012L871.236 208.226L871.298 208.372L871.362 208.518L890.562 200.012ZM887.242 138.293H908.242V117.293H887.242V138.293ZM872.594 138.293H851.594V159.293H872.594V138.293ZM872.594 109.289V88.2891H851.594V109.289H872.594ZM887.242 109.289V130.289H908.242V109.289H887.242ZM887.242 90.2461L877.668 71.5556L866.242 77.4085V90.2461H887.242ZM906.086 69.8359V109.289H948.086V69.8359H906.086ZM927.086 130.289H948.961V88.2891H927.086V130.289ZM927.961 109.289V138.293H969.961V109.289H927.961ZM948.961 117.293H927.086V159.293H948.961V117.293ZM906.086 138.293V175.109H948.086V138.293H906.086ZM906.086 175.109C906.086 177.887 906.212 180.813 906.619 183.629C906.965 186.024 907.768 190.337 910.276 194.582L946.435 173.215C946.924 174.043 947.261 174.771 947.489 175.326C947.718 175.886 947.868 176.348 947.963 176.675C948.06 177.005 948.116 177.253 948.146 177.399C948.161 177.474 948.172 177.531 948.178 177.567C948.185 177.604 948.187 177.623 948.188 177.625C948.188 177.626 948.18 177.57 948.168 177.45C948.157 177.331 948.143 177.164 948.131 176.943C948.105 176.495 948.086 175.891 948.086 175.109H906.086ZM910.255 194.546C916.366 204.935 926.794 208.219 935.191 208.219V166.219C935.867 166.219 937.801 166.326 940.216 167.499C942.853 168.78 945.04 170.843 946.456 173.251L910.255 194.546ZM935.191 208.219C941.455 208.219 948.067 206.552 953.914 204.675L941.078 164.685C938.943 165.37 937.347 165.785 936.221 166.017C935.025 166.264 934.768 166.219 935.191 166.219V208.219ZM926.615 186.909L929.544 214.35L971.307 209.892L968.377 182.45L926.615 186.909ZM945.942 191.605C937.329 193.488 929.667 194.344 922.887 194.344V236.344C933.164 236.344 943.861 235.051 954.909 232.637L945.942 191.605ZM922.887 194.344C918.771 194.344 915.734 194.075 913.598 193.703C911.389 193.318 910.75 192.927 911.014 193.07L891.01 230C900.405 235.089 912.014 236.344 922.887 236.344V194.344ZM911.014 193.07C910.644 192.87 910.272 192.655 909.763 191.505L871.362 208.518C875.411 217.655 882.004 225.122 891.01 230L911.014 193.07ZM909.889 191.798C909.427 190.709 908.242 185.921 908.242 174.816H866.242C866.242 186.889 867.271 198.898 871.236 208.226L909.889 191.798ZM908.242 174.816V138.293H866.242V174.816H908.242ZM887.242 117.293H872.594V159.293H887.242V117.293ZM893.594 138.293V109.289H851.594V138.293H893.594ZM872.594 130.289H887.242V88.2891H872.594V130.289ZM908.242 109.289V90.2461H866.242V109.289H908.242ZM896.816 108.937L936.66 88.5264L917.512 51.1455L877.668 71.5556L896.816 108.937ZM986.102 173.547V152.547H965.102V173.547H986.102ZM1028.58 173.547H1049.58V152.547H1028.58V173.547ZM1021.06 234.777L1004.02 222.511L1021.06 234.777ZM995.379 253.234L976.852 263.122L986.025 280.308L1003.85 272.45L995.379 253.234ZM986.102 235.852L977.239 216.813L957.132 226.173L967.575 245.739L986.102 235.852ZM1001.63 225.305L985.471 211.891L985.334 212.056L985.201 212.223L1001.63 225.305ZM1006.41 213L1027.36 214.435L1028.9 192H1006.41V213ZM986.102 213H965.102V234H986.102V213ZM986.102 194.547H1028.58V152.547H986.102V194.547ZM1007.58 173.547V206.262H1049.58V173.547H1007.58ZM1007.58 206.262C1007.58 215.627 1005.61 220.3 1004.02 222.511L1038.11 247.044C1046.54 235.322 1049.58 220.985 1049.58 206.262H1007.58ZM1004.02 222.511C1002.07 225.218 997.294 229.44 986.908 234.019L1003.85 272.45C1017.68 266.352 1030.03 258.269 1038.11 247.044L1004.02 222.511ZM1013.91 243.347L1004.63 225.964L967.575 245.739L976.852 263.122L1013.91 243.347ZM994.964 254.89C1003.36 250.982 1012.16 245.792 1018.06 238.386L985.201 212.223C985.523 211.819 985.317 212.209 983.848 213.207C982.44 214.163 980.306 215.386 977.239 216.813L994.964 254.89ZM1017.79 238.719C1023.65 231.66 1026.76 223.294 1027.36 214.435L985.463 211.565C985.448 211.79 985.423 211.927 985.409 211.991C985.396 212.053 985.39 212.06 985.402 212.029C985.414 211.998 985.433 211.956 985.457 211.917C985.48 211.877 985.49 211.868 985.471 211.891L1017.79 238.719ZM1006.41 192H986.102V234H1006.41V192ZM1007.1 213V173.547H965.102V213H1007.1ZM1155.4 69.8359V48.8359H1134.4V69.8359H1155.4ZM1195.15 69.8359H1216.15V48.8359H1195.15V69.8359ZM1195.15 122.57H1174.15V174.569L1210.26 137.154L1195.15 122.57ZM1255.7 116.809L1240.4 131.197L1240.44 131.237L1240.47 131.276L1255.7 116.809ZM1265.07 213V234H1286.07V213H1265.07ZM1225.13 213H1204.13V234H1225.13V213ZM1221.52 142.199L1205.76 156.081L1205.84 156.175L1205.93 156.268L1221.52 142.199ZM1195.15 213V234H1216.15V213H1195.15ZM1155.4 213H1134.4V234H1155.4V213ZM1155.4 90.8359H1195.15V48.8359H1155.4V90.8359ZM1174.15 69.8359V122.57H1216.15V69.8359H1174.15ZM1210.26 137.154C1214.39 132.876 1217.64 130.719 1219.9 129.7L1202.62 91.417C1194.2 95.2162 1186.72 101.067 1180.04 107.987L1210.26 137.154ZM1219.9 129.7C1221.94 128.778 1225.18 127.945 1230.21 127.945V85.9453C1220.65 85.9453 1211.26 87.5218 1202.62 91.417L1219.9 129.7ZM1230.21 127.945C1236.46 127.945 1238.96 129.663 1240.4 131.197L1270.99 102.421C1260.06 90.8031 1245.57 85.9453 1230.21 85.9453V127.945ZM1240.47 131.276C1241.53 132.382 1244.07 136.22 1244.07 147.082H1286.07C1286.07 130.73 1282.37 114.386 1270.92 102.341L1240.47 131.276ZM1244.07 147.082V213H1286.07V147.082H1244.07ZM1265.07 192H1225.13V234H1265.07V192ZM1246.13 213V155.969H1204.13V213H1246.13ZM1246.13 155.969C1246.13 148.043 1244.89 136.76 1237.11 128.13L1205.93 156.268C1205.1 155.351 1204.59 154.507 1204.3 153.919C1204.01 153.343 1203.92 152.988 1203.91 152.974C1203.91 152.958 1203.97 153.183 1204.03 153.711C1204.08 154.235 1204.13 154.977 1204.13 155.969H1246.13ZM1237.27 128.318C1230.09 120.167 1220.45 117.098 1211.36 117.098V159.098C1211.36 159.098 1210.55 159.097 1209.31 158.595C1207.97 158.057 1206.72 157.171 1205.76 156.081L1237.27 128.318ZM1211.36 117.098C1200.41 117.098 1190.49 121.617 1183.41 130.237L1215.87 156.896C1215.56 157.266 1214.85 157.957 1213.7 158.495C1212.56 159.026 1211.66 159.098 1211.36 159.098V117.098ZM1183.41 130.237C1175.47 139.912 1174.15 153.006 1174.15 163.195H1216.15C1216.15 159.469 1216.46 157.148 1216.74 155.893C1217.05 154.541 1217.12 155.372 1215.87 156.896L1183.41 130.237ZM1174.15 163.195V213H1216.15V163.195H1174.15ZM1195.15 192H1155.4V234H1195.15V192ZM1176.4 213V69.8359H1134.4V213H1176.4ZM1421.94 171.008V192.008H1442.94V171.008H1421.94ZM1342.25 171.008V150.008H1318.76L1321.38 173.35L1342.25 171.008ZM1347.43 185.266L1363.39 171.618L1363.31 171.527L1363.23 171.437L1347.43 185.266ZM1373.6 189.074L1383.8 207.432L1383.94 207.353L1384.08 207.273L1373.6 189.074ZM1380.53 182.531L1382.46 161.62L1371.13 160.575L1364.07 169.496L1380.53 182.531ZM1419.69 186.145L1437.9 196.612L1454.21 168.24L1421.62 165.233L1419.69 186.145ZM1398.01 208.605L1407.86 227.155L1407.91 227.125L1407.97 227.095L1398.01 208.605ZM1329.16 209.582L1319.83 228.396L1319.9 228.427L1319.96 228.458L1329.16 209.582ZM1309.54 191.125L1291.59 202.031L1291.64 202.112L1291.69 202.193L1309.54 191.125ZM1317.35 121.984L1302.78 106.854L1302.76 106.877L1302.74 106.9L1317.35 121.984ZM1381.51 151.965V172.965H1404.75L1402.4 149.84L1381.51 151.965ZM1375.26 135.461L1360.41 150.31L1360.48 150.382L1360.55 150.454L1375.26 135.461ZM1346.94 138L1363.57 150.821L1363.64 150.728L1363.71 150.635L1346.94 138ZM1342.35 151.965L1321.46 149.766L1319.02 172.965H1342.35V151.965ZM1421.94 150.008H1342.25V192.008H1421.94V150.008ZM1321.38 173.35C1322.33 181.822 1324.91 191.425 1331.62 199.094L1363.23 171.437C1363.9 172.207 1363.98 172.639 1363.82 172.192C1363.65 171.725 1363.34 170.628 1363.12 168.665L1321.38 173.35ZM1331.47 198.913C1339.5 208.313 1350.47 213.004 1362.46 213.004V171.004C1362.19 171.004 1362.11 170.979 1362.18 170.993C1362.25 171.008 1362.42 171.052 1362.65 171.155C1362.88 171.259 1363.09 171.384 1363.24 171.503C1363.4 171.618 1363.44 171.678 1363.39 171.618L1331.47 198.913ZM1362.46 213.004C1370.05 213.004 1377.26 211.064 1383.8 207.432L1363.4 170.717C1362.91 170.99 1362.69 171.004 1362.46 171.004V213.004ZM1384.08 207.273C1389.5 204.149 1393.75 199.662 1397 195.566L1364.07 169.496C1363.31 170.454 1362.79 170.991 1362.53 171.238C1362.25 171.501 1362.44 171.267 1363.12 170.875L1384.08 207.273ZM1378.6 203.442L1417.76 207.056L1421.62 165.233L1382.46 161.62L1378.6 203.442ZM1401.49 175.677C1396.96 183.546 1392.31 187.825 1388.06 190.116L1407.97 227.095C1420.64 220.272 1430.44 209.576 1437.9 196.612L1401.49 175.677ZM1388.17 190.056C1384.1 192.215 1375.95 194.344 1361.59 194.344V236.344C1378.86 236.344 1395 233.98 1407.86 227.155L1388.17 190.056ZM1361.59 194.344C1349.41 194.344 1342.21 192.579 1338.37 190.706L1319.96 228.458C1331.88 234.267 1346.29 236.344 1361.59 236.344V194.344ZM1338.49 190.768C1334.54 188.809 1330.79 185.554 1327.38 180.057L1291.69 202.193C1298.7 213.493 1308.03 222.543 1319.83 228.396L1338.49 190.768ZM1327.48 180.219C1324.62 175.512 1322.82 169.476 1322.82 161.34H1280.82C1280.82 175.99 1284.16 189.811 1291.59 202.031L1327.48 180.219ZM1322.82 161.34C1322.82 150.036 1326.22 142.628 1331.96 137.069L1302.74 106.9C1287.77 121.393 1280.82 140.222 1280.82 161.34H1322.82ZM1331.91 137.115C1337.45 131.784 1346.04 127.945 1360.41 127.945V85.9453C1338.2 85.9453 1318.08 92.1326 1302.78 106.854L1331.91 137.115ZM1360.41 127.945C1373.51 127.945 1381.43 129.987 1385.84 132.294L1405.3 95.0729C1392.53 88.3961 1377.01 85.9453 1360.41 85.9453V127.945ZM1385.84 132.294C1390.68 134.824 1394.13 138.268 1396.62 143.001L1433.78 123.428C1427.29 111.104 1417.65 101.527 1405.3 95.0729L1385.84 132.294ZM1396.62 143.001C1399 147.516 1400.94 154.915 1400.94 166.516H1442.94C1442.94 150.773 1440.39 135.971 1433.78 123.428L1396.62 143.001ZM1400.94 166.516V171.008H1442.94V166.516H1400.94ZM1402.4 149.84C1401.41 140.132 1398.46 128.804 1389.96 120.468L1360.55 150.454C1359.62 149.534 1359.5 148.943 1359.72 149.514C1359.95 150.12 1360.36 151.535 1360.62 154.089L1402.4 149.84ZM1390.11 120.612C1382.2 112.704 1372.12 109.48 1362.07 109.48V151.48C1362.68 151.48 1362.58 151.57 1362.05 151.37C1361.79 151.273 1361.49 151.127 1361.18 150.925C1360.86 150.723 1360.61 150.507 1360.41 150.31L1390.11 120.612ZM1362.07 109.48C1349.21 109.48 1337.94 115.046 1330.16 125.365L1363.71 150.635C1363.81 150.509 1363.79 150.556 1363.63 150.692C1363.46 150.833 1363.22 151.009 1362.9 151.168C1362.58 151.326 1362.3 151.414 1362.1 151.457C1361.91 151.498 1361.89 151.48 1362.07 151.48V109.48ZM1330.31 125.179C1324.53 132.677 1322.31 141.749 1321.46 149.766L1363.23 154.163C1363.44 152.177 1363.74 150.985 1363.93 150.392C1364.13 149.8 1364.12 150.105 1363.57 150.821L1330.31 125.179ZM1342.35 172.965H1381.51V130.965H1342.35V172.965ZM1458.59 109.289V88.2891H1437.59V109.289H1458.59ZM1495.8 109.289H1516.8V88.2891H1495.8V109.289ZM1495.8 126.281H1474.8L1514.68 135.472L1495.8 126.281ZM1506.83 111.145L1519.15 128.153L1519.17 128.134L1519.2 128.116L1506.83 111.145ZM1540.23 112.414L1559.49 120.782L1567.28 102.866L1549.97 93.8082L1540.23 112.414ZM1527.93 140.734L1519.85 160.119L1538.94 168.075L1547.19 149.103L1527.93 140.734ZM1504.68 144.25L1522.07 156.028L1522.11 155.963L1522.16 155.899L1504.68 144.25ZM1498.53 213V234H1519.53V213H1498.53ZM1458.59 213H1437.59V234H1458.59V213ZM1458.59 130.289H1495.8V88.2891H1458.59V130.289ZM1474.8 109.289V126.281H1516.8V109.289H1474.8ZM1514.68 135.472C1516.08 132.586 1517.29 130.619 1518.21 129.351C1519.16 128.044 1519.53 127.874 1519.15 128.153L1494.52 94.1357C1486.56 99.8977 1481.02 108.649 1476.91 117.091L1514.68 135.472ZM1519.2 128.116C1519.12 128.178 1519.08 128.172 1519.22 128.128C1519.4 128.076 1519.94 127.945 1520.99 127.945V85.9453C1511.76 85.9453 1502.5 88.3131 1494.46 94.1735L1519.2 128.116ZM1520.99 127.945C1522.5 127.945 1525.55 128.432 1530.49 131.02L1549.97 93.8082C1540.98 89.1043 1531.2 85.9453 1520.99 85.9453V127.945ZM1520.97 104.046L1508.67 132.366L1547.19 149.103L1559.49 120.782L1520.97 104.046ZM1536 121.35C1530.57 119.087 1523.75 116.805 1516.79 116.805V158.805C1516.25 158.805 1515.93 158.758 1515.88 158.751C1515.83 158.743 1515.96 158.76 1516.28 158.846C1516.97 159.025 1518.13 159.402 1519.85 160.119L1536 121.35ZM1516.79 116.805C1504.64 116.805 1494.01 122.402 1487.21 132.601L1522.16 155.899C1521.91 156.261 1521.15 157.195 1519.73 157.954C1518.31 158.709 1517.15 158.805 1516.79 158.805V116.805ZM1487.3 132.472C1482.94 138.912 1480.68 146.477 1479.41 153.546C1478.08 160.854 1477.53 169.177 1477.53 178.234H1519.53C1519.53 170.69 1520.01 165.049 1520.73 161.028C1521.5 156.769 1522.33 155.643 1522.07 156.028L1487.3 132.472ZM1477.53 178.234V213H1519.53V178.234H1477.53ZM1498.53 192H1458.59V234H1498.53V192ZM1479.59 213V109.289H1437.59V213H1479.59ZM1680.2 171.008V192.008H1701.2V171.008H1680.2ZM1600.52 171.008V150.008H1577.03L1579.65 173.35L1600.52 171.008ZM1605.69 185.266L1621.65 171.618L1621.57 171.527L1621.5 171.437L1605.69 185.266ZM1631.86 189.074L1642.06 207.432L1642.2 207.353L1642.34 207.273L1631.86 189.074ZM1638.8 182.531L1640.73 161.62L1629.4 160.575L1622.33 169.496L1638.8 182.531ZM1677.96 186.145L1696.16 196.612L1712.48 168.24L1679.89 165.233L1677.96 186.145ZM1656.28 208.605L1666.12 227.155L1666.18 227.125L1666.23 227.095L1656.28 208.605ZM1587.43 209.582L1578.1 228.396L1578.16 228.427L1578.23 228.458L1587.43 209.582ZM1567.8 191.125L1549.85 202.031L1549.9 202.112L1549.95 202.193L1567.8 191.125ZM1575.61 121.984L1561.05 106.854L1561.03 106.877L1561 106.9L1575.61 121.984ZM1639.77 151.965V172.965H1663.02L1660.67 149.84L1639.77 151.965ZM1633.52 135.461L1618.67 150.31L1618.75 150.382L1618.82 150.454L1633.52 135.461ZM1605.2 138L1621.84 150.821L1621.91 150.728L1621.98 150.635L1605.2 138ZM1600.61 151.965L1579.73 149.766L1577.29 172.965H1600.61V151.965ZM1680.2 150.008H1600.52V192.008H1680.2V150.008ZM1579.65 173.35C1580.6 181.822 1583.18 191.425 1589.89 199.094L1621.5 171.437C1622.17 172.207 1622.25 172.639 1622.09 172.192C1621.92 171.725 1621.6 170.628 1621.38 168.665L1579.65 173.35ZM1589.73 198.913C1597.77 208.313 1608.73 213.004 1620.73 213.004V171.004C1620.46 171.004 1620.37 170.979 1620.44 170.993C1620.52 171.008 1620.69 171.052 1620.92 171.155C1621.15 171.259 1621.35 171.384 1621.51 171.503C1621.66 171.618 1621.7 171.678 1621.65 171.618L1589.73 198.913ZM1620.73 213.004C1628.31 213.004 1635.52 211.064 1642.06 207.432L1621.66 170.717C1621.17 170.99 1620.96 171.004 1620.73 171.004V213.004ZM1642.34 207.273C1647.77 204.149 1652.02 199.662 1655.26 195.566L1622.33 169.496C1621.57 170.454 1621.06 170.991 1620.8 171.238C1620.52 171.501 1620.71 171.267 1621.39 170.875L1642.34 207.273ZM1636.87 203.442L1676.03 207.056L1679.89 165.233L1640.73 161.62L1636.87 203.442ZM1659.75 175.677C1655.23 183.546 1650.58 187.825 1646.32 190.116L1666.23 227.095C1678.91 220.272 1688.71 209.576 1696.16 196.612L1659.75 175.677ZM1646.43 190.056C1642.37 192.215 1634.22 194.344 1619.85 194.344V236.344C1637.13 236.344 1653.26 233.98 1666.12 227.155L1646.43 190.056ZM1619.85 194.344C1607.68 194.344 1600.47 192.579 1596.63 190.706L1578.23 228.458C1590.14 234.267 1604.55 236.344 1619.85 236.344V194.344ZM1596.76 190.768C1592.81 188.809 1589.06 185.554 1585.65 180.057L1549.95 202.193C1556.96 213.493 1566.3 222.543 1578.1 228.396L1596.76 190.768ZM1585.75 180.219C1582.89 175.512 1581.09 169.476 1581.09 161.34H1539.09C1539.09 175.99 1542.43 189.811 1549.85 202.031L1585.75 180.219ZM1581.09 161.34C1581.09 150.036 1584.48 142.628 1590.22 137.069L1561 106.9C1546.04 121.393 1539.09 140.222 1539.09 161.34H1581.09ZM1590.18 137.115C1595.71 131.784 1604.31 127.945 1618.68 127.945V85.9453C1596.46 85.9453 1576.35 92.1326 1561.05 106.854L1590.18 137.115ZM1618.68 127.945C1631.77 127.945 1639.69 129.987 1644.11 132.294L1663.56 95.0729C1650.79 88.3961 1635.27 85.9453 1618.68 85.9453V127.945ZM1644.11 132.294C1648.95 134.824 1652.39 138.268 1654.88 143.001L1692.05 123.428C1685.55 111.104 1675.91 101.527 1663.56 95.0729L1644.11 132.294ZM1654.88 143.001C1657.26 147.516 1659.2 154.915 1659.2 166.516H1701.2C1701.2 150.773 1698.65 135.971 1692.05 123.428L1654.88 143.001ZM1659.2 166.516V171.008H1701.2V166.516H1659.2ZM1660.67 149.84C1659.68 140.132 1656.73 128.804 1648.23 120.468L1618.82 150.454C1617.88 149.534 1617.77 148.943 1617.99 149.514C1618.22 150.12 1618.62 151.535 1618.88 154.089L1660.67 149.84ZM1648.37 120.612C1640.46 112.704 1630.39 109.48 1620.34 109.48V151.48C1620.95 151.48 1620.85 151.57 1620.32 151.37C1620.06 151.273 1619.75 151.127 1619.44 150.925C1619.13 150.723 1618.87 150.507 1618.67 150.31L1648.37 120.612ZM1620.34 109.48C1607.48 109.48 1596.2 115.046 1588.43 125.365L1621.98 150.635C1622.07 150.509 1622.06 150.556 1621.9 150.692C1621.73 150.833 1621.48 151.009 1621.16 151.168C1620.84 151.326 1620.56 151.414 1620.37 151.457C1620.18 151.498 1620.15 151.48 1620.34 151.48V109.48ZM1588.57 125.179C1582.79 132.677 1580.57 141.749 1579.73 149.766L1621.5 154.163C1621.71 152.177 1622 150.985 1622.2 150.392C1622.39 149.8 1622.39 150.105 1621.84 150.821L1588.57 125.179ZM1600.61 172.965H1639.77V130.965H1600.61V172.965ZM1789.54 109.289V88.2891H1759.35L1769.85 116.594L1789.54 109.289ZM1828.02 109.289L1848.37 104.089L1844.33 88.2891H1828.02V109.289ZM1844.72 174.621L1824.37 179.822L1842.37 250.238L1864.7 181.073L1844.72 174.621ZM1865.81 109.289V88.2891H1850.53L1845.83 102.837L1865.81 109.289ZM1901.65 109.289L1921.57 102.621L1916.77 88.2891H1901.65V109.289ZM1923.53 174.621L1903.61 181.289L1926.23 248.84L1943.87 179.822L1923.53 174.621ZM1940.23 109.289V88.2891H1923.92L1919.88 104.089L1940.23 109.289ZM1978.41 109.289L1998.12 116.545L2008.52 88.2891H1978.41V109.289ZM1940.23 213V234H1954.87L1959.93 220.256L1940.23 213ZM1904.88 213L1884.97 219.697L1889.78 234H1904.88V213ZM1883.88 150.598L1903.78 143.901L1883.55 83.765L1863.91 144.098L1883.88 150.598ZM1863.57 213V234H1878.82L1883.54 219.5L1863.57 213ZM1828.02 213L1808.33 220.304L1813.41 234H1828.02V213ZM1789.54 130.289H1828.02V88.2891H1789.54V130.289ZM1807.67 114.49L1824.37 179.822L1865.06 169.421L1848.37 104.089L1807.67 114.49ZM1864.7 181.073L1885.8 115.741L1845.83 102.837L1824.73 168.169L1864.7 181.073ZM1865.81 130.289H1901.65V88.2891H1865.81V130.289ZM1881.74 115.957L1903.61 181.289L1943.44 167.954L1921.57 102.621L1881.74 115.957ZM1943.87 179.822L1960.57 114.49L1919.88 104.089L1903.18 169.421L1943.87 179.822ZM1940.23 130.289H1978.41V88.2891H1940.23V130.289ZM1958.7 102.034L1920.52 205.744L1959.93 220.256L1998.12 116.545L1958.7 102.034ZM1940.23 192H1904.88V234H1940.23V192ZM1924.78 206.303L1903.78 143.901L1863.98 157.294L1884.97 219.697L1924.78 206.303ZM1863.91 144.098L1843.6 206.5L1883.54 219.5L1903.85 157.098L1863.91 144.098ZM1863.57 192H1828.02V234H1863.57V192ZM1847.71 205.696L1809.23 101.985L1769.85 116.594L1808.33 220.304L1847.71 205.696ZM2123.27 171.008V192.008H2144.27V171.008H2123.27ZM2043.58 171.008V150.008H2020.09L2022.71 173.35L2043.58 171.008ZM2048.75 185.266L2064.71 171.618L2064.64 171.527L2064.56 171.437L2048.75 185.266ZM2074.93 189.074L2085.12 207.432L2085.26 207.353L2085.4 207.273L2074.93 189.074ZM2081.86 182.531L2083.79 161.62L2072.46 160.575L2065.39 169.496L2081.86 182.531ZM2121.02 186.145L2139.22 196.612L2155.54 168.24L2122.95 165.233L2121.02 186.145ZM2099.34 208.605L2109.19 227.155L2109.24 227.125L2109.3 227.095L2099.34 208.605ZM2030.49 209.582L2021.16 228.396L2021.23 228.427L2021.29 228.458L2030.49 209.582ZM2010.86 191.125L1992.92 202.031L1992.97 202.112L1993.02 202.193L2010.86 191.125ZM2018.68 121.984L2004.11 106.854L2004.09 106.877L2004.07 106.9L2018.68 121.984ZM2082.84 151.965V172.965H2106.08L2103.73 149.84L2082.84 151.965ZM2076.59 135.461L2061.74 150.31L2061.81 150.382L2061.88 150.454L2076.59 135.461ZM2048.27 138L2064.9 150.821L2064.97 150.728L2065.04 150.635L2048.27 138ZM2043.68 151.965L2022.79 149.766L2020.35 172.965H2043.68V151.965ZM2123.27 150.008H2043.58V192.008H2123.27V150.008ZM2022.71 173.35C2023.66 181.822 2026.24 191.425 2032.95 199.094L2064.56 171.437C2065.23 172.207 2065.31 172.639 2065.15 172.192C2064.98 171.725 2064.67 170.628 2064.45 168.665L2022.71 173.35ZM2032.79 198.913C2040.83 208.313 2051.79 213.004 2063.79 213.004V171.004C2063.52 171.004 2063.44 170.979 2063.5 170.993C2063.58 171.008 2063.75 171.052 2063.98 171.155C2064.21 171.259 2064.42 171.384 2064.57 171.503C2064.72 171.618 2064.77 171.678 2064.71 171.618L2032.79 198.913ZM2063.79 213.004C2071.38 213.004 2078.59 211.064 2085.12 207.432L2064.73 170.717C2064.24 170.99 2064.02 171.004 2063.79 171.004V213.004ZM2085.4 207.273C2090.83 204.149 2095.08 199.662 2098.32 195.566L2065.39 169.496C2064.64 170.454 2064.12 170.991 2063.86 171.238C2063.58 171.501 2063.77 171.267 2064.45 170.875L2085.4 207.273ZM2079.93 203.442L2119.09 207.056L2122.95 165.233L2083.79 161.62L2079.93 203.442ZM2102.81 175.677C2098.29 183.546 2093.64 187.825 2089.38 190.116L2109.3 227.095C2121.97 220.272 2131.77 209.576 2139.22 196.612L2102.81 175.677ZM2089.49 190.056C2085.43 192.215 2077.28 194.344 2062.91 194.344V236.344C2080.19 236.344 2096.32 233.98 2109.19 227.155L2089.49 190.056ZM2062.91 194.344C2050.74 194.344 2043.54 192.579 2039.7 190.706L2021.29 228.458C2033.2 234.267 2047.61 236.344 2062.91 236.344V194.344ZM2039.82 190.768C2035.87 188.809 2032.12 185.554 2028.71 180.057L1993.02 202.193C2000.02 213.493 2009.36 222.543 2021.16 228.396L2039.82 190.768ZM2028.81 180.219C2025.95 175.512 2024.15 169.476 2024.15 161.34H1982.15C1982.15 175.99 1985.49 189.811 1992.92 202.031L2028.81 180.219ZM2024.15 161.34C2024.15 150.036 2027.55 142.628 2033.29 137.069L2004.07 106.9C1989.1 121.393 1982.15 140.222 1982.15 161.34H2024.15ZM2033.24 137.115C2038.78 131.784 2047.37 127.945 2061.74 127.945V85.9453C2039.52 85.9453 2019.41 92.1326 2004.11 106.854L2033.24 137.115ZM2061.74 127.945C2074.84 127.945 2082.76 129.987 2087.17 132.294L2106.63 95.0729C2093.85 88.3961 2078.34 85.9453 2061.74 85.9453V127.945ZM2087.17 132.294C2092.01 134.824 2095.45 138.268 2097.95 143.001L2135.11 123.428C2128.62 111.104 2118.97 101.527 2106.63 95.0729L2087.17 132.294ZM2097.95 143.001C2100.33 147.516 2102.27 154.915 2102.27 166.516H2144.27C2144.27 150.773 2141.71 135.971 2135.11 123.428L2097.95 143.001ZM2102.27 166.516V171.008H2144.27V166.516H2102.27ZM2103.73 149.84C2102.74 140.132 2099.79 128.804 2091.29 120.468L2061.88 150.454C2060.94 149.534 2060.83 148.943 2061.05 149.514C2061.28 150.12 2061.68 151.535 2061.94 154.089L2103.73 149.84ZM2091.44 120.612C2083.53 112.704 2073.45 109.48 2063.4 109.48V151.48C2064.01 151.48 2063.91 151.57 2063.38 151.37C2063.12 151.273 2062.82 151.127 2062.5 150.925C2062.19 150.723 2061.93 150.507 2061.74 150.31L2091.44 120.612ZM2063.4 109.48C2050.54 109.48 2039.26 115.046 2031.49 125.365L2065.04 150.635C2065.13 150.509 2065.12 150.556 2064.96 150.692C2064.79 150.833 2064.54 151.009 2064.22 151.168C2063.91 151.326 2063.62 151.414 2063.43 151.457C2063.24 151.498 2063.22 151.48 2063.4 151.48V109.48ZM2031.63 125.179C2025.85 132.677 2023.64 141.749 2022.79 149.766L2064.56 154.163C2064.77 152.177 2065.07 150.985 2065.26 150.392C2065.46 149.8 2065.45 150.105 2064.9 150.821L2031.63 125.179ZM2043.68 172.965H2082.84V130.965H2043.68V172.965ZM2316.49 109.289V88.2891H2295.49V109.289H2316.49ZM2353.7 109.289H2374.7V88.2891H2353.7V109.289ZM2353.7 207.238H2332.7V207.462L2332.7 207.685L2353.7 207.238ZM2353.8 211.828H2374.8V211.605L2374.79 211.381L2353.8 211.828ZM2349.6 230.383L2330.65 221.33L2330.59 221.456L2330.53 221.583L2349.6 230.383ZM2338.56 244.738L2325.56 228.25L2325.5 228.295L2325.44 228.34L2338.56 244.738ZM2321.08 252.648L2316.39 232.18L2316.37 232.185L2316.35 232.189L2321.08 252.648ZM2253.89 245.715L2240.71 262.059L2240.74 262.086L2240.78 262.113L2253.89 245.715ZM2242.47 215.344L2244.85 194.479L2222.81 191.968L2221.5 214.111L2242.47 215.344ZM2281.04 219.738L2301.3 214.213L2297.56 200.484L2283.42 198.873L2281.04 219.738ZM2285.54 227.16L2297.45 209.866L2297.38 209.82L2297.31 209.774L2285.54 227.16ZM2309.36 225.598L2294.03 211.246L2293.95 211.334L2293.87 211.422L2309.36 225.598ZM2313.66 193.859H2334.66V136.474L2297.62 180.305L2313.66 193.859ZM2301.94 203.918L2311.8 222.458L2311.81 222.453L2311.82 222.447L2301.94 203.918ZM2248.52 190.637L2265.69 178.544L2265.69 178.542L2248.52 190.637ZM2251.16 119.641L2266.59 133.885L2251.16 119.641ZM2301.75 111.047L2291.98 129.64L2292.03 129.665L2292.08 129.69L2301.75 111.047ZM2316.49 124.621L2299.46 136.91L2337.49 189.607V124.621H2316.49ZM2283.88 176.281L2268.07 190.11L2268.13 190.18L2268.2 190.251L2283.88 176.281ZM2308.88 176.086L2293.24 162.067L2293.23 162.075L2293.22 162.083L2308.88 176.086ZM2308.68 141.809L2292.84 155.601L2292.9 155.665L2292.96 155.728L2308.68 141.809ZM2283.58 141.32L2267.38 127.96L2267.37 127.976L2267.35 127.991L2283.58 141.32ZM2316.49 130.289H2353.7V88.2891H2316.49V130.289ZM2332.7 109.289V207.238H2374.7V109.289H2332.7ZM2332.7 207.685L2332.8 212.275L2374.79 211.381L2374.69 206.792L2332.7 207.685ZM2332.8 211.828C2332.8 215.214 2332.09 218.305 2330.65 221.33L2368.55 239.436C2372.7 230.742 2374.8 221.463 2374.8 211.828H2332.8ZM2330.53 221.583C2329.03 224.833 2327.31 226.867 2325.56 228.25L2351.57 261.227C2359.06 255.318 2364.7 247.782 2368.66 239.183L2330.53 221.583ZM2325.44 228.34C2323.89 229.586 2321.15 231.088 2316.39 232.18L2325.78 273.117C2335.21 270.954 2344.12 267.182 2351.68 261.137L2325.44 228.34ZM2316.35 232.189C2311.21 233.378 2304.78 234.09 2296.86 234.09V276.09C2307.18 276.09 2316.89 275.174 2325.82 273.107L2316.35 232.189ZM2296.86 234.09C2276.54 234.09 2268.76 230.718 2267.01 229.317L2240.78 262.113C2254.65 273.212 2275.52 276.09 2296.86 276.09V234.09ZM2267.08 229.37C2264.57 227.344 2263.27 225.138 2263.27 220.617H2221.27C2221.27 237.06 2227.73 251.585 2240.71 262.059L2267.08 229.37ZM2263.27 220.617C2263.27 219.913 2263.31 218.621 2263.43 216.577L2221.5 214.111C2221.36 216.493 2221.27 218.718 2221.27 220.617H2263.27ZM2240.09 236.209L2278.67 240.603L2283.42 198.873L2244.85 194.479L2240.09 236.209ZM2260.78 225.264C2262.42 231.254 2265.89 239.218 2273.76 244.546L2297.31 209.774C2299.24 211.076 2300.33 212.528 2300.86 213.405C2301.36 214.23 2301.42 214.626 2301.3 214.213L2260.78 225.264ZM2273.62 244.454C2280.83 249.418 2288.94 251.188 2296.57 251.188V209.188C2295.94 209.188 2295.81 209.115 2296.05 209.179C2296.31 209.252 2296.84 209.447 2297.45 209.866L2273.62 244.454ZM2296.57 251.188C2305.87 251.188 2316.74 248.643 2324.86 239.773L2293.87 211.422C2294.98 210.206 2296.2 209.553 2296.97 209.274C2297.63 209.039 2297.63 209.188 2296.57 209.188V251.188ZM2324.69 239.95C2333.2 230.858 2334.66 218.606 2334.66 209.582H2292.66C2292.66 210.84 2292.6 211.822 2292.52 212.56C2292.44 213.303 2292.34 213.714 2292.3 213.857C2292.21 214.219 2292.48 212.908 2294.03 211.246L2324.69 239.95ZM2334.66 209.582V193.859H2292.66V209.582H2334.66ZM2297.62 180.305C2294.84 183.591 2292.93 184.926 2292.06 185.389L2311.82 222.447C2318.77 218.743 2324.66 213.372 2329.7 207.414L2297.62 180.305ZM2292.08 185.378C2289.07 186.978 2285.86 187.801 2282.12 187.801V229.801C2292.57 229.801 2302.57 227.368 2311.8 222.458L2292.08 185.378ZM2282.12 187.801C2275.61 187.801 2270.6 185.517 2265.69 178.544L2231.35 202.729C2243.5 219.976 2260.89 229.801 2282.12 229.801V187.801ZM2265.69 178.542C2262.86 174.521 2260.44 167.816 2260.44 156.555H2218.44C2218.44 173.549 2222.08 189.565 2231.36 202.732L2265.69 178.542ZM2260.44 156.555C2260.44 143.562 2263.58 137.148 2266.59 133.885L2235.73 105.397C2223.12 119.061 2218.44 137.256 2218.44 156.555H2260.44ZM2266.59 133.885C2270.02 130.17 2274.42 127.945 2281.82 127.945V85.9453C2263.96 85.9453 2247.93 92.1841 2235.73 105.397L2266.59 133.885ZM2281.82 127.945C2287.7 127.945 2290.7 128.964 2291.98 129.64L2311.51 92.4535C2302.38 87.6607 2292.1 85.9453 2281.82 85.9453V127.945ZM2292.08 129.69C2293.67 130.516 2296.25 132.462 2299.46 136.91L2333.52 112.332C2327.62 104.15 2320.37 97.0468 2311.41 92.404L2292.08 129.69ZM2337.49 124.621V109.289H2295.49V124.621H2337.49ZM2258.09 159.582C2258.09 169.498 2260.12 181.023 2268.07 190.11L2299.68 162.453C2300.48 163.366 2300.58 163.972 2300.47 163.587C2300.35 163.142 2300.09 161.909 2300.09 159.582H2258.09ZM2268.2 190.251C2275.74 198.719 2285.85 202.652 2296.47 202.652V160.652C2296.3 160.652 2296.81 160.631 2297.65 160.992C2298.54 161.371 2299.2 161.913 2299.55 162.312L2268.2 190.251ZM2296.47 202.652C2307.44 202.652 2317.25 198.219 2324.53 190.089L2293.22 162.083C2293.33 161.964 2293.81 161.494 2294.69 161.102C2295.56 160.708 2296.26 160.652 2296.47 160.652V202.652ZM2324.51 190.104C2332.7 180.966 2334.95 169.351 2334.95 159.094H2292.95C2292.95 161.368 2292.69 162.565 2292.56 162.993C2292.46 163.347 2292.55 162.837 2293.24 162.067L2324.51 190.104ZM2334.95 159.094C2334.95 148.567 2332.52 137.054 2324.4 127.889L2292.96 155.728C2292.46 155.172 2292.43 154.844 2292.55 155.236C2292.69 155.702 2292.95 156.892 2292.95 159.094H2334.95ZM2324.52 128.016C2317.26 119.682 2307.3 114.754 2295.79 114.754V156.754C2295.46 156.754 2294.73 156.668 2293.89 156.275C2293.08 155.896 2292.76 155.501 2292.84 155.601L2324.52 128.016ZM2295.79 114.754C2284.84 114.754 2274.68 119.11 2267.38 127.96L2299.78 154.68C2299.44 155.095 2298.72 155.76 2297.64 156.253C2296.59 156.731 2295.85 156.754 2295.79 156.754V114.754ZM2267.35 127.991C2259.62 137.41 2258.09 149.676 2258.09 159.582H2300.09C2300.09 156.446 2300.38 154.57 2300.6 153.636C2300.84 152.684 2300.85 153.387 2299.81 154.65L2267.35 127.991ZM2406.86 122.375L2421.38 137.544L2421.4 137.521L2421.43 137.498L2406.86 122.375ZM2497.19 125.012L2512.96 111.146L2512.95 111.137L2512.94 111.129L2497.19 125.012ZM2494.06 200.109L2508.63 215.236L2508.63 215.234L2494.06 200.109ZM2409.79 202.648L2396.37 218.808L2396.41 218.837L2396.44 218.865L2409.79 202.648ZM2436.25 181.848L2420.16 195.338L2420.21 195.407L2420.27 195.476L2436.25 181.848ZM2464.47 181.945L2448.48 168.338L2448.42 168.408L2448.36 168.478L2464.47 181.945ZM2464.47 140.93L2448.38 154.42L2448.43 154.479L2448.48 154.537L2464.47 140.93ZM2436.35 141.027L2452.33 154.655L2452.37 154.598L2452.42 154.54L2436.35 141.027ZM2411.84 161.438C2411.84 150.897 2415.15 143.504 2421.38 137.544L2392.33 107.206C2377.2 121.688 2369.84 140.338 2369.84 161.438H2411.84ZM2421.43 137.498C2427.35 131.793 2436.09 127.945 2450.12 127.945V85.9453C2427.81 85.9453 2407.72 92.384 2392.29 107.252L2421.43 137.498ZM2450.12 127.945C2466.74 127.945 2475.9 132.621 2481.43 138.895L2512.94 111.129C2497.25 93.3137 2475.03 85.9453 2450.12 85.9453V127.945ZM2481.42 138.878C2486.23 144.356 2488.98 151.219 2488.98 160.852H2530.98C2530.98 142.099 2525.2 125.069 2512.96 111.146L2481.42 138.878ZM2488.98 160.852C2488.98 171.619 2485.63 179.07 2479.49 184.984L2508.63 215.234C2523.71 200.706 2530.98 181.985 2530.98 160.852H2488.98ZM2479.5 184.983C2473.86 190.41 2465.03 194.344 2450.21 194.344V236.344C2472.77 236.344 2493.17 230.122 2508.63 215.236L2479.5 184.983ZM2450.21 194.344C2437.16 194.344 2428.79 191.09 2423.13 186.432L2396.44 218.865C2411.35 231.134 2429.94 236.344 2450.21 236.344V194.344ZM2423.2 186.489C2415.57 180.156 2411.84 172.436 2411.84 161.438H2369.84C2369.84 184.423 2378.74 204.177 2396.37 218.808L2423.2 186.489ZM2409.68 161.34C2409.68 172.738 2411.86 185.44 2420.16 195.338L2452.34 168.357C2452.83 168.939 2452.65 169.032 2452.34 167.899C2452.02 166.724 2451.68 164.636 2451.68 161.34H2409.68ZM2420.27 195.476C2427.91 204.434 2438.41 209.488 2450.41 209.488V167.488C2450.37 167.488 2450.48 167.485 2450.72 167.535C2450.96 167.586 2451.24 167.676 2451.54 167.815C2452.19 168.12 2452.4 168.421 2452.23 168.22L2420.27 195.476ZM2450.41 209.488C2462.3 209.488 2472.91 204.591 2480.59 195.413L2448.36 168.478C2448.32 168.526 2448.38 168.44 2448.57 168.291C2448.77 168.137 2449.04 167.964 2449.36 167.813C2450.08 167.478 2450.55 167.488 2450.41 167.488V209.488ZM2480.47 195.553C2488.98 185.545 2491.04 172.438 2491.04 160.949H2449.04C2449.04 164.509 2448.69 166.769 2448.35 168.043C2448.02 169.291 2447.84 169.088 2448.48 168.338L2480.47 195.553ZM2491.04 160.949C2491.04 149.668 2488.81 137.123 2480.47 127.322L2448.48 154.537C2447.99 153.962 2448.14 153.828 2448.41 154.832C2448.71 155.887 2449.04 157.827 2449.04 160.949H2491.04ZM2480.57 127.439C2473.12 118.559 2462.77 113.289 2450.7 113.289V155.289C2450.65 155.289 2450.44 155.282 2450.13 155.213C2449.81 155.143 2449.46 155.027 2449.12 154.864C2448.4 154.515 2448.18 154.184 2448.38 154.42L2480.57 127.439ZM2450.7 113.289C2438.62 113.289 2427.98 118.346 2420.27 127.515L2452.42 154.54C2452.51 154.432 2452.5 154.47 2452.36 154.581C2452.21 154.697 2451.98 154.846 2451.69 154.984C2451.4 155.122 2451.12 155.207 2450.91 155.252C2450.7 155.297 2450.62 155.289 2450.7 155.289V113.289ZM2420.37 127.399C2411.96 137.265 2409.68 149.916 2409.68 161.34H2451.68C2451.68 158.157 2452.02 156.165 2452.33 155.066C2452.62 154.02 2452.79 154.115 2452.33 154.655L2420.37 127.399ZM2668.15 142.883L2665.95 163.767L2682.51 165.513L2687.98 149.782L2668.15 142.883ZM2630.16 138.879L2609.63 134.451L2604.7 157.312L2627.96 159.763L2630.16 138.879ZM2636.31 123.254L2619.2 111.075L2619.18 111.104L2619.16 111.132L2636.31 123.254ZM2648.03 113.293L2658.17 131.684L2658.19 131.675L2658.2 131.666L2648.03 113.293ZM2712.48 108.996L2708.58 129.63L2708.67 129.647L2708.76 129.663L2712.48 108.996ZM2730.55 117.297L2716.69 133.075L2716.75 133.126L2716.81 133.176L2730.55 117.297ZM2738.56 129.797L2718.81 136.935L2718.82 136.974L2718.84 137.012L2738.56 129.797ZM2742.37 202.453L2721.81 206.755L2721.87 207.037L2721.94 207.317L2742.37 202.453ZM2746.47 213V234H2779.99L2765.36 203.838L2746.47 213ZM2709.16 213L2690.85 223.274L2696.87 234H2709.16V213ZM2706.23 206.945L2686.22 213.313L2686.27 213.45L2686.31 213.586L2706.23 206.945ZM2704.87 200.305L2725.63 197.145L2719.53 157.048L2690.3 185.174L2704.87 200.305ZM2689.34 211.047L2697.26 230.495L2697.35 230.46L2697.43 230.424L2689.34 211.047ZM2636.61 206.75L2622.57 222.375L2622.61 222.41L2622.65 222.446L2636.61 206.75ZM2633.97 166.125L2618.44 151.989L2633.97 166.125ZM2659.55 154.797L2663.65 175.393L2663.67 175.389L2663.69 175.386L2659.55 154.797ZM2688.56 148.547L2693.93 168.848L2694.07 168.811L2694.21 168.772L2688.56 148.547ZM2702.62 143.762L2710.33 163.295L2723.62 158.049V143.762H2702.62ZM2674.3 133.703L2662.98 116.015L2662.97 116.02L2662.97 116.024L2674.3 133.703ZM2702.62 163.781H2723.62V133.982L2695.56 144.005L2702.62 163.781ZM2685.53 168.957L2680.39 148.597L2680.26 148.63L2680.13 148.663L2685.53 168.957ZM2670.2 175.305L2655.58 160.229L2655.57 160.235L2670.2 175.305ZM2670.1 190.344L2655.72 205.65L2655.96 205.874L2656.21 206.09L2670.1 190.344ZM2692.07 190.051L2681.82 171.723L2681.76 171.76L2681.69 171.798L2692.07 190.051ZM2700.18 182.238L2681.55 172.538L2681.52 172.613L2681.48 172.688L2700.18 182.238ZM2670.35 121.998L2632.36 117.995L2627.96 159.763L2665.95 163.767L2670.35 121.998ZM2650.69 143.307C2651.78 138.246 2653 136.022 2653.46 135.376L2619.16 111.132C2614.28 118.038 2611.41 126.23 2609.63 134.451L2650.69 143.307ZM2653.42 135.432C2653.96 134.68 2655.23 133.304 2658.17 131.684L2637.89 94.9024C2630.68 98.8808 2624.14 104.145 2619.2 111.075L2653.42 135.432ZM2658.2 131.666C2658.99 131.23 2661.45 130.199 2666.66 129.296L2659.48 87.9145C2651.93 89.2251 2644.36 91.3199 2637.86 94.9202L2658.2 131.666ZM2666.66 129.296C2671.7 128.423 2677.38 127.945 2683.77 127.945V85.9453C2675.32 85.9453 2667.2 86.5749 2659.48 87.9145L2666.66 129.296ZM2683.77 127.945C2695.08 127.945 2703.18 128.609 2708.58 129.63L2716.39 88.3621C2707.33 86.6492 2696.3 85.9453 2683.77 85.9453V127.945ZM2708.76 129.663C2712.78 130.388 2715.14 131.713 2716.69 133.075L2744.41 101.519C2736.32 94.4174 2726.64 90.2083 2716.21 88.3289L2708.76 129.663ZM2716.81 133.176C2716.81 133.179 2717.74 133.976 2718.81 136.935L2758.31 122.658C2755.47 114.811 2751.06 107.274 2744.29 101.417L2716.81 133.176ZM2718.84 137.012C2720.08 140.412 2720.49 143.075 2720.49 145.129H2762.49C2762.49 137.417 2760.94 129.859 2758.28 122.582L2718.84 137.012ZM2720.49 145.129V190.93H2762.49V145.129H2720.49ZM2720.49 190.93C2720.49 196.398 2720.79 201.893 2721.81 206.755L2762.92 198.151C2762.77 197.414 2762.49 195.227 2762.49 190.93H2720.49ZM2721.94 207.317C2723.1 212.21 2725.22 217.302 2727.57 222.162L2765.36 203.838C2763.55 200.104 2762.93 198.165 2762.8 197.589L2721.94 207.317ZM2746.47 192H2709.16V234H2746.47V192ZM2727.48 202.726C2726.87 201.638 2726.46 200.856 2726.21 200.338C2726.09 200.085 2726.03 199.947 2726.01 199.91C2725.99 199.863 2726.06 200.006 2726.16 200.305L2686.31 213.586C2687.44 216.96 2689.26 220.436 2690.85 223.274L2727.48 202.726ZM2726.25 200.578C2726.32 200.817 2726.26 200.682 2726.12 199.976C2725.98 199.322 2725.82 198.395 2725.63 197.145L2684.11 203.464C2684.6 206.687 2685.25 210.243 2686.22 213.313L2726.25 200.578ZM2690.3 185.174C2686.44 188.893 2683.39 190.773 2681.25 191.67L2697.43 230.424C2705.57 227.024 2712.88 221.743 2719.43 215.435L2690.3 185.174ZM2681.42 191.599C2677.4 193.235 2672.02 194.344 2664.83 194.344V236.344C2676.26 236.344 2687.22 234.588 2697.26 230.495L2681.42 191.599ZM2664.83 194.344C2655.39 194.344 2651.78 192.14 2650.56 191.054L2622.65 222.446C2634.32 232.819 2649.52 236.344 2664.83 236.344V194.344ZM2650.64 191.125C2648.59 189.283 2648.04 187.854 2648.04 185.559H2606.04C2606.04 200.06 2611.87 212.758 2622.57 222.375L2650.64 191.125ZM2648.04 185.559C2648.04 182.086 2648.91 180.904 2649.5 180.261L2618.44 151.989C2609.78 161.502 2606.04 173.276 2606.04 185.559H2648.04ZM2649.5 180.261C2649.27 180.507 2649.84 179.792 2652.33 178.686C2654.78 177.601 2658.45 176.428 2663.65 175.393L2655.46 134.201C2641.85 136.907 2627.73 141.782 2618.44 151.989L2649.5 180.261ZM2663.69 175.386C2678.45 172.421 2688.77 170.213 2693.93 168.848L2683.18 128.246C2679.49 129.224 2670.48 131.183 2655.42 134.208L2663.69 175.386ZM2694.21 168.772C2699.43 167.313 2704.81 165.474 2710.33 163.295L2694.91 124.228C2690.53 125.956 2686.54 127.307 2682.91 128.322L2694.21 168.772ZM2723.62 143.762C2723.62 137.108 2722.45 126.405 2714.2 118.417L2684.99 148.598C2682.79 146.465 2681.97 144.331 2681.72 143.482C2681.49 142.696 2681.62 142.645 2681.62 143.762H2723.62ZM2714.2 118.417C2706.11 110.593 2695.48 109.578 2688.95 109.578V151.578C2690.26 151.578 2690.43 151.718 2689.85 151.558C2689.25 151.392 2687.18 150.714 2684.99 148.598L2714.2 118.417ZM2688.95 109.578C2680.87 109.578 2671.21 110.748 2662.98 116.015L2685.62 151.391C2684.61 152.04 2684.13 152.038 2684.79 151.897C2685.43 151.76 2686.75 151.578 2688.95 151.578V109.578ZM2662.97 116.024C2654.76 121.287 2650.59 129.449 2648.31 135.984L2687.98 149.782C2688.34 148.765 2688.52 148.592 2688.3 148.91C2688.07 149.257 2687.27 150.337 2685.63 151.383L2662.97 116.024ZM2695.56 144.005C2690.75 145.722 2685.7 147.255 2680.39 148.597L2690.68 189.317C2697.22 187.664 2703.55 185.747 2709.68 183.558L2695.56 144.005ZM2680.13 148.663C2675.6 149.869 2671.34 151.21 2667.61 152.752C2664.33 154.113 2659.55 156.383 2655.58 160.229L2684.82 190.381C2683.74 191.429 2682.92 191.892 2682.88 191.914C2682.78 191.97 2683 191.838 2683.68 191.558C2685.06 190.985 2687.39 190.194 2690.93 189.251L2680.13 148.663ZM2655.57 160.235C2649.86 165.783 2645.88 173.466 2645.88 182.629H2687.88C2687.88 184.191 2687.54 185.859 2686.84 187.418C2686.15 188.926 2685.32 189.889 2684.83 190.374L2655.57 160.235ZM2645.88 182.629C2645.88 191.16 2649.07 199.402 2655.72 205.65L2684.48 175.038C2685.43 175.935 2686.39 177.208 2687.06 178.807C2687.72 180.379 2687.88 181.749 2687.88 182.629H2645.88ZM2656.21 206.09C2663.63 212.641 2672.61 214.273 2679.77 214.273V172.273C2678.46 172.273 2681 171.952 2684 174.597L2656.21 206.09ZM2679.77 214.273C2687.77 214.273 2695.46 212.288 2702.46 208.303L2681.69 171.798C2681.14 172.111 2680.63 172.273 2679.77 172.273V214.273ZM2702.33 208.379C2708.78 204.77 2714.97 199.458 2718.88 191.789L2681.48 172.688C2681.85 171.963 2682.24 171.531 2682.41 171.366C2682.55 171.225 2682.43 171.381 2681.82 171.723L2702.33 208.379ZM2718.8 191.939C2722.49 184.855 2723.62 177.169 2723.62 170.129H2681.62C2681.62 171.478 2681.51 172.305 2681.42 172.717C2681.34 173.119 2681.32 172.989 2681.55 172.538L2718.8 191.939ZM2723.62 170.129V163.781H2681.62V170.129H2723.62ZM2855.48 109.289V88.2891H2834.48V109.289H2855.48ZM2892.69 109.289H2913.69V88.2891H2892.69V109.289ZM2892.69 207.238H2871.69V207.462L2871.7 207.685L2892.69 207.238ZM2892.79 211.828H2913.79V211.605L2913.78 211.381L2892.79 211.828ZM2888.59 230.383L2869.64 221.33L2869.58 221.456L2869.52 221.583L2888.59 230.383ZM2877.55 244.738L2864.55 228.25L2864.49 228.295L2864.44 228.34L2877.55 244.738ZM2860.07 252.648L2855.38 232.18L2855.36 232.185L2855.34 232.189L2860.07 252.648ZM2792.89 245.715L2779.7 262.059L2779.73 262.086L2779.77 262.113L2792.89 245.715ZM2781.46 215.344L2783.84 194.479L2761.8 191.968L2760.5 214.111L2781.46 215.344ZM2820.04 219.738L2840.3 214.213L2836.55 200.484L2822.41 198.873L2820.04 219.738ZM2824.53 227.16L2836.44 209.866L2836.37 209.82L2836.31 209.774L2824.53 227.16ZM2848.36 225.598L2833.03 211.246L2832.94 211.334L2832.86 211.422L2848.36 225.598ZM2852.65 193.859H2873.65V136.474L2836.61 180.305L2852.65 193.859ZM2840.93 203.918L2850.8 222.458L2850.81 222.453L2850.82 222.447L2840.93 203.918ZM2787.52 190.637L2804.68 178.544L2804.68 178.542L2787.52 190.637ZM2790.15 119.641L2805.58 133.885L2790.15 119.641ZM2840.74 111.047L2830.98 129.64L2831.02 129.665L2831.07 129.69L2840.74 111.047ZM2855.48 124.621L2838.46 136.91L2876.48 189.607V124.621H2855.48ZM2822.87 176.281L2807.06 190.11L2807.12 190.18L2807.19 190.251L2822.87 176.281ZM2847.87 176.086L2832.23 162.067L2832.22 162.075L2832.22 162.083L2847.87 176.086ZM2847.67 141.809L2831.84 155.601L2831.89 155.665L2831.95 155.728L2847.67 141.809ZM2822.57 141.32L2806.37 127.96L2806.36 127.976L2806.35 127.991L2822.57 141.32ZM2855.48 130.289H2892.69V88.2891H2855.48V130.289ZM2871.69 109.289V207.238H2913.69V109.289H2871.69ZM2871.7 207.685L2871.79 212.275L2913.78 211.381L2913.69 206.792L2871.7 207.685ZM2871.79 211.828C2871.79 215.214 2871.09 218.305 2869.64 221.33L2907.54 239.436C2911.69 230.742 2913.79 221.463 2913.79 211.828H2871.79ZM2869.52 221.583C2868.02 224.833 2866.3 226.867 2864.55 228.25L2890.56 261.227C2898.05 255.318 2903.69 247.782 2907.66 239.183L2869.52 221.583ZM2864.44 228.34C2862.88 229.586 2860.14 231.088 2855.38 232.18L2864.77 273.117C2874.2 270.954 2883.12 267.182 2890.67 261.137L2864.44 228.34ZM2855.34 232.189C2850.2 233.378 2843.77 234.09 2835.86 234.09V276.09C2846.17 276.09 2855.88 275.174 2864.81 273.107L2855.34 232.189ZM2835.86 234.09C2815.53 234.09 2807.76 230.718 2806.01 229.317L2779.77 262.113C2793.64 273.212 2814.52 276.09 2835.86 276.09V234.09ZM2806.07 229.37C2803.56 227.344 2802.27 225.138 2802.27 220.617H2760.27C2760.27 237.06 2766.72 251.585 2779.7 262.059L2806.07 229.37ZM2802.27 220.617C2802.27 219.913 2802.3 218.621 2802.42 216.577L2760.5 214.111C2760.36 216.493 2760.27 218.718 2760.27 220.617H2802.27ZM2779.08 236.209L2817.66 240.603L2822.41 198.873L2783.84 194.479L2779.08 236.209ZM2799.78 225.264C2801.41 231.254 2804.88 239.218 2812.75 244.546L2836.31 209.774C2838.23 211.076 2839.32 212.528 2839.86 213.405C2840.36 214.23 2840.41 214.626 2840.3 214.213L2799.78 225.264ZM2812.61 244.454C2819.82 249.418 2827.93 251.188 2835.56 251.188V209.188C2834.93 209.188 2834.81 209.115 2835.04 209.179C2835.31 209.252 2835.83 209.447 2836.44 209.866L2812.61 244.454ZM2835.56 251.188C2844.86 251.188 2855.73 248.643 2863.85 239.773L2832.86 211.422C2833.97 210.206 2835.19 209.553 2835.97 209.274C2836.62 209.039 2836.62 209.188 2835.56 209.188V251.188ZM2863.69 239.95C2872.2 230.858 2873.65 218.606 2873.65 209.582H2831.65C2831.65 210.84 2831.59 211.822 2831.51 212.56C2831.43 213.303 2831.33 213.714 2831.3 213.857C2831.2 214.219 2831.47 212.908 2833.03 211.246L2863.69 239.95ZM2873.65 209.582V193.859H2831.65V209.582H2873.65ZM2836.61 180.305C2833.84 183.591 2831.92 184.926 2831.05 185.389L2850.82 222.447C2857.76 218.743 2863.66 213.372 2868.69 207.414L2836.61 180.305ZM2831.07 185.378C2828.06 186.978 2824.85 187.801 2821.11 187.801V229.801C2831.56 229.801 2841.57 227.368 2850.8 222.458L2831.07 185.378ZM2821.11 187.801C2814.6 187.801 2809.6 185.517 2804.68 178.544L2770.35 202.729C2782.49 219.976 2799.88 229.801 2821.11 229.801V187.801ZM2804.68 178.542C2801.85 174.521 2799.43 167.816 2799.43 156.555H2757.43C2757.43 173.549 2761.07 189.565 2770.35 202.732L2804.68 178.542ZM2799.43 156.555C2799.43 143.562 2802.57 137.148 2805.58 133.885L2774.72 105.397C2762.11 119.061 2757.43 137.256 2757.43 156.555H2799.43ZM2805.58 133.885C2809.01 130.17 2813.42 127.945 2820.82 127.945V85.9453C2802.96 85.9453 2786.92 92.1841 2774.72 105.397L2805.58 133.885ZM2820.82 127.945C2826.69 127.945 2829.69 128.964 2830.98 129.64L2850.5 92.4535C2841.37 87.6607 2831.09 85.9453 2820.82 85.9453V127.945ZM2831.07 129.69C2832.66 130.516 2835.25 132.462 2838.46 136.91L2872.51 112.332C2866.61 104.15 2859.36 97.0468 2850.4 92.404L2831.07 129.69ZM2876.48 124.621V109.289H2834.48V124.621H2876.48ZM2797.08 159.582C2797.08 169.498 2799.11 181.023 2807.06 190.11L2838.67 162.453C2839.47 163.366 2839.58 163.972 2839.47 163.587C2839.34 163.142 2839.08 161.909 2839.08 159.582H2797.08ZM2807.19 190.251C2814.73 198.719 2824.85 202.652 2835.46 202.652V160.652C2835.29 160.652 2835.8 160.631 2836.65 160.992C2837.53 161.371 2838.19 161.913 2838.55 162.312L2807.19 190.251ZM2835.46 202.652C2846.43 202.652 2856.24 198.219 2863.52 190.089L2832.22 162.083C2832.32 161.964 2832.8 161.494 2833.68 161.102C2834.56 160.708 2835.25 160.652 2835.46 160.652V202.652ZM2863.5 190.104C2871.7 180.966 2873.95 169.351 2873.95 159.094H2831.95C2831.95 161.368 2831.68 162.565 2831.56 162.993C2831.45 163.347 2831.54 162.837 2832.23 162.067L2863.5 190.104ZM2873.95 159.094C2873.95 148.567 2871.51 137.054 2863.4 127.889L2831.95 155.728C2831.46 155.172 2831.42 154.844 2831.54 155.236C2831.68 155.702 2831.95 156.892 2831.95 159.094H2873.95ZM2863.51 128.016C2856.25 119.682 2846.3 114.754 2834.78 114.754V156.754C2834.45 156.754 2833.72 156.668 2832.88 156.275C2832.08 155.896 2831.75 155.501 2831.84 155.601L2863.51 128.016ZM2834.78 114.754C2823.83 114.754 2813.67 119.11 2806.37 127.96L2838.78 154.68C2838.43 155.095 2837.72 155.76 2836.63 156.253C2835.59 156.731 2834.84 156.754 2834.78 156.754V114.754ZM2806.35 127.991C2798.61 137.41 2797.08 149.676 2797.08 159.582H2839.08C2839.08 156.446 2839.37 154.57 2839.6 153.636C2839.83 152.684 2839.84 153.387 2838.8 154.65L2806.35 127.991ZM2970.95 142.883L2968.74 163.767L2985.31 165.513L2990.78 149.782L2970.95 142.883ZM2932.96 138.879L2912.43 134.451L2907.5 157.312L2930.76 159.763L2932.96 138.879ZM2939.11 123.254L2922 111.075L2921.98 111.104L2921.96 111.132L2939.11 123.254ZM2950.83 113.293L2960.97 131.684L2960.98 131.675L2961 131.666L2950.83 113.293ZM3015.28 108.996L3011.38 129.63L3011.47 129.647L3011.56 129.663L3015.28 108.996ZM3033.35 117.297L3019.49 133.075L3019.55 133.126L3019.61 133.176L3033.35 117.297ZM3041.36 129.797L3021.61 136.935L3021.62 136.974L3021.63 137.012L3041.36 129.797ZM3045.16 202.453L3024.61 206.755L3024.67 207.037L3024.74 207.317L3045.16 202.453ZM3049.27 213V234H3082.79L3068.16 203.838L3049.27 213ZM3011.96 213L2993.65 223.274L2999.66 234H3011.96V213ZM3009.03 206.945L2989.02 213.313L2989.06 213.45L2989.11 213.586L3009.03 206.945ZM3007.66 200.305L3028.43 197.145L3022.32 157.048L2993.1 185.174L3007.66 200.305ZM2992.14 211.047L3000.06 230.495L3000.15 230.46L3000.23 230.424L2992.14 211.047ZM2939.4 206.75L2925.37 222.375L2925.41 222.41L2925.45 222.446L2939.4 206.75ZM2936.77 166.125L2921.24 151.989L2936.77 166.125ZM2962.35 154.797L2966.45 175.393L2966.47 175.389L2966.49 175.386L2962.35 154.797ZM2991.36 148.547L2996.73 168.848L2996.87 168.811L2997.01 168.772L2991.36 148.547ZM3005.42 143.762L3013.13 163.295L3026.42 158.049V143.762H3005.42ZM2977.1 133.703L2965.78 116.015L2965.77 116.02L2965.76 116.024L2977.1 133.703ZM3005.42 163.781H3026.42V133.982L2998.35 144.005L3005.42 163.781ZM2988.33 168.957L2983.18 148.597L2983.05 148.63L2982.93 148.663L2988.33 168.957ZM2973 175.305L2958.38 160.229L2958.37 160.235L2973 175.305ZM2972.9 190.344L2958.52 205.65L2958.76 205.874L2959 206.09L2972.9 190.344ZM2994.87 190.051L2984.62 171.723L2984.55 171.76L2984.49 171.798L2994.87 190.051ZM3002.98 182.238L2984.35 172.538L2984.31 172.613L2984.27 172.688L3002.98 182.238ZM2973.15 121.998L2935.16 117.995L2930.76 159.763L2968.74 163.767L2973.15 121.998ZM2953.48 143.307C2954.58 138.246 2955.8 136.022 2956.26 135.376L2921.96 111.132C2917.08 118.038 2914.2 126.23 2912.43 134.451L2953.48 143.307ZM2956.22 135.432C2956.75 134.68 2958.03 133.304 2960.97 131.684L2940.69 94.9024C2933.47 98.8808 2926.93 104.145 2922 111.075L2956.22 135.432ZM2961 131.666C2961.79 131.23 2964.25 130.199 2969.46 129.296L2962.28 87.9145C2954.72 89.2251 2947.16 91.3199 2940.66 94.9202L2961 131.666ZM2969.46 129.296C2974.49 128.423 2980.18 127.945 2986.57 127.945V85.9453C2978.12 85.9453 2970 86.5749 2962.28 87.9145L2969.46 129.296ZM2986.57 127.945C2997.87 127.945 3005.98 128.609 3011.38 129.63L3019.18 88.3621C3010.13 86.6492 2999.1 85.9453 2986.57 85.9453V127.945ZM3011.56 129.663C3015.58 130.388 3017.94 131.713 3019.49 133.075L3047.21 101.519C3039.12 94.4174 3029.44 90.2083 3019.01 88.3289L3011.56 129.663ZM3019.61 133.176C3019.61 133.179 3020.54 133.976 3021.61 136.935L3061.1 122.658C3058.27 114.811 3053.86 107.274 3047.09 101.417L3019.61 133.176ZM3021.63 137.012C3022.88 140.412 3023.29 143.075 3023.29 145.129H3065.29C3065.29 137.417 3063.74 129.859 3061.08 122.582L3021.63 137.012ZM3023.29 145.129V190.93H3065.29V145.129H3023.29ZM3023.29 190.93C3023.29 196.398 3023.59 201.893 3024.61 206.755L3065.72 198.151C3065.56 197.414 3065.29 195.227 3065.29 190.93H3023.29ZM3024.74 207.317C3025.9 212.21 3028.01 217.302 3030.37 222.162L3068.16 203.838C3066.35 200.104 3065.73 198.165 3065.59 197.589L3024.74 207.317ZM3049.27 192H3011.96V234H3049.27V192ZM3030.28 202.726C3029.67 201.638 3029.26 200.856 3029.01 200.338C3028.89 200.085 3028.83 199.947 3028.81 199.91C3028.79 199.863 3028.85 200.006 3028.95 200.305L2989.11 213.586C2990.23 216.96 2992.05 220.436 2993.65 223.274L3030.28 202.726ZM3029.04 200.578C3029.12 200.817 3029.06 200.682 3028.92 199.976C3028.78 199.322 3028.62 198.395 3028.43 197.145L2986.9 203.464C2987.39 206.687 2988.04 210.243 2989.02 213.313L3029.04 200.578ZM2993.1 185.174C2989.24 188.893 2986.19 190.773 2984.04 191.67L3000.23 230.424C3008.37 227.024 3015.67 221.743 3022.23 215.435L2993.1 185.174ZM2984.21 191.599C2980.2 193.235 2974.81 194.344 2967.62 194.344V236.344C2979.05 236.344 2990.01 234.588 3000.06 230.495L2984.21 191.599ZM2967.62 194.344C2958.19 194.344 2954.57 192.14 2953.35 191.054L2925.45 222.446C2937.12 232.819 2952.32 236.344 2967.62 236.344V194.344ZM2953.43 191.125C2951.38 189.283 2950.83 187.854 2950.83 185.559H2908.83C2908.83 200.06 2914.66 212.758 2925.37 222.375L2953.43 191.125ZM2950.83 185.559C2950.83 182.086 2951.71 180.904 2952.3 180.261L2921.24 151.989C2912.58 161.502 2908.83 173.276 2908.83 185.559H2950.83ZM2952.3 180.261C2952.07 180.507 2952.63 179.792 2955.13 178.686C2957.58 177.601 2961.25 176.428 2966.45 175.393L2958.25 134.201C2944.65 136.907 2930.53 141.782 2921.24 151.989L2952.3 180.261ZM2966.49 175.386C2981.25 172.421 2991.57 170.213 2996.73 168.848L2985.98 128.246C2982.29 129.224 2973.28 131.183 2958.22 134.208L2966.49 175.386ZM2997.01 168.772C3002.23 167.313 3007.61 165.474 3013.13 163.295L2997.71 124.228C2993.33 125.956 2989.34 127.307 2985.7 128.322L2997.01 168.772ZM3026.42 143.762C3026.42 137.108 3025.25 126.405 3016.99 118.417L2987.79 148.598C2985.58 146.465 2984.77 144.331 2984.52 143.482C2984.29 142.696 2984.42 142.645 2984.42 143.762H3026.42ZM3016.99 118.417C3008.91 110.593 2998.28 109.578 2991.75 109.578V151.578C2993.06 151.578 2993.22 151.718 2992.64 151.558C2992.04 151.392 2989.97 150.714 2987.79 148.598L3016.99 118.417ZM2991.75 109.578C2983.67 109.578 2974.01 110.748 2965.78 116.015L2988.42 151.391C2987.4 152.04 2986.92 152.038 2987.58 151.897C2988.23 151.76 2989.55 151.578 2991.75 151.578V109.578ZM2965.76 116.024C2957.55 121.287 2953.38 129.449 2951.11 135.984L2990.78 149.782C2991.13 148.765 2991.31 148.592 2991.1 148.91C2990.87 149.257 2990.06 150.337 2988.43 151.383L2965.76 116.024ZM2998.35 144.005C2993.55 145.722 2988.49 147.255 2983.18 148.597L2993.47 189.317C3000.01 187.664 3006.35 185.747 3012.48 183.558L2998.35 144.005ZM2982.93 148.663C2978.4 149.869 2974.13 151.21 2970.41 152.752C2967.12 154.113 2962.34 156.383 2958.38 160.229L2987.62 190.381C2986.53 191.429 2985.72 191.892 2985.68 191.914C2985.58 191.97 2985.8 191.838 2986.47 191.558C2987.86 190.985 2990.19 190.194 2993.73 189.251L2982.93 148.663ZM2958.37 160.235C2952.65 165.783 2948.68 173.466 2948.68 182.629H2990.68C2990.68 184.191 2990.34 185.859 2989.63 187.418C2988.95 188.926 2988.12 189.889 2987.62 190.374L2958.37 160.235ZM2948.68 182.629C2948.68 191.16 2951.87 199.402 2958.52 205.65L2987.28 175.038C2988.23 175.935 2989.19 177.208 2989.86 178.807C2990.52 180.379 2990.68 181.749 2990.68 182.629H2948.68ZM2959 206.09C2966.43 212.641 2975.41 214.273 2982.57 214.273V172.273C2981.26 172.273 2983.8 171.952 2986.79 174.597L2959 206.09ZM2982.57 214.273C2990.56 214.273 2998.25 212.288 3005.26 208.303L2984.49 171.798C2983.94 172.111 2983.42 172.273 2982.57 172.273V214.273ZM3005.12 208.379C3011.57 204.77 3017.76 199.458 3021.68 191.789L2984.27 172.688C2984.64 171.963 2985.03 171.531 2985.2 171.366C2985.35 171.225 2985.23 171.381 2984.62 171.723L3005.12 208.379ZM3021.6 191.939C3025.29 184.855 3026.42 177.169 3026.42 170.129H2984.42C2984.42 171.478 2984.3 172.305 2984.22 172.717C2984.14 173.119 2984.12 172.989 2984.35 172.538L3021.6 191.939ZM3026.42 170.129V163.781H2984.42V170.129H3026.42ZM3087.58 69.8359V48.8359H3066.58V69.8359H3087.58ZM3127.32 69.8359H3148.32V48.8359H3127.32V69.8359ZM3127.32 96.8867V117.887H3148.32V96.8867H3127.32ZM3087.58 96.8867H3066.58V117.887H3087.58V96.8867ZM3087.58 109.289V88.2891H3066.58V109.289H3087.58ZM3127.32 109.289H3148.32V88.2891H3127.32V109.289ZM3127.32 213V234H3148.32V213H3127.32ZM3087.58 213H3066.58V234H3087.58V213ZM3087.58 90.8359H3127.32V48.8359H3087.58V90.8359ZM3106.32 69.8359V96.8867H3148.32V69.8359H3106.32ZM3127.32 75.8867H3087.58V117.887H3127.32V75.8867ZM3108.58 96.8867V69.8359H3066.58V96.8867H3108.58ZM3087.58 130.289H3127.32V88.2891H3087.58V130.289ZM3106.32 109.289V213H3148.32V109.289H3106.32ZM3127.32 192H3087.58V234H3127.32V192ZM3108.58 213V109.289H3066.58V213H3108.58ZM3170.71 109.289V88.2891H3149.71V109.289H3170.71ZM3207.73 109.289H3228.73V88.2891H3207.73V109.289ZM3207.73 126.184H3186.73V185.94L3224.11 139.321L3207.73 126.184ZM3224.52 111.438L3234.17 130.09L3234.26 130.047L3234.34 130.002L3224.52 111.438ZM3271.01 116.809L3255.71 131.197L3255.78 131.275L3255.86 131.352L3271.01 116.809ZM3280.38 213V234H3301.38V213H3280.38ZM3240.44 213H3219.44V234H3240.44V213ZM3236.83 142.199L3221.07 156.081L3221.15 156.175L3221.24 156.268L3236.83 142.199ZM3210.46 213V234H3231.46V213H3210.46ZM3170.71 213H3149.71V234H3170.71V213ZM3170.71 130.289H3207.73V88.2891H3170.71V130.289ZM3186.73 109.289V126.184H3228.73V109.289H3186.73ZM3224.11 139.321C3228.47 133.88 3231.92 131.257 3234.17 130.09L3214.88 92.7849C3205.8 97.4773 3198.05 104.685 3191.34 113.046L3224.11 139.321ZM3234.34 130.002C3236.27 128.981 3239.61 127.945 3245.23 127.945V85.9453C3234.57 85.9453 3224.1 87.9044 3214.71 92.8728L3234.34 130.002ZM3245.23 127.945C3251.8 127.945 3254.34 129.74 3255.71 131.197L3286.3 102.421C3275.3 90.726 3260.66 85.9453 3245.23 85.9453V127.945ZM3255.86 131.352C3256.81 132.347 3259.38 136.101 3259.38 147.082H3301.38C3301.38 130.72 3297.7 114.291 3286.16 102.265L3255.86 131.352ZM3259.38 147.082V213H3301.38V147.082H3259.38ZM3280.38 192H3240.44V234H3280.38V192ZM3261.44 213V155.969H3219.44V213H3261.44ZM3261.44 155.969C3261.44 148.043 3260.21 136.76 3252.42 128.13L3221.24 156.268C3220.41 155.351 3219.9 154.507 3219.61 153.919C3219.32 153.343 3219.23 152.988 3219.23 152.974C3219.22 152.958 3219.28 153.183 3219.34 153.711C3219.39 154.235 3219.44 154.977 3219.44 155.969H3261.44ZM3252.59 128.318C3245.4 120.167 3235.77 117.098 3226.67 117.098V159.098C3226.67 159.098 3225.86 159.097 3224.62 158.595C3223.29 158.057 3222.03 157.171 3221.07 156.081L3252.59 128.318ZM3226.67 117.098C3215.72 117.098 3205.81 121.617 3198.73 130.237L3231.18 156.896C3230.88 157.266 3230.16 157.957 3229.01 158.495C3227.87 159.026 3226.97 159.098 3226.67 159.098V117.098ZM3198.73 130.237C3190.78 139.912 3189.46 153.006 3189.46 163.195H3231.46C3231.46 159.469 3231.77 157.148 3232.05 155.893C3232.36 154.541 3232.43 155.372 3231.18 156.896L3198.73 130.237ZM3189.46 163.195V213H3231.46V163.195H3189.46ZM3210.46 192H3170.71V234H3210.46V192ZM3191.71 213V109.289H3149.71V213H3191.71ZM3322.21 173.156V152.156H3301.21V173.156H3322.21ZM3364.69 173.156H3385.69V152.156H3364.69V173.156ZM3364.69 213V234H3385.69V213H3364.69ZM3322.21 213H3301.21V234H3322.21V213ZM3322.21 194.156H3364.69V152.156H3322.21V194.156ZM3343.69 173.156V213H3385.69V173.156H3343.69ZM3364.69 192H3322.21V234H3364.69V192ZM3343.21 213V173.156H3301.21V213H3343.21Z" fill="black" mask="url(#path-1-outside-1_9_57)"/>
</g>
<defs>
<clipPath id="clip0_9_57">
<rect width="3466" height="322" fill="white"/>
</clipPath>
</defs>
</svg>
