<svg width="351" height="372" viewBox="0 0 351 372" fill="none" xmlns="http://www.w3.org/2000/svg">
<rect x="7.5" y="48.5" width="336" height="316" rx="37.5" fill="black" stroke="black" stroke-width="15"/>
<rect x="7.5" y="7.5" width="336" height="316" rx="37.5" fill="#F6DAA2" stroke="black" stroke-width="15"/>
<path d="M262.844 38.991C272.945 37.1117 283.81 37.1207 294.067 37.1207C298.561 37.1207 304.611 36.4362 308.665 38.7832C314.744 42.3028 313.894 56.427 314.224 62.3692C314.667 70.3521 315.211 78.7604 315.211 86.6825" stroke="black" stroke-width="9" stroke-linecap="round"/>
<path d="M101 119.325V172.768L125.216 162.33V133.938L154.026 149.804L179.912 137.279L125.216 107.634L101 119.325Z" fill="black"/>
<path d="M182.417 77.9897L141.082 99.7011L168.639 114.314L182.417 107.217L195.36 114.314L224.587 99.7011L182.417 77.9897Z" fill="black"/>
<path d="M241.706 109.304L212.897 123.083L231.685 134.773L101 193.644V225.794L121.041 236.232L149.433 222.036L131.897 212.015L263 151.474V120.16L241.706 109.304Z" fill="black"/>
<path d="M263.002 224.541V171.933L238.368 182.371V210.345L209.558 195.314L183.672 208.257L239.203 237.067L263.002 224.541Z" fill="black"/>
<path d="M167.386 232.474L141.082 245L182.417 266.711L225.005 245L198.701 232.474L182.417 238.737L167.386 232.474Z" fill="black"/>
</svg>
