<svg width="455" height="123" viewBox="0 0 455 123" fill="none" xmlns="http://www.w3.org/2000/svg">
<path d="M0 0H455L424.876 61.5L455 123H0L28.3251 61.5L0 0Z" fill="#6D0F0F"/>
<path d="M71.2305 57V44.25H67.4805V40.4297H80.3125V44.25H76.4805V57H71.2305ZM82.4453 40.4297H87.6953V46.875H92.5703V40.4297H97.8203V57H92.5703V50.25H87.6953V57H82.4453V40.4297ZM101.828 40.4297H113.453V43.5H107.078V47.0039H112.703V50.0039H107.078V53.625H113.453V57H101.828V40.4297ZM125.664 40.4297H137.008V43.5H130.914V47.0391H136.258V50.4141H130.914V57H125.664V40.4297ZM147.215 57.3398C146.051 57.3398 145.004 57.1719 144.074 56.8359C143.152 56.4922 142.367 55.9805 141.719 55.3008C141.07 54.6133 140.574 53.7539 140.23 52.7227C139.887 51.6914 139.715 50.4844 139.715 49.1016V40.4297H144.965V49.125C144.965 49.8984 145.004 50.5859 145.082 51.1875C145.16 51.7891 145.293 52.3008 145.48 52.7227C145.668 53.1367 145.918 53.4531 146.23 53.6719C146.543 53.8906 146.934 54 147.402 54C147.918 54 148.332 53.8906 148.645 53.6719C148.965 53.4531 149.211 53.1367 149.383 52.7227C149.562 52.3008 149.684 51.7891 149.746 51.1875C149.809 50.5859 149.84 49.8984 149.84 49.125V40.4297H154.223V49.1016C154.223 50.4922 154.086 51.7031 153.812 52.7344C153.539 53.7656 153.113 54.625 152.535 55.3125C151.965 55.9922 151.238 56.5 150.355 56.8359C149.48 57.1719 148.434 57.3398 147.215 57.3398ZM160.105 57V44.25H156.355V40.4297H169.188V44.25H165.355V57H160.105ZM178.809 57.3398C177.645 57.3398 176.598 57.1719 175.668 56.8359C174.746 56.4922 173.961 55.9805 173.312 55.3008C172.664 54.6133 172.168 53.7539 171.824 52.7227C171.48 51.6914 171.309 50.4844 171.309 49.1016V40.4297H176.559V49.125C176.559 49.8984 176.598 50.5859 176.676 51.1875C176.754 51.7891 176.887 52.3008 177.074 52.7227C177.262 53.1367 177.512 53.4531 177.824 53.6719C178.137 53.8906 178.527 54 178.996 54C179.512 54 179.926 53.8906 180.238 53.6719C180.559 53.4531 180.805 53.1367 180.977 52.7227C181.156 52.3008 181.277 51.7891 181.34 51.1875C181.402 50.5859 181.434 49.8984 181.434 49.125V40.4297H185.816V49.1016C185.816 50.4922 185.68 51.7031 185.406 52.7344C185.133 53.7656 184.707 54.625 184.129 55.3125C183.559 55.9922 182.832 56.5 181.949 56.8359C181.074 57.1719 180.027 57.3398 178.809 57.3398ZM189.824 40.4297H197.277C198.457 40.4297 199.496 40.5859 200.395 40.8984C201.293 41.2031 202.039 41.6094 202.633 42.1172C203.234 42.6172 203.688 43.1875 203.992 43.8281C204.297 44.4609 204.449 45.1016 204.449 45.75C204.449 46.2578 204.398 46.7617 204.297 47.2617C204.195 47.7539 204.016 48.2227 203.758 48.668C203.5 49.1055 203.145 49.5039 202.691 49.8633C202.246 50.2148 201.676 50.5 200.98 50.7188C201.082 51.0469 201.254 51.4531 201.496 51.9375C201.738 52.4219 202.02 52.9453 202.34 53.5078C202.66 54.0703 203.004 54.6523 203.371 55.2539C203.738 55.8555 204.098 56.4375 204.449 57H198.449C198.113 56.2422 197.77 55.3945 197.418 54.457C197.066 53.5117 196.785 52.4844 196.574 51.375H195.074V57H189.824V40.4297ZM195.965 48.75C196.559 48.75 197.059 48.6719 197.465 48.5156C197.879 48.3594 198.215 48.1562 198.473 47.9062C198.73 47.6562 198.914 47.375 199.023 47.0625C199.141 46.75 199.199 46.4375 199.199 46.125C199.199 45.5078 199.113 45.0039 198.941 44.6133C198.77 44.2227 198.535 43.918 198.238 43.6992C197.941 43.4727 197.598 43.3203 197.207 43.2422C196.816 43.1641 196.398 43.125 195.953 43.125H195.074V48.75H195.965ZM206.898 40.4297H218.523V43.5H212.148V47.0039H217.773V50.0039H212.148V53.625H218.523V57H206.898V40.4297ZM230.723 40.4297H236.301C236.785 40.4297 237.316 40.4492 237.895 40.4883C238.48 40.5195 239.066 40.5898 239.652 40.6992C240.238 40.8008 240.805 40.9492 241.352 41.1445C241.898 41.332 242.383 41.582 242.805 41.8945C243.234 42.1992 243.574 42.5781 243.824 43.0312C244.082 43.4766 244.211 44.0078 244.211 44.625C244.211 44.9922 244.168 45.3594 244.082 45.7266C243.996 46.0859 243.84 46.418 243.613 46.7227C243.395 47.0273 243.09 47.293 242.699 47.5195C242.316 47.7461 241.824 47.9062 241.223 48C241.879 48.0391 242.461 48.1914 242.969 48.457C243.484 48.7148 243.918 49.0391 244.27 49.4297C244.621 49.8203 244.887 50.2539 245.066 50.7305C245.254 51.1992 245.348 51.6641 245.348 52.125C245.348 52.7422 245.223 53.3438 244.973 53.9297C244.723 54.5078 244.301 55.0273 243.707 55.4883C243.121 55.9414 242.344 56.3086 241.375 56.5898C240.406 56.8633 239.203 57 237.766 57H230.723V40.4297ZM235.973 54H238.094C238.766 54 239.266 53.8281 239.594 53.4844C239.93 53.1328 240.098 52.6797 240.098 52.125C240.098 51.7969 240.039 51.5156 239.922 51.2812C239.812 51.0469 239.605 50.8555 239.301 50.707C238.996 50.5508 238.574 50.4375 238.035 50.3672C237.504 50.2891 236.816 50.25 235.973 50.25V54ZM237.613 47.25C237.98 47.25 238.316 47.1992 238.621 47.0977C238.926 46.9883 239.188 46.8477 239.406 46.6758C239.625 46.5039 239.793 46.3047 239.91 46.0781C240.035 45.8516 240.098 45.6172 240.098 45.375C240.098 45 240.023 44.6914 239.875 44.4492C239.727 44.207 239.488 44.0156 239.16 43.875C238.832 43.7344 238.406 43.6367 237.883 43.582C237.359 43.5273 236.723 43.5 235.973 43.5V47.25H237.613ZM248.898 40.4297H260.523V43.5H254.148V47.0039H259.773V50.0039H254.148V53.625H260.523V57H248.898V40.4297ZM264.355 40.4297H269.605V53.625H275.23V57H264.355V40.4297ZM284.289 57.3398C283.266 57.3398 282.352 57.2266 281.547 57C280.742 56.7812 280.031 56.4766 279.414 56.0859C278.805 55.6875 278.285 55.2188 277.855 54.6797C277.434 54.1328 277.086 53.543 276.812 52.9102C276.547 52.2695 276.352 51.5977 276.227 50.8945C276.109 50.1914 276.051 49.4766 276.051 48.75C276.051 48.0312 276.125 47.3203 276.273 46.6172C276.422 45.9062 276.645 45.2305 276.941 44.5898C277.238 43.9492 277.613 43.3555 278.066 42.8086C278.52 42.2617 279.051 41.7891 279.66 41.3906C280.27 40.9922 280.957 40.6797 281.723 40.4531C282.496 40.2266 283.352 40.1133 284.289 40.1133C285.227 40.1133 286.078 40.2266 286.844 40.4531C287.617 40.6797 288.309 40.9922 288.918 41.3906C289.535 41.7891 290.07 42.2617 290.523 42.8086C290.977 43.3555 291.352 43.9492 291.648 44.5898C291.953 45.2305 292.18 45.9062 292.328 46.6172C292.477 47.3203 292.551 48.0312 292.551 48.75C292.551 49.4766 292.488 50.1914 292.363 50.8945C292.238 51.5977 292.039 52.2695 291.766 52.9102C291.5 53.543 291.152 54.1328 290.723 54.6797C290.293 55.2188 289.773 55.6875 289.164 56.0859C288.555 56.4766 287.844 56.7812 287.031 57C286.227 57.2266 285.312 57.3398 284.289 57.3398ZM281.301 48.75C281.301 49.6875 281.367 50.4883 281.5 51.1523C281.641 51.8164 281.836 52.3594 282.086 52.7812C282.344 53.2031 282.656 53.5117 283.023 53.707C283.398 53.9023 283.82 54 284.289 54C284.758 54 285.176 53.9023 285.543 53.707C285.918 53.5117 286.234 53.2031 286.492 52.7812C286.758 52.3594 286.957 51.8164 287.09 51.1523C287.23 50.4883 287.301 49.6875 287.301 48.75C287.301 47.8125 287.23 47.0117 287.09 46.3477C286.957 45.6758 286.758 45.1289 286.492 44.707C286.234 44.2773 285.918 43.9609 285.543 43.7578C285.176 43.5547 284.758 43.4531 284.289 43.4531C283.82 43.4531 283.398 43.5547 283.023 43.7578C282.656 43.9609 282.344 44.2773 282.086 44.707C281.836 45.1289 281.641 45.6758 281.5 46.3477C281.367 47.0117 281.301 47.8125 281.301 48.75ZM295.645 40.4297H300.719L307.023 48.75V40.4297H311.031V57H305.828L299.617 48.1875V57H295.645V40.4297ZM323.195 57.3398C322.336 57.3398 321.516 57.2422 320.734 57.0469C319.953 56.8594 319.227 56.5859 318.555 56.2266C317.883 55.8672 317.273 55.4297 316.727 54.9141C316.188 54.3984 315.723 53.8164 315.332 53.168C314.949 52.5195 314.652 51.8125 314.441 51.0469C314.23 50.2812 314.125 49.4648 314.125 48.5977C314.125 47.332 314.375 46.1797 314.875 45.1406C315.383 44.0938 316.086 43.1992 316.984 42.457C317.891 41.707 318.965 41.1289 320.207 40.7227C321.457 40.3164 322.828 40.1133 324.32 40.1133C325.125 40.1133 325.977 40.1758 326.875 40.3008C327.773 40.418 328.672 40.6094 329.57 40.875L328.82 44.625C328.016 44.3359 327.281 44.1367 326.617 44.0273C325.953 43.9102 325.312 43.8516 324.695 43.8516C323.875 43.8516 323.137 43.9688 322.48 44.2031C321.824 44.4297 321.266 44.75 320.805 45.1641C320.344 45.5781 319.988 46.082 319.738 46.6758C319.496 47.2617 319.375 47.9102 319.375 48.6211C319.375 49.4102 319.457 50.1133 319.621 50.7305C319.785 51.3477 320.039 51.8711 320.383 52.3008C320.727 52.7305 321.16 53.0586 321.684 53.2852C322.215 53.5117 322.844 53.625 323.57 53.625H325.07V50.1914L322.445 50.543V47.625H329.57V55.5469C328.992 55.8906 328.434 56.1797 327.895 56.4141C327.355 56.6406 326.824 56.8242 326.301 56.9648C325.777 57.0977 325.258 57.1914 324.742 57.2461C324.234 57.3086 323.719 57.3398 323.195 57.3398ZM344.992 44.7305C344.672 44.5898 344.297 44.4492 343.867 44.3086C343.445 44.1602 343 44.0273 342.531 43.9102C342.07 43.793 341.602 43.6992 341.125 43.6289C340.648 43.5508 340.199 43.5117 339.777 43.5117C339.043 43.5117 338.469 43.6055 338.055 43.793C337.641 43.9805 337.434 44.2969 337.434 44.7422C337.434 44.9531 337.504 45.1406 337.645 45.3047C337.793 45.4609 338 45.6094 338.266 45.75C338.531 45.8828 338.848 46.0156 339.215 46.1484C339.59 46.2734 340.004 46.4062 340.457 46.5469L341.312 46.8164C342.031 47.0352 342.676 47.3008 343.246 47.6133C343.816 47.918 344.297 48.2812 344.688 48.7031C345.086 49.1172 345.391 49.5938 345.602 50.1328C345.812 50.6719 345.918 51.2852 345.918 51.9727C345.918 52.7773 345.789 53.5117 345.531 54.1758C345.281 54.832 344.887 55.3945 344.348 55.8633C343.809 56.332 343.117 56.6953 342.273 56.9531C341.438 57.2109 340.43 57.3398 339.25 57.3398C338.203 57.3398 337.16 57.2539 336.121 57.082C335.09 56.9102 334.047 56.6094 332.992 56.1797V52.3125C334 52.8281 334.977 53.207 335.922 53.4492C336.875 53.6836 337.812 53.8008 338.734 53.8008C339.492 53.8008 340.043 53.6797 340.387 53.4375C340.738 53.1953 340.914 52.8594 340.914 52.4297C340.914 52.1719 340.848 51.9531 340.715 51.7734C340.59 51.5859 340.383 51.4141 340.094 51.2578C339.812 51.1016 339.441 50.9453 338.98 50.7891C338.52 50.625 337.961 50.4414 337.305 50.2383C336.648 50.043 336.039 49.7969 335.477 49.5C334.922 49.2031 334.441 48.8477 334.035 48.4336C333.629 48.0117 333.309 47.5234 333.074 46.9688C332.848 46.4141 332.734 45.7812 332.734 45.0703C332.734 44.3359 332.863 43.6641 333.121 43.0547C333.379 42.4453 333.773 41.9258 334.305 41.4961C334.836 41.0586 335.508 40.7188 336.32 40.4766C337.141 40.2344 338.113 40.1133 339.238 40.1133C339.684 40.1133 340.156 40.1328 340.656 40.1719C341.156 40.2109 341.664 40.2695 342.18 40.3477C342.703 40.4258 343.219 40.5273 343.727 40.6523C344.234 40.7773 344.715 40.9258 345.168 41.0977L344.992 44.7305ZM359.746 57V44.25H355.996V40.4297H368.828V44.25H364.996V57H359.746ZM378.273 57.3398C377.25 57.3398 376.336 57.2266 375.531 57C374.727 56.7812 374.016 56.4766 373.398 56.0859C372.789 55.6875 372.27 55.2188 371.84 54.6797C371.418 54.1328 371.07 53.543 370.797 52.9102C370.531 52.2695 370.336 51.5977 370.211 50.8945C370.094 50.1914 370.035 49.4766 370.035 48.75C370.035 48.0312 370.109 47.3203 370.258 46.6172C370.406 45.9062 370.629 45.2305 370.926 44.5898C371.223 43.9492 371.598 43.3555 372.051 42.8086C372.504 42.2617 373.035 41.7891 373.645 41.3906C374.254 40.9922 374.941 40.6797 375.707 40.4531C376.48 40.2266 377.336 40.1133 378.273 40.1133C379.211 40.1133 380.062 40.2266 380.828 40.4531C381.602 40.6797 382.293 40.9922 382.902 41.3906C383.52 41.7891 384.055 42.2617 384.508 42.8086C384.961 43.3555 385.336 43.9492 385.633 44.5898C385.938 45.2305 386.164 45.9062 386.312 46.6172C386.461 47.3203 386.535 48.0312 386.535 48.75C386.535 49.4766 386.473 50.1914 386.348 50.8945C386.223 51.5977 386.023 52.2695 385.75 52.9102C385.484 53.543 385.137 54.1328 384.707 54.6797C384.277 55.2188 383.758 55.6875 383.148 56.0859C382.539 56.4766 381.828 56.7812 381.016 57C380.211 57.2266 379.297 57.3398 378.273 57.3398ZM375.285 48.75C375.285 49.6875 375.352 50.4883 375.484 51.1523C375.625 51.8164 375.82 52.3594 376.07 52.7812C376.328 53.2031 376.641 53.5117 377.008 53.707C377.383 53.9023 377.805 54 378.273 54C378.742 54 379.16 53.9023 379.527 53.707C379.902 53.5117 380.219 53.2031 380.477 52.7812C380.742 52.3594 380.941 51.8164 381.074 51.1523C381.215 50.4883 381.285 49.6875 381.285 48.75C381.285 47.8125 381.215 47.0117 381.074 46.3477C380.941 45.6758 380.742 45.1289 380.477 44.707C380.219 44.2773 379.902 43.9609 379.527 43.7578C379.16 43.5547 378.742 43.4531 378.273 43.4531C377.805 43.4531 377.383 43.5547 377.008 43.7578C376.641 43.9609 376.328 44.2773 376.07 44.707C375.82 45.1289 375.625 45.6758 375.484 46.3477C375.352 47.0117 375.285 47.8125 375.285 48.75ZM56.1953 71.4297H62.5938C63.7031 71.4297 64.6758 71.5 65.5117 71.6406C66.3555 71.7734 67.0859 71.9648 67.7031 72.2148C68.3203 72.4648 68.832 72.7656 69.2383 73.1172C69.6523 73.4688 69.9805 73.8555 70.2227 74.2773C70.4727 74.6914 70.6484 75.1367 70.75 75.6133C70.8516 76.0898 70.9023 76.582 70.9023 77.0898C70.9023 77.5195 70.8516 77.9492 70.75 78.3789C70.6562 78.8086 70.4922 79.2188 70.2578 79.6094C70.0312 80 69.7266 80.3633 69.3438 80.6992C68.9609 81.0352 68.4883 81.3281 67.9258 81.5781C67.3711 81.8281 66.7109 82.0234 65.9453 82.1641C65.1875 82.3047 64.3125 82.375 63.3203 82.375C63.1797 82.375 63.0039 82.375 62.793 82.375C62.582 82.3672 62.375 82.3555 62.1719 82.3398L61.4453 82.293V88H56.1953V71.4297ZM61.4453 79.75H62.6523C63.2148 79.75 63.6875 79.6836 64.0703 79.5508C64.4531 79.4102 64.7617 79.2227 64.9961 78.9883C65.2305 78.7539 65.3984 78.4766 65.5 78.1562C65.6016 77.8359 65.6523 77.4922 65.6523 77.125C65.6523 76.5391 65.5781 76.0547 65.4297 75.6719C65.2812 75.2891 65.0703 74.9844 64.7969 74.7578C64.5312 74.5234 64.2148 74.3594 63.8477 74.2656C63.4805 74.1719 63.082 74.125 62.6523 74.125H61.4453V79.75ZM85.832 88H79.5742L78.8008 84.4727H74.6875L73.9492 88H69.7188L73.9375 71.4297H81.2734L85.832 88ZM76.7969 74.0078L75.1914 81.7305H78.543L77.1602 74.0078H76.7969ZM87.9531 88V75.25H84.2031V71.4297H97.0352V75.25H93.2031V88H87.9531ZM99.1562 71.4297H106.609C107.789 71.4297 108.828 71.5859 109.727 71.8984C110.625 72.2031 111.371 72.6094 111.965 73.1172C112.566 73.6172 113.02 74.1875 113.324 74.8281C113.629 75.4609 113.781 76.1016 113.781 76.75C113.781 77.2578 113.73 77.7617 113.629 78.2617C113.527 78.7539 113.348 79.2227 113.09 79.668C112.832 80.1055 112.477 80.5039 112.023 80.8633C111.578 81.2148 111.008 81.5 110.312 81.7188C110.414 82.0469 110.586 82.4531 110.828 82.9375C111.07 83.4219 111.352 83.9453 111.672 84.5078C111.992 85.0703 112.336 85.6523 112.703 86.2539C113.07 86.8555 113.43 87.4375 113.781 88H107.781C107.445 87.2422 107.102 86.3945 106.75 85.457C106.398 84.5117 106.117 83.4844 105.906 82.375H104.406V88H99.1562V71.4297ZM105.297 79.75C105.891 79.75 106.391 79.6719 106.797 79.5156C107.211 79.3594 107.547 79.1562 107.805 78.9062C108.062 78.6562 108.246 78.375 108.355 78.0625C108.473 77.75 108.531 77.4375 108.531 77.125C108.531 76.5078 108.445 76.0039 108.273 75.6133C108.102 75.2227 107.867 74.918 107.57 74.6992C107.273 74.4727 106.93 74.3203 106.539 74.2422C106.148 74.1641 105.73 74.125 105.285 74.125H104.406V79.75H105.297ZM116.23 71.4297H121.48V88H116.23V71.4297ZM132.801 88.3398C131.777 88.3398 130.863 88.2266 130.059 88C129.254 87.7812 128.543 87.4766 127.926 87.0859C127.316 86.6875 126.797 86.2188 126.367 85.6797C125.945 85.1328 125.598 84.543 125.324 83.9102C125.059 83.2695 124.863 82.5977 124.738 81.8945C124.621 81.1914 124.562 80.4766 124.562 79.75C124.562 79.0312 124.637 78.3203 124.785 77.6172C124.934 76.9062 125.156 76.2305 125.453 75.5898C125.75 74.9492 126.125 74.3555 126.578 73.8086C127.031 73.2617 127.562 72.7891 128.172 72.3906C128.781 71.9922 129.469 71.6797 130.234 71.4531C131.008 71.2266 131.863 71.1133 132.801 71.1133C133.738 71.1133 134.59 71.2266 135.355 71.4531C136.129 71.6797 136.82 71.9922 137.43 72.3906C138.047 72.7891 138.582 73.2617 139.035 73.8086C139.488 74.3555 139.863 74.9492 140.16 75.5898C140.465 76.2305 140.691 76.9062 140.84 77.6172C140.988 78.3203 141.062 79.0312 141.062 79.75C141.062 80.4766 141 81.1914 140.875 81.8945C140.75 82.5977 140.551 83.2695 140.277 83.9102C140.012 84.543 139.664 85.1328 139.234 85.6797C138.805 86.2188 138.285 86.6875 137.676 87.0859C137.066 87.4766 136.355 87.7812 135.543 88C134.738 88.2266 133.824 88.3398 132.801 88.3398ZM129.812 79.75C129.812 80.6875 129.879 81.4883 130.012 82.1523C130.152 82.8164 130.348 83.3594 130.598 83.7812C130.855 84.2031 131.168 84.5117 131.535 84.707C131.91 84.9023 132.332 85 132.801 85C133.27 85 133.688 84.9023 134.055 84.707C134.43 84.5117 134.746 84.2031 135.004 83.7812C135.27 83.3594 135.469 82.8164 135.602 82.1523C135.742 81.4883 135.812 80.6875 135.812 79.75C135.812 78.8125 135.742 78.0117 135.602 77.3477C135.469 76.6758 135.27 76.1289 135.004 75.707C134.746 75.2773 134.43 74.9609 134.055 74.7578C133.688 74.5547 133.27 74.4531 132.801 74.4531C132.332 74.4531 131.91 74.5547 131.535 74.7578C131.168 74.9609 130.855 75.2773 130.598 75.707C130.348 76.1289 130.152 76.6758 130.012 77.3477C129.879 78.0117 129.812 78.8125 129.812 79.75ZM146.031 88V75.25H142.281V71.4297H155.113V75.25H151.281V88H146.031ZM169.059 75.7305C168.738 75.5898 168.363 75.4492 167.934 75.3086C167.512 75.1602 167.066 75.0273 166.598 74.9102C166.137 74.793 165.668 74.6992 165.191 74.6289C164.715 74.5508 164.266 74.5117 163.844 74.5117C163.109 74.5117 162.535 74.6055 162.121 74.793C161.707 74.9805 161.5 75.2969 161.5 75.7422C161.5 75.9531 161.57 76.1406 161.711 76.3047C161.859 76.4609 162.066 76.6094 162.332 76.75C162.598 76.8828 162.914 77.0156 163.281 77.1484C163.656 77.2734 164.07 77.4062 164.523 77.5469L165.379 77.8164C166.098 78.0352 166.742 78.3008 167.312 78.6133C167.883 78.918 168.363 79.2812 168.754 79.7031C169.152 80.1172 169.457 80.5938 169.668 81.1328C169.879 81.6719 169.984 82.2852 169.984 82.9727C169.984 83.7773 169.855 84.5117 169.598 85.1758C169.348 85.832 168.953 86.3945 168.414 86.8633C167.875 87.332 167.184 87.6953 166.34 87.9531C165.504 88.2109 164.496 88.3398 163.316 88.3398C162.27 88.3398 161.227 88.2539 160.188 88.082C159.156 87.9102 158.113 87.6094 157.059 87.1797V83.3125C158.066 83.8281 159.043 84.207 159.988 84.4492C160.941 84.6836 161.879 84.8008 162.801 84.8008C163.559 84.8008 164.109 84.6797 164.453 84.4375C164.805 84.1953 164.98 83.8594 164.98 83.4297C164.98 83.1719 164.914 82.9531 164.781 82.7734C164.656 82.5859 164.449 82.4141 164.16 82.2578C163.879 82.1016 163.508 81.9453 163.047 81.7891C162.586 81.625 162.027 81.4414 161.371 81.2383C160.715 81.043 160.105 80.7969 159.543 80.5C158.988 80.2031 158.508 79.8477 158.102 79.4336C157.695 79.0117 157.375 78.5234 157.141 77.9688C156.914 77.4141 156.801 76.7812 156.801 76.0703C156.801 75.3359 156.93 74.6641 157.188 74.0547C157.445 73.4453 157.84 72.9258 158.371 72.4961C158.902 72.0586 159.574 71.7188 160.387 71.4766C161.207 71.2344 162.18 71.1133 163.305 71.1133C163.75 71.1133 164.223 71.1328 164.723 71.1719C165.223 71.2109 165.73 71.2695 166.246 71.3477C166.77 71.4258 167.285 71.5273 167.793 71.6523C168.301 71.7773 168.781 71.9258 169.234 72.0977L169.059 75.7305ZM190.492 78.25V82H181.117V78.25H190.492ZM202.047 88V71.4297H207.812C209.234 71.4297 210.512 71.5977 211.645 71.9336C212.777 72.2617 213.734 72.7656 214.516 73.4453C215.305 74.1172 215.906 74.9648 216.32 75.9883C216.742 77.0039 216.953 78.1992 216.953 79.5742C216.953 80.6211 216.844 81.5586 216.625 82.3867C216.414 83.207 216.109 83.9297 215.711 84.5547C215.32 85.1797 214.844 85.7109 214.281 86.1484C213.727 86.5781 213.109 86.9336 212.43 87.2148C211.75 87.4883 211.016 87.6875 210.227 87.8125C209.445 87.9375 208.625 88 207.766 88H202.047ZM207.297 84.25H207.648C208.258 84.25 208.812 84.1953 209.312 84.0859C209.812 83.9688 210.238 83.7422 210.59 83.4062C210.949 83.0703 211.223 82.5977 211.41 81.9883C211.605 81.3789 211.703 80.5742 211.703 79.5742C211.703 78.668 211.617 77.9141 211.445 77.3125C211.273 76.7031 211.02 76.2188 210.684 75.8594C210.348 75.4922 209.934 75.2344 209.441 75.0859C208.949 74.9297 208.387 74.8516 207.754 74.8516H207.297V84.25ZM227.418 88.3398C226.395 88.3398 225.48 88.2266 224.676 88C223.871 87.7812 223.16 87.4766 222.543 87.0859C221.934 86.6875 221.414 86.2188 220.984 85.6797C220.562 85.1328 220.215 84.543 219.941 83.9102C219.676 83.2695 219.48 82.5977 219.355 81.8945C219.238 81.1914 219.18 80.4766 219.18 79.75C219.18 79.0312 219.254 78.3203 219.402 77.6172C219.551 76.9062 219.773 76.2305 220.07 75.5898C220.367 74.9492 220.742 74.3555 221.195 73.8086C221.648 73.2617 222.18 72.7891 222.789 72.3906C223.398 71.9922 224.086 71.6797 224.852 71.4531C225.625 71.2266 226.48 71.1133 227.418 71.1133C228.355 71.1133 229.207 71.2266 229.973 71.4531C230.746 71.6797 231.438 71.9922 232.047 72.3906C232.664 72.7891 233.199 73.2617 233.652 73.8086C234.105 74.3555 234.48 74.9492 234.777 75.5898C235.082 76.2305 235.309 76.9062 235.457 77.6172C235.605 78.3203 235.68 79.0312 235.68 79.75C235.68 80.4766 235.617 81.1914 235.492 81.8945C235.367 82.5977 235.168 83.2695 234.895 83.9102C234.629 84.543 234.281 85.1328 233.852 85.6797C233.422 86.2188 232.902 86.6875 232.293 87.0859C231.684 87.4766 230.973 87.7812 230.16 88C229.355 88.2266 228.441 88.3398 227.418 88.3398ZM224.43 79.75C224.43 80.6875 224.496 81.4883 224.629 82.1523C224.77 82.8164 224.965 83.3594 225.215 83.7812C225.473 84.2031 225.785 84.5117 226.152 84.707C226.527 84.9023 226.949 85 227.418 85C227.887 85 228.305 84.9023 228.672 84.707C229.047 84.5117 229.363 84.2031 229.621 83.7812C229.887 83.3594 230.086 82.8164 230.219 82.1523C230.359 81.4883 230.43 80.6875 230.43 79.75C230.43 78.8125 230.359 78.0117 230.219 77.3477C230.086 76.6758 229.887 76.1289 229.621 75.707C229.363 75.2773 229.047 74.9609 228.672 74.7578C228.305 74.5547 227.887 74.4531 227.418 74.4531C226.949 74.4531 226.527 74.5547 226.152 74.7578C225.785 74.9609 225.473 75.2773 225.215 75.707C224.965 76.1289 224.77 76.6758 224.629 77.3477C224.496 78.0117 224.43 78.8125 224.43 79.75ZM238.773 71.4297H243.848L250.152 79.75V71.4297H254.16V88H248.957L242.746 79.1875V88H238.773V71.4297ZM272.395 88H266.137L265.363 84.4727H261.25L260.512 88H256.281L260.5 71.4297H267.836L272.395 88ZM263.359 74.0078L261.754 81.7305H265.105L263.723 74.0078H263.359ZM274.516 71.4297H279.766V84.625H285.391V88H274.516V71.4297ZM287.992 88V71.4297H293.758C295.18 71.4297 296.457 71.5977 297.59 71.9336C298.723 72.2617 299.68 72.7656 300.461 73.4453C301.25 74.1172 301.852 74.9648 302.266 75.9883C302.688 77.0039 302.898 78.1992 302.898 79.5742C302.898 80.6211 302.789 81.5586 302.57 82.3867C302.359 83.207 302.055 83.9297 301.656 84.5547C301.266 85.1797 300.789 85.7109 300.227 86.1484C299.672 86.5781 299.055 86.9336 298.375 87.2148C297.695 87.4883 296.961 87.6875 296.172 87.8125C295.391 87.9375 294.57 88 293.711 88H287.992ZM293.242 84.25H293.594C294.203 84.25 294.758 84.1953 295.258 84.0859C295.758 83.9688 296.184 83.7422 296.535 83.4062C296.895 83.0703 297.168 82.5977 297.355 81.9883C297.551 81.3789 297.648 80.5742 297.648 79.5742C297.648 78.668 297.562 77.9141 297.391 77.3125C297.219 76.7031 296.965 76.2188 296.629 75.8594C296.293 75.4922 295.879 75.2344 295.387 75.0859C294.895 74.9297 294.332 74.8516 293.699 74.8516H293.242V84.25ZM316.281 88V75.25H312.531V71.4297H325.363V75.25H321.531V88H316.281ZM327.484 71.4297H334.938C336.117 71.4297 337.156 71.5859 338.055 71.8984C338.953 72.2031 339.699 72.6094 340.293 73.1172C340.895 73.6172 341.348 74.1875 341.652 74.8281C341.957 75.4609 342.109 76.1016 342.109 76.75C342.109 77.2578 342.059 77.7617 341.957 78.2617C341.855 78.7539 341.676 79.2227 341.418 79.668C341.16 80.1055 340.805 80.5039 340.352 80.8633C339.906 81.2148 339.336 81.5 338.641 81.7188C338.742 82.0469 338.914 82.4531 339.156 82.9375C339.398 83.4219 339.68 83.9453 340 84.5078C340.32 85.0703 340.664 85.6523 341.031 86.2539C341.398 86.8555 341.758 87.4375 342.109 88H336.109C335.773 87.2422 335.43 86.3945 335.078 85.457C334.727 84.5117 334.445 83.4844 334.234 82.375H332.734V88H327.484V71.4297ZM333.625 79.75C334.219 79.75 334.719 79.6719 335.125 79.5156C335.539 79.3594 335.875 79.1562 336.133 78.9062C336.391 78.6562 336.574 78.375 336.684 78.0625C336.801 77.75 336.859 77.4375 336.859 77.125C336.859 76.5078 336.773 76.0039 336.602 75.6133C336.43 75.2227 336.195 74.918 335.898 74.6992C335.602 74.4727 335.258 74.3203 334.867 74.2422C334.477 74.1641 334.059 74.125 333.613 74.125H332.734V79.75H333.625ZM352.047 88.3398C350.883 88.3398 349.836 88.1719 348.906 87.8359C347.984 87.4922 347.199 86.9805 346.551 86.3008C345.902 85.6133 345.406 84.7539 345.062 83.7227C344.719 82.6914 344.547 81.4844 344.547 80.1016V71.4297H349.797V80.125C349.797 80.8984 349.836 81.5859 349.914 82.1875C349.992 82.7891 350.125 83.3008 350.312 83.7227C350.5 84.1367 350.75 84.4531 351.062 84.6719C351.375 84.8906 351.766 85 352.234 85C352.75 85 353.164 84.8906 353.477 84.6719C353.797 84.4531 354.043 84.1367 354.215 83.7227C354.395 83.3008 354.516 82.7891 354.578 82.1875C354.641 81.5859 354.672 80.8984 354.672 80.125V71.4297H359.055V80.1016C359.055 81.4922 358.918 82.7031 358.645 83.7344C358.371 84.7656 357.945 85.625 357.367 86.3125C356.797 86.9922 356.07 87.5 355.188 87.8359C354.312 88.1719 353.266 88.3398 352.047 88.3398ZM363.062 71.4297H367.938L372.062 77.875L376.188 71.4297H381.18V88H375.812V79L371.945 85.5508H370.809L366.812 79V88H363.062V71.4297ZM385.188 71.4297H391.586C392.695 71.4297 393.668 71.5 394.504 71.6406C395.348 71.7734 396.078 71.9648 396.695 72.2148C397.312 72.4648 397.824 72.7656 398.23 73.1172C398.645 73.4688 398.973 73.8555 399.215 74.2773C399.465 74.6914 399.641 75.1367 399.742 75.6133C399.844 76.0898 399.895 76.582 399.895 77.0898C399.895 77.5195 399.844 77.9492 399.742 78.3789C399.648 78.8086 399.484 79.2188 399.25 79.6094C399.023 80 398.719 80.3633 398.336 80.6992C397.953 81.0352 397.48 81.3281 396.918 81.5781C396.363 81.8281 395.703 82.0234 394.938 82.1641C394.18 82.3047 393.305 82.375 392.312 82.375C392.172 82.375 391.996 82.375 391.785 82.375C391.574 82.3672 391.367 82.3555 391.164 82.3398L390.438 82.293V88H385.188V71.4297ZM390.438 79.75H391.645C392.207 79.75 392.68 79.6836 393.062 79.5508C393.445 79.4102 393.754 79.2227 393.988 78.9883C394.223 78.7539 394.391 78.4766 394.492 78.1562C394.594 77.8359 394.645 77.4922 394.645 77.125C394.645 76.5391 394.57 76.0547 394.422 75.6719C394.273 75.2891 394.062 74.9844 393.789 74.7578C393.523 74.5234 393.207 74.3594 392.84 74.2656C392.473 74.1719 392.074 74.125 391.645 74.125H390.438V79.75Z" fill="white"/>
</svg>
