<svg width="351" height="372" viewBox="0 0 351 372" fill="none" xmlns="http://www.w3.org/2000/svg">
<rect x="7.5" y="48.5" width="336" height="316" rx="37.5" fill="black" stroke="black" stroke-width="15"/>
<rect x="7.5" y="7.5" width="336" height="316" rx="37.5" fill="#F6DAA2" stroke="black" stroke-width="15"/>
<path d="M262.844 38.991C272.945 37.1117 283.81 37.1207 294.067 37.1207C298.561 37.1207 304.611 36.4362 308.665 38.7832C314.744 42.3028 313.894 56.427 314.224 62.3692C314.667 70.3521 315.211 78.7604 315.211 86.6825" stroke="black" stroke-width="9" stroke-linecap="round"/>
<path d="M221.04 252.436L178.026 189.94L171.9 181.044L121.987 108.524H143.457L183.823 167.172L189.948 176.069L242.51 252.436H221.04ZM251.386 246.331L197.209 167.623L191.084 158.721L152.329 102.418L149.117 97.7525H101.496L113.11 114.629L164.639 189.499L170.764 198.391L212.167 258.547L215.379 263.208H263L251.386 246.331Z" fill="black"/>
<path d="M172.086 181.044L178.212 189.94L170.95 198.391L115.235 263.208H101.496L164.825 189.499L172.086 181.044Z" fill="black"/>
<path d="M257.452 97.7522L197.394 167.623L190.133 176.068L184.008 167.172L191.269 158.721L231.952 111.369L243.713 97.7522H257.452Z" fill="black"/>
</svg>
