<svg width="351" height="372" viewBox="0 0 351 372" fill="none" xmlns="http://www.w3.org/2000/svg">
<rect x="7.5" y="48.5" width="336" height="316" rx="37.5" fill="black" stroke="black" stroke-width="15"/>
<rect x="7.5" y="7.5" width="336" height="316" rx="37.5" fill="#F6DAA2" stroke="black" stroke-width="15"/>
<path d="M269.63 96.3272C268.957 94.3567 268.152 93.8382 266.896 93.3456C264.149 92.3344 259.497 93.8641 259.497 93.8641C259.497 93.8641 94.7743 152.668 85.3638 159.176C83.3376 160.576 82.6587 161.405 82.3219 162.365C80.6952 166.98 85.7633 169.028 85.7633 169.028L128.22 182.77C128.22 182.77 129.802 183.003 130.366 182.64C140.025 176.573 227.542 121.71 232.589 119.869C233.385 119.636 233.975 119.895 233.819 120.44C231.798 127.492 155.786 194.567 155.786 194.567C155.786 194.567 155.496 194.93 155.313 195.345L155.214 195.293L151.253 237.114C151.253 237.114 149.592 249.922 162.494 237.114C171.596 228.065 180.403 220.494 184.811 216.838C199.41 226.847 215.121 237.918 221.902 243.699C225.307 246.603 228.155 247.07 230.5 246.992C236.936 246.759 238.733 239.733 238.733 239.733C238.733 239.733 268.75 119.766 269.753 103.691C269.852 102.109 269.988 101.124 269.998 100.035C270.017 98.5311 269.876 97.0273 269.63 96.3272Z" fill="black"/>
<path d="M262.844 38.991C272.945 37.1117 283.81 37.1207 294.067 37.1207C298.561 37.1207 304.611 36.4362 308.665 38.7832C314.744 42.3028 313.894 56.427 314.224 62.3692C314.667 70.3521 315.211 78.7604 315.211 86.6825" stroke="black" stroke-width="9" stroke-linecap="round"/>
</svg>
